M48
INCH,TZ
T10C0.010
T11C0.012
T12C0.015
T13C0.020
T14C0.028
T15C0.032
T16C0.046
T17C0.100
%
T10
X009000Y000200
X010000Y000200
X011000Y000200
X012000Y000200
X013000Y000200
X012820Y000700
X013800Y001000
X014000Y000200
X013950Y002150
X013950Y002700
X013450Y002700
X013400Y003200
X013160Y003594
X012750Y003450
X012900Y002700
X013050Y001800
X013450Y001700
X015000Y002200
X015800Y002350
X015800Y001900
X015800Y003200
X015800Y004000
X015800Y004800
X015800Y005550
X015800Y006350
X015800Y007150
X015800Y007900
X015800Y008700
X015800Y009500
X015800Y010300
X015800Y011050
X015800Y011850
X014200Y012000
X014200Y012450
X012900Y012150
X013100Y011450
X013450Y011450
X012700Y011450
X012010Y011620
X012000Y010850
X012200Y010600
X012450Y010600
X012300Y010300
X012000Y010350
X012199Y009750
X012570Y009730
X012970Y009810
X013100Y010600
X013460Y010460
X014200Y010550
X014200Y010800
X013930Y009850
X013930Y009450
X013930Y009150
X013910Y007520
X013830Y007200
X013920Y006890
X013160Y006450
X013150Y006000
X013150Y005680
X013350Y005300
X014020Y005080
X014030Y005690
X014330Y005710
X013780Y005800
X012600Y006000
X011954Y005870
X011614Y005660
X011250Y005650
X011150Y006404
X010760Y006380
X009900Y006350
X010039Y005660
X009700Y005650
X010379Y005870
X010379Y004835
X009799Y004780
X008804Y004835
X008224Y004780
X008464Y005660
X008804Y005870
X008400Y006600
X008300Y007900
X008990Y008190
X008600Y008700
X008200Y008800
X008200Y009000
X008580Y009240
X009220Y009550
X010000Y009550
X009850Y009850
X010000Y010150
X009800Y011100
X009984Y011350
X010200Y011350
X010400Y011100
X010800Y012150
X010800Y012420
X011300Y012430
X011790Y012430
X009750Y012400
X008870Y012350
X008800Y011350
X008800Y010850
X008800Y010350
X010260Y008670
X010150Y007760
X010450Y007760
X010300Y007510
X010600Y007490
X010894Y007294
X011200Y007350
X011200Y007850
X011730Y007860
X012030Y008350
X011070Y008410
X011780Y009450
X011760Y006710
X012630Y007050
X013200Y007500
X010126Y007294
X011374Y004780
X011954Y004835
X012700Y004600
X013500Y003934
X013950Y004150
X014050Y003200
X011610Y003400
X011784Y003600
X010209Y003600
X010019Y003410
X009971Y002096
X011546Y002096
X008396Y002096
X008444Y003410
X008634Y003600
X008000Y004500
X007870Y005030
X007890Y005900
X008000Y006600
X007760Y007294
X007550Y007510
X007800Y007900
X007800Y008500
X008000Y008800
X008000Y009000
X007050Y008900
X006920Y008620
X006960Y007720
X006150Y007600
X005800Y007750
X005450Y007600
X005200Y007600
X005250Y008250
X004950Y008600
X004450Y008600
X004200Y008250
X003870Y008410
X003730Y008550
X003590Y008410
X003730Y008270
X003160Y008270
X003300Y008410
X003160Y008550
X003020Y008410
X002840Y008080
X002070Y007720
X002070Y007400
X002660Y006440
X003270Y006130
X003740Y005660
X004100Y005900
X004750Y006050
X004950Y005550
X004690Y005340
X004720Y005030
X005075Y004780
X005315Y005660
X006265Y005340
X006295Y005030
X006650Y004780
X006500Y005750
X006890Y005660
X007210Y006330
X007040Y006820
X007220Y007030
X006660Y006460
X006000Y007120
X005650Y008640
X006180Y008850
X007350Y010350
X007350Y010550
X007550Y010550
X007550Y010350
X007550Y010950
X007350Y010950
X007350Y011150
X007550Y011150
X005230Y012300
X004150Y011700
X004200Y011300
X003750Y011330
X002600Y011750
X002400Y011750
X002400Y011950
X002600Y011950
X002350Y010800
X002350Y010530
X002350Y010250
X002200Y010020
X002250Y009620
X002250Y009350
X002660Y009950
X002860Y009950
X002860Y010150
X002660Y010150
X001590Y011070
X000200Y011100
X000200Y011850
X000200Y010300
X000200Y009500
X000200Y008700
X000200Y007950
X000200Y007150
X000200Y006350
X000200Y005550
X000200Y004800
X000200Y004000
X000200Y003200
X000200Y002400
X000400Y002150
X000200Y001900
X002200Y001400
X002200Y001000
X002000Y000200
X003000Y000200
X003000Y000800
X004000Y000800
X004000Y000200
X005000Y000200
X006000Y000200
X007000Y000200
X008000Y000200
X006870Y003410
X007060Y003600
X005485Y003600
X005310Y003400
X003720Y003410
X003910Y003600
X002384Y003639
X002380Y002760
X002256Y004460
X002000Y004550
X002030Y004990
X001900Y005800
X002920Y005390
X002730Y004520
X003500Y004780
X000910Y007790
X000200Y012650
X000200Y013450
X000200Y014250
X000900Y014250
X002050Y014050
X002050Y013250
X002050Y013050
X003000Y013050
X003050Y013750
X003050Y013950
X003250Y013950
X003450Y013950
X003650Y013950
X003600Y013550
X003250Y013750
X003900Y014350
X003900Y014550
X004100Y014550
X004100Y014350
X004300Y014350
X004300Y014550
X005020Y014070
X005020Y013800
X005839Y013934
X005839Y013220
X005840Y012810
X005690Y012570
X005390Y012530
X006150Y012600
X006540Y012520
X006450Y012810
X006450Y013220
X006750Y013110
X007020Y012920
X007290Y012660
X007700Y013200
X008070Y013100
X007700Y013710
X007550Y013980
X007410Y013540
X006806Y013806
X006660Y014062
X006650Y014630
X006400Y015080
X006660Y015812
X005839Y015684
X005020Y015550
X005020Y015820
X005070Y016240
X004060Y016350
X001600Y015800
X000900Y015800
X000200Y015800
X000200Y016600
X000200Y017100
X001600Y016950
X000200Y015000
X005600Y014800
X007420Y014883
X007420Y015217
X007550Y016020
X007380Y016240
X004770Y013010
X004770Y012810
X004570Y012810
X004570Y012610
X004570Y013010
X008400Y012750
X008360Y013420
X009020Y013550
X008950Y013950
X008700Y014470
X009400Y014420
X009822Y014450
X010150Y014150
X010450Y014150
X010180Y013840
X009800Y013260
X010550Y013050
X010910Y012740
X011300Y013700
X011790Y013700
X012550Y013950
X012650Y013350
X012600Y012750
X012300Y013000
X013000Y013660
X013300Y013600
X013422Y014450
X013000Y014420
X012861Y015016
X013680Y015150
X013680Y014880
X013900Y014720
X013927Y015023
X014070Y015500
X014200Y017100
X014650Y016850
X015350Y016850
X015800Y017100
X015800Y016600
X015800Y015800
X015800Y015050
X015800Y014250
X015800Y013450
X015800Y012650
X013500Y012700
X012300Y014470
X012550Y015740
X011150Y016020
X011020Y015217
X011020Y014883
X011150Y014080
X010080Y014880
X010080Y015150
X010150Y015500
X009822Y015600
X009560Y015790
X009250Y016000
X008950Y015740
X008700Y015600
X009261Y015016
X010150Y016050
X013450Y016700
X013250Y017650
X013250Y017900
X013800Y017900
X013800Y017650
X015090Y016410
T11
X009174Y003360
X010749Y003360
X012324Y003360
X011604Y004330
X011105Y005220
X009650Y005220
X010029Y004330
X008454Y004330
X012680Y005030
X006880Y004330
X005305Y004330
X003730Y004330
X004450Y003360
X006025Y003360
X007600Y003360
X007050Y009250
X003900Y007130
T12
X014470Y000470
X015000Y000250
X015531Y000470
X015750Y001000
X015531Y001530
X015000Y001750
X014470Y001530
X014250Y001000
X001750Y001000
X001531Y001530
X001000Y001750
X000470Y001530
X000250Y001000
X000470Y000470
X001000Y000250
X001531Y000470
X004750Y009850
X005200Y009850
X005650Y009850
X005650Y010550
X005200Y010550
X004750Y010550
X001531Y017470
X001000Y017250
X000470Y017470
X000250Y018000
X000470Y018530
X001000Y018750
X001531Y018530
X001750Y018000
X013050Y016850
X014500Y017470
X015000Y017250
X015531Y017470
X015750Y018000
X015531Y018530
X015000Y018750
X014500Y018530
X014250Y018000
T13
X002480Y002320
T14
X003666Y016792
X004453Y016792
X005241Y016792
X006028Y016792
X006815Y016792
X007603Y016792
X007603Y017579
X006815Y017579
X006028Y017579
X005241Y017579
X004453Y017579
X003666Y017579
X008390Y017579
X009178Y017579
X009965Y017579
X010752Y017579
X011540Y017579
X012327Y017579
X012327Y016792
X011540Y016792
X010752Y016792
X009965Y016792
X009178Y016792
X008390Y016792
T15
X008784Y001418
X008784Y002205
X009571Y002205
X010359Y002205
X010359Y001418
X009571Y001418
X011146Y001418
X011146Y002205
X011933Y002205
X012721Y002205
X012721Y001418
X011933Y001418
X014693Y002807
X015480Y002807
X015480Y003594
X015480Y004382
X014693Y004382
X014693Y003594
X014693Y005169
X015480Y005169
X015480Y005957
X015480Y006744
X014693Y006744
X014693Y005957
X014693Y007531
X014693Y008319
X015480Y008319
X015480Y007531
X015480Y009106
X015480Y009894
X014693Y009894
X014693Y009106
X014693Y010681
X014693Y011468
X015480Y011468
X015480Y010681
X015480Y012256
X014693Y012256
X001307Y012256
X000520Y012256
X000520Y011468
X000520Y010681
X000520Y009894
X000520Y009106
X000520Y008319
X000520Y007531
X001307Y007531
X001307Y008319
X001307Y009106
X001307Y009894
X001307Y010681
X001307Y011468
X001307Y006744
X001307Y005957
X001307Y005169
X001307Y004382
X001307Y003594
X001307Y002807
X000520Y002807
X000520Y003594
X000520Y004382
X000520Y005169
X000520Y005957
X000520Y006744
X003272Y002205
X003272Y001418
X004059Y001418
X004847Y001418
X004847Y002205
X004059Y002205
X005634Y002205
X006422Y002205
X006422Y001418
X005634Y001418
X007209Y001418
X007209Y002205
X007996Y002205
X007996Y001418
X001307Y013043
X000520Y013043
X000520Y013831
X001307Y013831
X001307Y014618
X000520Y014618
X000520Y015406
X001307Y015406
X001307Y016193
X000520Y016193
X014693Y016193
X015480Y016193
X015480Y015406
X014693Y015406
X014693Y014618
X015480Y014618
X015480Y013831
X014693Y013831
X014693Y013043
X015480Y013043
T16
X002485Y017186
X002485Y018367
X004059Y018367
X004059Y017186
X005634Y017186
X005634Y018367
X007209Y018367
X007209Y017186
X008784Y017186
X008784Y018367
X010359Y018367
X010359Y017186
X011933Y017186
X011933Y018367
X013508Y018367
X013508Y017186
T17
X015000Y001000
X001000Y001000
X001000Y018000
X015000Y018000
M30

