G04 This is an RS-274x file exported by *
G04 gerbv version 2.6A *
G04 More information is available about gerbv at *
G04 http://gerbv.geda-project.org/ *
G04 --End of header info--*
%MOIN*%
%FSLAX34Y34*%
%IPPOS*%
G04 --Define apertures--*
%ADD10C,0.0070*%
%ADD11C,0.0080*%
%ADD12C,0.0100*%
%ADD13C,0.0050*%
%ADD14C,0.0090*%
%ADD15C,0.0010*%
%ADD16R,0.0240X0.0240*%
%ADD17R,0.0296X0.0375*%
%ADD18R,0.0240X0.0240*%
%ADD19R,0.0375X0.0296*%
%ADD20R,0.0512X0.0512*%
%ADD21R,0.0390X0.0390*%
%ADD22R,0.0390X0.0390*%
%ADD23R,0.0220X0.0290*%
%ADD24R,0.0827X0.0390*%
%ADD25O,0.0280X0.0840*%
%ADD26R,0.0591X0.0749*%
%ADD27R,0.0400X0.0400*%
%ADD28R,0.0394X0.0434*%
%ADD29R,0.0197X0.0355*%
%ADD30R,0.0512X0.0906*%
%ADD31R,0.0512X0.0591*%
%ADD32R,0.0670X0.0591*%
%ADD33R,0.0316X0.0670*%
%ADD34R,0.0197X0.0591*%
%ADD35R,0.0788X0.0749*%
%ADD36R,0.0796X0.0749*%
%ADD37C,0.0540*%
%AMMACRO38*
21,1,0.054000,0.025000,0.000000,0.000000,270.000000*
21,1,0.025000,0.054000,0.000000,0.000000,270.000000*
1,1,0.029000,-0.012500,-0.012500*
1,1,0.029000,-0.012500,0.012500*
1,1,0.029000,0.012500,0.012500*
1,1,0.029000,0.012500,-0.012500*
%
%ADD38MACRO38*%
%ADD39C,0.0340*%
%ADD40C,0.0434*%
%ADD41C,0.0020*%
G04 --Start main section--*
G36*
G01X0071527Y-022880D02*
G01X0071543Y-022896D01*
G01X0071551Y-022916D01*
G01X0071551Y-022927D01*
G01X0071551Y-023932D01*
G01X0071551Y-023944D01*
G01X0071543Y-023964D01*
G01X0071527Y-023980D01*
G01X0071506Y-023989D01*
G01X0071371Y-023989D01*
G01X0071351Y-023980D01*
G01X0071335Y-023964D01*
G01X0071326Y-023944D01*
G01X0071326Y-023932D01*
G01X0071326Y-023152D01*
G01X0071325Y-023142D01*
G01X0071317Y-023121D01*
G01X0071301Y-023106D01*
G01X0071281Y-023097D01*
G01X0071270Y-023096D01*
G01X0071045Y-023096D01*
G01X0071034Y-023097D01*
G01X0071014Y-023106D01*
G01X0070998Y-023121D01*
G01X0070990Y-023142D01*
G01X0070989Y-023152D01*
G01X0070989Y-023932D01*
G01X0070989Y-023944D01*
G01X0070980Y-023964D01*
G01X0070964Y-023980D01*
G01X0070944Y-023989D01*
G01X0070816Y-023989D01*
G01X0070796Y-023980D01*
G01X0070780Y-023964D01*
G01X0070771Y-023944D01*
G01X0070771Y-023932D01*
G01X0070771Y-023152D01*
G01X0070770Y-023142D01*
G01X0070762Y-023121D01*
G01X0070746Y-023106D01*
G01X0070726Y-023097D01*
G01X0070715Y-023096D01*
G01X0070490Y-023096D01*
G01X0070479Y-023097D01*
G01X0070459Y-023106D01*
G01X0070443Y-023121D01*
G01X0070435Y-023142D01*
G01X0070434Y-023152D01*
G01X0070434Y-023932D01*
G01X0070434Y-023944D01*
G01X0070425Y-023964D01*
G01X0070409Y-023980D01*
G01X0070389Y-023989D01*
G01X0070254Y-023989D01*
G01X0070233Y-023980D01*
G01X0070217Y-023964D01*
G01X0070209Y-023944D01*
G01X0070209Y-023932D01*
G01X0070209Y-022927D01*
G01X0070209Y-022916D01*
G01X0070217Y-022896D01*
G01X0070233Y-022880D01*
G01X0070254Y-022871D01*
G01X0071506Y-022871D01*
G01X0071527Y-022880D01*
G37*
G36*
G01X0071527Y-022880D02*
G37*
G36*
G01X0103449Y-025706D02*
G01X0103459Y-025732D01*
G01X0103457Y-025735D01*
G01X0103457Y-025735D01*
G01X0103461Y-026405D01*
G01X0103449Y-026434D01*
G01X0103423Y-026444D01*
G01X0103420Y-026442D01*
G01X0103420Y-026442D01*
G01X0102605Y-026446D01*
G01X0102576Y-026434D01*
G01X0102566Y-026408D01*
G01X0102568Y-026405D01*
G01X0102568Y-026405D01*
G01X0102564Y-026035D01*
G01X0102576Y-026006D01*
G01X0102602Y-025996D01*
G01X0102605Y-025998D01*
G01X0102605Y-025998D01*
G01X0102605Y-025998D01*
G01X0103270Y-026001D01*
G01X0103299Y-025989D01*
G01X0103311Y-025960D01*
G01X0103311Y-025960D01*
G01X0103308Y-025957D01*
G01X0103311Y-025885D01*
G01X0103299Y-025856D01*
G01X0103270Y-025844D01*
G01X0103270Y-025847D01*
G01X0102605Y-025851D01*
G01X0102576Y-025839D01*
G01X0102566Y-025813D01*
G01X0102568Y-025810D01*
G01X0102568Y-025810D01*
G01X0102564Y-025735D01*
G01X0102576Y-025706D01*
G01X0102602Y-025696D01*
G01X0102605Y-025698D01*
G01X0102605Y-025698D01*
G01X0103420Y-025694D01*
G01X0103449Y-025706D01*
G37*
G36*
G01X0103449Y-025706D02*
G37*
G36*
G01X0097594Y-025706D02*
G01X0097604Y-025732D01*
G01X0097603Y-025735D01*
G01X0097603Y-025735D01*
G01X0097606Y-026405D01*
G01X0097594Y-026434D01*
G01X0097568Y-026444D01*
G01X0097565Y-026442D01*
G01X0097565Y-026442D01*
G01X0096750Y-026446D01*
G01X0096721Y-026434D01*
G01X0096711Y-026408D01*
G01X0096713Y-026405D01*
G01X0096713Y-026405D01*
G01X0096709Y-026035D01*
G01X0096721Y-026006D01*
G01X0096747Y-025996D01*
G01X0096750Y-025998D01*
G01X0096750Y-025998D01*
G01X0096750Y-025998D01*
G01X0097415Y-026001D01*
G01X0097444Y-025989D01*
G01X0097456Y-025960D01*
G01X0097456Y-025960D01*
G01X0097453Y-025957D01*
G01X0097456Y-025885D01*
G01X0097444Y-025856D01*
G01X0097415Y-025844D01*
G01X0097415Y-025847D01*
G01X0096750Y-025851D01*
G01X0096721Y-025839D01*
G01X0096711Y-025813D01*
G01X0096713Y-025810D01*
G01X0096713Y-025810D01*
G01X0096709Y-025735D01*
G01X0096721Y-025706D01*
G01X0096747Y-025696D01*
G01X0096750Y-025698D01*
G01X0096750Y-025698D01*
G01X0097565Y-025694D01*
G01X0097594Y-025706D01*
G37*
G36*
G01X0097594Y-025706D02*
G37*
G36*
G01X0080309Y-022880D02*
G01X0080325Y-022896D01*
G01X0080334Y-022916D01*
G01X0080334Y-022927D01*
G01X0080334Y-023932D01*
G01X0080334Y-023944D01*
G01X0080325Y-023964D01*
G01X0080309Y-023980D01*
G01X0080289Y-023989D01*
G01X0080154Y-023989D01*
G01X0080133Y-023980D01*
G01X0080117Y-023964D01*
G01X0080109Y-023944D01*
G01X0080109Y-023932D01*
G01X0080109Y-023152D01*
G01X0080108Y-023142D01*
G01X0080099Y-023121D01*
G01X0080084Y-023106D01*
G01X0080063Y-023097D01*
G01X0080052Y-023096D01*
G01X0079272Y-023096D01*
G01X0079262Y-023097D01*
G01X0079241Y-023106D01*
G01X0079226Y-023121D01*
G01X0079217Y-023142D01*
G01X0079216Y-023152D01*
G01X0079216Y-023932D01*
G01X0079216Y-023944D01*
G01X0079208Y-023964D01*
G01X0079192Y-023980D01*
G01X0079171Y-023989D01*
G01X0079044Y-023989D01*
G01X0079023Y-023980D01*
G01X0079007Y-023964D01*
G01X0078999Y-023944D01*
G01X0078999Y-023932D01*
G01X0078999Y-022927D01*
G01X0078999Y-022916D01*
G01X0079007Y-022896D01*
G01X0079023Y-022880D01*
G01X0079044Y-022871D01*
G01X0080289Y-022871D01*
G01X0080309Y-022880D01*
G37*
G36*
G01X0080309Y-022880D02*
G37*
G36*
G01X0076184Y-022880D02*
G01X0076200Y-022896D01*
G01X0076209Y-022916D01*
G01X0076209Y-022927D01*
G01X0076209Y-023040D01*
G01X0076209Y-023051D01*
G01X0076200Y-023072D01*
G01X0076184Y-023088D01*
G01X0076164Y-023096D01*
G01X0075155Y-023096D01*
G01X0075144Y-023097D01*
G01X0075124Y-023106D01*
G01X0075108Y-023121D01*
G01X0075100Y-023142D01*
G01X0075099Y-023152D01*
G01X0075099Y-023707D01*
G01X0075100Y-023718D01*
G01X0075108Y-023739D01*
G01X0075124Y-023754D01*
G01X0075144Y-023763D01*
G01X0075155Y-023764D01*
G01X0076164Y-023764D01*
G01X0076184Y-023772D01*
G01X0076200Y-023788D01*
G01X0076209Y-023809D01*
G01X0076209Y-023820D01*
G01X0076209Y-023932D01*
G01X0076209Y-023944D01*
G01X0076200Y-023964D01*
G01X0076184Y-023980D01*
G01X0076164Y-023989D01*
G01X0074919Y-023989D01*
G01X0074898Y-023980D01*
G01X0074882Y-023964D01*
G01X0074874Y-023944D01*
G01X0074874Y-023932D01*
G01X0074874Y-022927D01*
G01X0074874Y-022916D01*
G01X0074882Y-022896D01*
G01X0074898Y-022880D01*
G01X0074919Y-022871D01*
G01X0076164Y-022871D01*
G01X0076184Y-022880D01*
G37*
G36*
G01X0076184Y-022880D02*
G37*
G36*
G01X0074632Y-022880D02*
G01X0074648Y-022896D01*
G01X0074656Y-022916D01*
G01X0074656Y-022927D01*
G01X0074656Y-023040D01*
G01X0074656Y-023051D01*
G01X0074648Y-023072D01*
G01X0074632Y-023088D01*
G01X0074611Y-023096D01*
G01X0073602Y-023096D01*
G01X0073592Y-023097D01*
G01X0073571Y-023106D01*
G01X0073556Y-023121D01*
G01X0073547Y-023142D01*
G01X0073546Y-023152D01*
G01X0073546Y-023707D01*
G01X0073547Y-023718D01*
G01X0073556Y-023739D01*
G01X0073571Y-023754D01*
G01X0073592Y-023763D01*
G01X0073602Y-023764D01*
G01X0074611Y-023764D01*
G01X0074632Y-023772D01*
G01X0074648Y-023788D01*
G01X0074656Y-023809D01*
G01X0074656Y-023820D01*
G01X0074656Y-023932D01*
G01X0074656Y-023944D01*
G01X0074648Y-023964D01*
G01X0074632Y-023980D01*
G01X0074611Y-023989D01*
G01X0073366Y-023989D01*
G01X0073346Y-023980D01*
G01X0073330Y-023964D01*
G01X0073321Y-023944D01*
G01X0073321Y-023932D01*
G01X0073321Y-022927D01*
G01X0073321Y-022916D01*
G01X0073330Y-022896D01*
G01X0073346Y-022880D01*
G01X0073366Y-022871D01*
G01X0074611Y-022871D01*
G01X0074632Y-022880D01*
G37*
G36*
G01X0074632Y-022880D02*
G37*
G36*
G01X0101356Y-025708D02*
G01X0101367Y-025719D01*
G01X0101372Y-025733D01*
G01X0101372Y-025740D01*
G01X0101372Y-025815D01*
G01X0101372Y-025822D01*
G01X0101367Y-025836D01*
G01X0101356Y-025847D01*
G01X0101342Y-025852D01*
G01X0101258Y-025852D01*
G01X0101244Y-025847D01*
G01X0101233Y-025836D01*
G01X0101228Y-025822D01*
G01X0101228Y-025815D01*
G01X0101228Y-025740D01*
G01X0101228Y-025733D01*
G01X0101233Y-025719D01*
G01X0101244Y-025708D01*
G01X0101258Y-025703D01*
G01X0101342Y-025703D01*
G01X0101356Y-025708D01*
G37*
G36*
G01X0101356Y-025708D02*
G37*
G36*
G01X0098621Y-025703D02*
G01X0098632Y-025714D01*
G01X0098638Y-025728D01*
G01X0098638Y-025735D01*
G01X0098638Y-025810D01*
G01X0098638Y-025817D01*
G01X0098632Y-025831D01*
G01X0098621Y-025842D01*
G01X0098607Y-025847D01*
G01X0097935Y-025847D01*
G01X0097928Y-025848D01*
G01X0097914Y-025854D01*
G01X0097904Y-025864D01*
G01X0097898Y-025878D01*
G01X0097898Y-025885D01*
G01X0097898Y-026255D01*
G01X0097898Y-026262D01*
G01X0097904Y-026276D01*
G01X0097914Y-026286D01*
G01X0097928Y-026292D01*
G01X0097935Y-026293D01*
G01X0098607Y-026293D01*
G01X0098621Y-026298D01*
G01X0098632Y-026309D01*
G01X0098638Y-026323D01*
G01X0098638Y-026330D01*
G01X0098638Y-026405D01*
G01X0098638Y-026412D01*
G01X0098632Y-026426D01*
G01X0098621Y-026437D01*
G01X0098607Y-026442D01*
G01X0097778Y-026442D01*
G01X0097764Y-026437D01*
G01X0097753Y-026426D01*
G01X0097747Y-026412D01*
G01X0097747Y-026405D01*
G01X0097747Y-025735D01*
G01X0097747Y-025728D01*
G01X0097753Y-025714D01*
G01X0097764Y-025703D01*
G01X0097778Y-025698D01*
G01X0098607Y-025698D01*
G01X0098621Y-025703D01*
G37*
G36*
G01X0098621Y-025703D02*
G37*
G36*
G01X0096551Y-025703D02*
G01X0096562Y-025714D01*
G01X0096567Y-025728D01*
G01X0096567Y-025735D01*
G01X0096567Y-026405D01*
G01X0096567Y-026412D01*
G01X0096562Y-026426D01*
G01X0096551Y-026437D01*
G01X0096537Y-026442D01*
G01X0096448Y-026442D01*
G01X0096434Y-026437D01*
G01X0096423Y-026426D01*
G01X0096418Y-026412D01*
G01X0096418Y-026405D01*
G01X0096418Y-025885D01*
G01X0096417Y-025878D01*
G01X0096411Y-025864D01*
G01X0096401Y-025854D01*
G01X0096387Y-025848D01*
G01X0096380Y-025847D01*
G01X0096230Y-025847D01*
G01X0096223Y-025848D01*
G01X0096209Y-025854D01*
G01X0096199Y-025864D01*
G01X0096193Y-025878D01*
G01X0096193Y-025885D01*
G01X0096193Y-026405D01*
G01X0096193Y-026412D01*
G01X0096187Y-026426D01*
G01X0096176Y-026437D01*
G01X0096162Y-026442D01*
G01X0096078Y-026442D01*
G01X0096064Y-026437D01*
G01X0096053Y-026426D01*
G01X0096047Y-026412D01*
G01X0096047Y-026405D01*
G01X0096047Y-025885D01*
G01X0096047Y-025878D01*
G01X0096041Y-025864D01*
G01X0096031Y-025854D01*
G01X0096017Y-025848D01*
G01X0096010Y-025847D01*
G01X0095860Y-025847D01*
G01X0095853Y-025848D01*
G01X0095839Y-025854D01*
G01X0095829Y-025864D01*
G01X0095823Y-025878D01*
G01X0095822Y-025885D01*
G01X0095822Y-026405D01*
G01X0095822Y-026412D01*
G01X0095817Y-026426D01*
G01X0095806Y-026437D01*
G01X0095792Y-026442D01*
G01X0095703Y-026442D01*
G01X0095689Y-026437D01*
G01X0095678Y-026426D01*
G01X0095673Y-026412D01*
G01X0095673Y-026405D01*
G01X0095673Y-025735D01*
G01X0095673Y-025728D01*
G01X0095678Y-025714D01*
G01X0095689Y-025703D01*
G01X0095703Y-025698D01*
G01X0096537Y-025698D01*
G01X0096551Y-025703D01*
G37*
G36*
G01X0096551Y-025703D02*
G37*
G36*
G01X0094525Y-024971D02*
G01X0094700Y-025013D01*
G01X0094866Y-025082D01*
G01X0095020Y-025176D01*
G01X0095157Y-025293D01*
G01X0095274Y-025430D01*
G01X0095368Y-025584D01*
G01X0095437Y-025750D01*
G01X0095479Y-025925D01*
G01X0095494Y-026105D01*
G01X0095479Y-026285D01*
G01X0095437Y-026460D01*
G01X0095368Y-026626D01*
G01X0095274Y-026780D01*
G01X0095157Y-026917D01*
G01X0095020Y-027034D01*
G01X0094866Y-027128D01*
G01X0094700Y-027197D01*
G01X0094525Y-027239D01*
G01X0094345Y-027254D01*
G01X0094165Y-027239D01*
G01X0093990Y-027197D01*
G01X0093824Y-027128D01*
G01X0093670Y-027034D01*
G01X0093533Y-026917D01*
G01X0093416Y-026780D01*
G01X0093322Y-026626D01*
G01X0093253Y-026460D01*
G01X0093211Y-026285D01*
G01X0093196Y-026105D01*
G01X0093211Y-025925D01*
G01X0093253Y-025750D01*
G01X0093322Y-025584D01*
G01X0093416Y-025430D01*
G01X0093533Y-025293D01*
G01X0093670Y-025176D01*
G01X0093824Y-025082D01*
G01X0093990Y-025013D01*
G01X0094165Y-024971D01*
G01X0094345Y-024956D01*
G01X0094525Y-024971D01*
G37*
G36*
G01X0094525Y-024971D02*
G37*
G36*
G01X0100691Y-025708D02*
G01X0100702Y-025719D01*
G01X0100708Y-025733D01*
G01X0100708Y-025740D01*
G01X0100708Y-025980D01*
G01X0100708Y-025987D01*
G01X0100714Y-026001D01*
G01X0100724Y-026011D01*
G01X0100738Y-026017D01*
G01X0100745Y-026017D01*
G01X0101342Y-026017D01*
G01X0101356Y-026023D01*
G01X0101367Y-026034D01*
G01X0101372Y-026048D01*
G01X0101372Y-026055D01*
G01X0101372Y-026405D01*
G01X0101372Y-026412D01*
G01X0101367Y-026426D01*
G01X0101356Y-026437D01*
G01X0101342Y-026442D01*
G01X0101258Y-026442D01*
G01X0101244Y-026437D01*
G01X0101233Y-026426D01*
G01X0101228Y-026412D01*
G01X0101228Y-026405D01*
G01X0101228Y-026205D01*
G01X0101227Y-026198D01*
G01X0101221Y-026184D01*
G01X0101211Y-026174D01*
G01X0101197Y-026168D01*
G01X0101190Y-026168D01*
G01X0100745Y-026168D01*
G01X0100738Y-026168D01*
G01X0100724Y-026174D01*
G01X0100714Y-026184D01*
G01X0100708Y-026198D01*
G01X0100708Y-026205D01*
G01X0100708Y-026405D01*
G01X0100708Y-026412D01*
G01X0100702Y-026426D01*
G01X0100691Y-026437D01*
G01X0100677Y-026442D01*
G01X0100588Y-026442D01*
G01X0100574Y-026437D01*
G01X0100563Y-026426D01*
G01X0100557Y-026412D01*
G01X0100557Y-026405D01*
G01X0100557Y-026205D01*
G01X0100557Y-026198D01*
G01X0100551Y-026184D01*
G01X0100541Y-026174D01*
G01X0100527Y-026168D01*
G01X0100520Y-026168D01*
G01X0100005Y-026168D01*
G01X0099998Y-026168D01*
G01X0099984Y-026174D01*
G01X0099974Y-026184D01*
G01X0099968Y-026198D01*
G01X0099967Y-026205D01*
G01X0099967Y-026405D01*
G01X0099967Y-026412D01*
G01X0099962Y-026426D01*
G01X0099951Y-026437D01*
G01X0099937Y-026442D01*
G01X0099848Y-026442D01*
G01X0099834Y-026437D01*
G01X0099823Y-026426D01*
G01X0099817Y-026412D01*
G01X0099817Y-026405D01*
G01X0099817Y-025740D01*
G01X0099817Y-025733D01*
G01X0099823Y-025719D01*
G01X0099834Y-025708D01*
G01X0099848Y-025703D01*
G01X0099937Y-025703D01*
G01X0099951Y-025708D01*
G01X0099962Y-025719D01*
G01X0099967Y-025733D01*
G01X0099967Y-025740D01*
G01X0099967Y-025980D01*
G01X0099968Y-025987D01*
G01X0099974Y-026001D01*
G01X0099984Y-026011D01*
G01X0099998Y-026017D01*
G01X0100005Y-026017D01*
G01X0100520Y-026017D01*
G01X0100527Y-026017D01*
G01X0100541Y-026011D01*
G01X0100551Y-026001D01*
G01X0100557Y-025987D01*
G01X0100557Y-025980D01*
G01X0100557Y-025740D01*
G01X0100557Y-025733D01*
G01X0100563Y-025719D01*
G01X0100574Y-025708D01*
G01X0100588Y-025703D01*
G01X0100677Y-025703D01*
G01X0100691Y-025708D01*
G37*
G36*
G01X0100691Y-025708D02*
G37*
G36*
G01X0102406Y-025703D02*
G01X0102417Y-025714D01*
G01X0102423Y-025728D01*
G01X0102423Y-025735D01*
G01X0102423Y-026405D01*
G01X0102423Y-026412D01*
G01X0102417Y-026426D01*
G01X0102406Y-026437D01*
G01X0102392Y-026442D01*
G01X0102303Y-026442D01*
G01X0102289Y-026437D01*
G01X0102278Y-026426D01*
G01X0102273Y-026412D01*
G01X0102273Y-026405D01*
G01X0102273Y-025885D01*
G01X0102272Y-025878D01*
G01X0102266Y-025864D01*
G01X0102256Y-025854D01*
G01X0102242Y-025848D01*
G01X0102235Y-025847D01*
G01X0101715Y-025847D01*
G01X0101708Y-025848D01*
G01X0101694Y-025854D01*
G01X0101684Y-025864D01*
G01X0101678Y-025878D01*
G01X0101678Y-025885D01*
G01X0101678Y-026405D01*
G01X0101678Y-026412D01*
G01X0101672Y-026426D01*
G01X0101661Y-026437D01*
G01X0101647Y-026442D01*
G01X0101563Y-026442D01*
G01X0101549Y-026437D01*
G01X0101538Y-026426D01*
G01X0101532Y-026412D01*
G01X0101532Y-026405D01*
G01X0101532Y-025735D01*
G01X0101532Y-025728D01*
G01X0101538Y-025714D01*
G01X0101549Y-025703D01*
G01X0101563Y-025698D01*
G01X0102392Y-025698D01*
G01X0102406Y-025703D01*
G37*
G36*
G01X0102406Y-025703D02*
G37*
G36*
G01X0099656Y-025703D02*
G01X0099667Y-025714D01*
G01X0099672Y-025728D01*
G01X0099672Y-025735D01*
G01X0099672Y-025810D01*
G01X0099672Y-025817D01*
G01X0099667Y-025831D01*
G01X0099656Y-025842D01*
G01X0099642Y-025847D01*
G01X0098970Y-025847D01*
G01X0098963Y-025848D01*
G01X0098949Y-025854D01*
G01X0098939Y-025864D01*
G01X0098933Y-025878D01*
G01X0098933Y-025885D01*
G01X0098933Y-026255D01*
G01X0098933Y-026262D01*
G01X0098939Y-026276D01*
G01X0098949Y-026286D01*
G01X0098963Y-026292D01*
G01X0098970Y-026293D01*
G01X0099642Y-026293D01*
G01X0099656Y-026298D01*
G01X0099667Y-026309D01*
G01X0099672Y-026323D01*
G01X0099672Y-026330D01*
G01X0099672Y-026405D01*
G01X0099672Y-026412D01*
G01X0099667Y-026426D01*
G01X0099656Y-026437D01*
G01X0099642Y-026442D01*
G01X0098813Y-026442D01*
G01X0098799Y-026437D01*
G01X0098788Y-026426D01*
G01X0098783Y-026412D01*
G01X0098783Y-026405D01*
G01X0098783Y-025735D01*
G01X0098783Y-025728D01*
G01X0098788Y-025714D01*
G01X0098799Y-025703D01*
G01X0098813Y-025698D01*
G01X0099642Y-025698D01*
G01X0099656Y-025703D01*
G37*
G36*
G01X0099656Y-025703D02*
G37*
G36*
G01X0077737Y-022887D02*
G01X0077753Y-022903D01*
G01X0077761Y-022924D01*
G01X0077761Y-022935D01*
G01X0077761Y-023295D01*
G01X0077762Y-023306D01*
G01X0077771Y-023326D01*
G01X0077786Y-023342D01*
G01X0077807Y-023350D01*
G01X0077818Y-023351D01*
G01X0078714Y-023351D01*
G01X0078734Y-023360D01*
G01X0078750Y-023376D01*
G01X0078759Y-023396D01*
G01X0078759Y-023407D01*
G01X0078759Y-023932D01*
G01X0078759Y-023944D01*
G01X0078750Y-023964D01*
G01X0078734Y-023980D01*
G01X0078714Y-023989D01*
G01X0078586Y-023989D01*
G01X0078566Y-023980D01*
G01X0078550Y-023964D01*
G01X0078541Y-023944D01*
G01X0078541Y-023932D01*
G01X0078541Y-023633D01*
G01X0078540Y-023622D01*
G01X0078532Y-023601D01*
G01X0078516Y-023586D01*
G01X0078496Y-023577D01*
G01X0078485Y-023576D01*
G01X0077818Y-023576D01*
G01X0077807Y-023577D01*
G01X0077786Y-023586D01*
G01X0077771Y-023601D01*
G01X0077762Y-023622D01*
G01X0077761Y-023633D01*
G01X0077761Y-023932D01*
G01X0077761Y-023944D01*
G01X0077753Y-023964D01*
G01X0077737Y-023980D01*
G01X0077716Y-023989D01*
G01X0077581Y-023989D01*
G01X0077561Y-023980D01*
G01X0077545Y-023964D01*
G01X0077536Y-023944D01*
G01X0077536Y-023932D01*
G01X0077536Y-023633D01*
G01X0077535Y-023622D01*
G01X0077527Y-023601D01*
G01X0077511Y-023586D01*
G01X0077491Y-023577D01*
G01X0077480Y-023576D01*
G01X0076708Y-023576D01*
G01X0076697Y-023577D01*
G01X0076676Y-023586D01*
G01X0076661Y-023601D01*
G01X0076652Y-023622D01*
G01X0076651Y-023633D01*
G01X0076651Y-023932D01*
G01X0076651Y-023944D01*
G01X0076643Y-023964D01*
G01X0076627Y-023980D01*
G01X0076606Y-023989D01*
G01X0076471Y-023989D01*
G01X0076451Y-023980D01*
G01X0076435Y-023964D01*
G01X0076426Y-023944D01*
G01X0076426Y-023932D01*
G01X0076426Y-022935D01*
G01X0076426Y-022924D01*
G01X0076435Y-022903D01*
G01X0076451Y-022887D01*
G01X0076471Y-022879D01*
G01X0076606Y-022879D01*
G01X0076627Y-022887D01*
G01X0076643Y-022903D01*
G01X0076651Y-022924D01*
G01X0076651Y-022935D01*
G01X0076651Y-023295D01*
G01X0076652Y-023306D01*
G01X0076661Y-023326D01*
G01X0076676Y-023342D01*
G01X0076697Y-023350D01*
G01X0076708Y-023351D01*
G01X0077480Y-023351D01*
G01X0077491Y-023350D01*
G01X0077511Y-023342D01*
G01X0077527Y-023326D01*
G01X0077535Y-023306D01*
G01X0077536Y-023295D01*
G01X0077536Y-022935D01*
G01X0077536Y-022924D01*
G01X0077545Y-022903D01*
G01X0077561Y-022887D01*
G01X0077581Y-022879D01*
G01X0077716Y-022879D01*
G01X0077737Y-022887D01*
G37*
G36*
G01X0077737Y-022887D02*
G37*
G36*
G01X-001544Y-003703D02*
G37*
G36*
G01X-002579Y-003703D02*
G37*
G36*
G01X0001206Y-003703D02*
G37*
G36*
G01X-000509Y-003708D02*
G37*
G36*
G01X0000156Y-003708D02*
G37*
G36*
G01X-004649Y-003703D02*
G37*
G36*
G01X-003606Y-003706D02*
G37*
G36*
G01X0002249Y-003706D02*
G37*
G36*
G01X0081830Y-022871D02*
G01X0081830Y-022871D01*
G01X0081834Y-022868D01*
G01X0081873Y-022884D01*
G01X0081891Y-022927D01*
G01X0081886Y-023932D01*
G01X0081886Y-023932D01*
G01X0081889Y-023937D01*
G01X0081873Y-023976D01*
G01X0081830Y-023993D01*
G01X0080608Y-023989D01*
G01X0080608Y-023989D01*
G01X0080603Y-023992D01*
G01X0080564Y-023976D01*
G01X0080547Y-023932D01*
G01X0080551Y-023377D01*
G01X0080551Y-023377D01*
G01X0080548Y-023373D01*
G01X0080564Y-023334D01*
G01X0080608Y-023317D01*
G01X0081605Y-023321D01*
G01X0081605Y-023326D01*
G01X0081648Y-023308D01*
G01X0081666Y-023265D01*
G01X0081661Y-023157D01*
G01X0081666Y-023152D01*
G01X0081666Y-023152D01*
G01X0081648Y-023109D01*
G01X0081605Y-023092D01*
G01X0080608Y-023096D01*
G01X0080608Y-023096D01*
G01X0080608Y-023096D01*
G01X0080603Y-023099D01*
G01X0080564Y-023083D01*
G01X0080547Y-023040D01*
G01X0080551Y-022927D01*
G01X0080551Y-022927D01*
G01X0080548Y-022923D01*
G01X0080564Y-022884D01*
G01X0080608Y-022867D01*
G01X0081830Y-022871D01*
G37*
G36*
G01X0081830Y-022871D02*
G37*
G36*
G01X0073091Y-022884D02*
G01X0073107Y-022923D01*
G01X0073104Y-022927D01*
G01X0073104Y-022927D01*
G01X0073108Y-023932D01*
G01X0073091Y-023976D01*
G01X0073052Y-023992D01*
G01X0073047Y-023989D01*
G01X0073047Y-023989D01*
G01X0071825Y-023993D01*
G01X0071782Y-023976D01*
G01X0071766Y-023937D01*
G01X0071769Y-023932D01*
G01X0071769Y-023932D01*
G01X0071764Y-023377D01*
G01X0071782Y-023334D01*
G01X0071821Y-023318D01*
G01X0071825Y-023321D01*
G01X0071825Y-023321D01*
G01X0071825Y-023321D01*
G01X0072822Y-023326D01*
G01X0072866Y-023308D01*
G01X0072883Y-023265D01*
G01X0072883Y-023265D01*
G01X0072879Y-023260D01*
G01X0072883Y-023152D01*
G01X0072866Y-023109D01*
G01X0072822Y-023092D01*
G01X0072822Y-023096D01*
G01X0071825Y-023101D01*
G01X0071782Y-023083D01*
G01X0071766Y-023044D01*
G01X0071769Y-023040D01*
G01X0071769Y-023040D01*
G01X0071764Y-022927D01*
G01X0071782Y-022884D01*
G01X0071821Y-022868D01*
G01X0071825Y-022871D01*
G01X0071825Y-022871D01*
G01X0073047Y-022867D01*
G01X0073091Y-022884D01*
G37*
G36*
G01X0073091Y-022884D02*
G37*
G36*
G01X0078734Y-022887D02*
G01X0078750Y-022903D01*
G01X0078759Y-022924D01*
G01X0078759Y-022935D01*
G01X0078759Y-023047D01*
G01X0078759Y-023059D01*
G01X0078750Y-023079D01*
G01X0078734Y-023095D01*
G01X0078714Y-023104D01*
G01X0078586Y-023104D01*
G01X0078566Y-023095D01*
G01X0078550Y-023079D01*
G01X0078541Y-023059D01*
G01X0078541Y-023047D01*
G01X0078541Y-022935D01*
G01X0078541Y-022924D01*
G01X0078550Y-022903D01*
G01X0078566Y-022887D01*
G01X0078586Y-022879D01*
G01X0078714Y-022879D01*
G01X0078734Y-022887D01*
G37*
G36*
G01X0078734Y-022887D02*
G37*
%LPC*%
G36*
G01X0102750Y-026144D02*
G01X0102750Y-026144D01*
G01X0102721Y-026156D01*
G01X0102709Y-026185D01*
G01X0102712Y-026252D01*
G01X0102709Y-026255D01*
G01X0102709Y-026255D01*
G01X0102721Y-026284D01*
G01X0102750Y-026296D01*
G01X0103267Y-026293D01*
G01X0103270Y-026296D01*
G01X0103270Y-026296D01*
G01X0103299Y-026284D01*
G01X0103311Y-026255D01*
G01X0103308Y-026188D01*
G01X0103311Y-026185D01*
G01X0103311Y-026185D01*
G01X0103299Y-026156D01*
G01X0103270Y-026144D01*
G01X0102753Y-026147D01*
G01X0102750Y-026144D01*
G37*
G36*
G01X0102750Y-026144D02*
G37*
G36*
G01X0096895Y-026144D02*
G01X0096895Y-026144D01*
G01X0096866Y-026156D01*
G01X0096854Y-026185D01*
G01X0096857Y-026252D01*
G01X0096854Y-026255D01*
G01X0096854Y-026255D01*
G01X0096866Y-026284D01*
G01X0096895Y-026296D01*
G01X0097412Y-026293D01*
G01X0097415Y-026296D01*
G01X0097415Y-026296D01*
G01X0097444Y-026284D01*
G01X0097456Y-026255D01*
G01X0097453Y-026188D01*
G01X0097456Y-026185D01*
G01X0097456Y-026185D01*
G01X0097444Y-026156D01*
G01X0097415Y-026144D01*
G01X0096898Y-026147D01*
G01X0096895Y-026144D01*
G37*
G36*
G01X0096895Y-026144D02*
G37*
G36*
G01X0094975Y-025734D02*
G01X0094975Y-025734D01*
G01X0094946Y-025746D01*
G01X0094934Y-025775D01*
G01X0094937Y-025847D01*
G01X0094934Y-025850D01*
G01X0094934Y-025850D01*
G01X0094946Y-025879D01*
G01X0094975Y-025891D01*
G01X0095042Y-025888D01*
G01X0095045Y-025891D01*
G01X0095045Y-025891D01*
G01X0095074Y-025879D01*
G01X0095086Y-025850D01*
G01X0095083Y-025778D01*
G01X0095086Y-025775D01*
G01X0095086Y-025775D01*
G01X0095074Y-025746D01*
G01X0095045Y-025734D01*
G01X0094978Y-025737D01*
G01X0094975Y-025734D01*
G37*
G36*
G01X0094975Y-025734D02*
G37*
G36*
G01X0094305Y-025734D02*
G01X0094305Y-025734D01*
G01X0094276Y-025746D01*
G01X0094264Y-025775D01*
G01X0094268Y-026015D01*
G01X0094268Y-026015D01*
G01X0094268Y-026015D01*
G01X0094269Y-026018D01*
G01X0094259Y-026044D01*
G01X0094230Y-026056D01*
G01X0093715Y-026052D01*
G01X0093715Y-026052D01*
G01X0093712Y-026054D01*
G01X0093686Y-026044D01*
G01X0093674Y-026015D01*
G01X0093678Y-025775D01*
G01X0093681Y-025775D01*
G01X0093669Y-025746D01*
G01X0093640Y-025734D01*
G01X0093568Y-025737D01*
G01X0093565Y-025734D01*
G01X0093565Y-025734D01*
G01X0093536Y-025746D01*
G01X0093524Y-025775D01*
G01X0093527Y-026437D01*
G01X0093524Y-026440D01*
G01X0093524Y-026440D01*
G01X0093536Y-026469D01*
G01X0093565Y-026481D01*
G01X0093637Y-026478D01*
G01X0093640Y-026481D01*
G01X0093640Y-026481D01*
G01X0093669Y-026469D01*
G01X0093681Y-026440D01*
G01X0093678Y-026240D01*
G01X0093678Y-026240D01*
G01X0093678Y-026240D01*
G01X0093676Y-026237D01*
G01X0093686Y-026211D01*
G01X0093715Y-026199D01*
G01X0094230Y-026202D01*
G01X0094230Y-026202D01*
G01X0094233Y-026201D01*
G01X0094259Y-026211D01*
G01X0094271Y-026240D01*
G01X0094268Y-026440D01*
G01X0094264Y-026440D01*
G01X0094276Y-026469D01*
G01X0094305Y-026481D01*
G01X0094377Y-026478D01*
G01X0094380Y-026481D01*
G01X0094380Y-026481D01*
G01X0094409Y-026469D01*
G01X0094421Y-026440D01*
G01X0094417Y-026240D01*
G01X0094417Y-026240D01*
G01X0094417Y-026240D01*
G01X0094416Y-026237D01*
G01X0094426Y-026211D01*
G01X0094455Y-026199D01*
G01X0094900Y-026202D01*
G01X0094900Y-026202D01*
G01X0094903Y-026201D01*
G01X0094929Y-026211D01*
G01X0094941Y-026240D01*
G01X0094937Y-026440D01*
G01X0094934Y-026440D01*
G01X0094946Y-026469D01*
G01X0094975Y-026481D01*
G01X0095042Y-026478D01*
G01X0095045Y-026481D01*
G01X0095045Y-026481D01*
G01X0095074Y-026469D01*
G01X0095086Y-026440D01*
G01X0095083Y-026093D01*
G01X0095086Y-026090D01*
G01X0095086Y-026090D01*
G01X0095074Y-026061D01*
G01X0095045Y-026049D01*
G01X0094455Y-026052D01*
G01X0094455Y-026052D01*
G01X0094455Y-026052D01*
G01X0094452Y-026054D01*
G01X0094426Y-026044D01*
G01X0094414Y-026015D01*
G01X0094417Y-025775D01*
G01X0094421Y-025775D01*
G01X0094409Y-025746D01*
G01X0094380Y-025734D01*
G01X0094308Y-025737D01*
G01X0094305Y-025734D01*
G37*
G36*
G01X0094305Y-025734D02*
G37*
G36*
G01X-004305Y-004144D02*
G37*
G36*
G01X0001550Y-004144D02*
G37*
G36*
G01X0081605Y-023542D02*
G01X0081600Y-023546D01*
G01X0080825Y-023542D01*
G01X0080782Y-023559D01*
G01X0080764Y-023602D01*
G01X0080764Y-023602D01*
G01X0080769Y-023607D01*
G01X0080764Y-023707D01*
G01X0080782Y-023751D01*
G01X0080825Y-023768D01*
G01X0080825Y-023768D01*
G01X0080830Y-023764D01*
G01X0081605Y-023768D01*
G01X0081648Y-023751D01*
G01X0081666Y-023707D01*
G01X0081666Y-023707D01*
G01X0081661Y-023703D01*
G01X0081666Y-023602D01*
G01X0081648Y-023559D01*
G01X0081605Y-023542D01*
G01X0081605Y-023542D01*
G37*
G36*
G01X0081605Y-023542D02*
G37*
G36*
G01X0072042Y-023542D02*
G01X0072042Y-023542D01*
G01X0071999Y-023559D01*
G01X0071982Y-023602D01*
G01X0071986Y-023703D01*
G01X0071982Y-023707D01*
G01X0071982Y-023707D01*
G01X0071999Y-023751D01*
G01X0072042Y-023768D01*
G01X0072818Y-023764D01*
G01X0072822Y-023768D01*
G01X0072822Y-023768D01*
G01X0072866Y-023751D01*
G01X0072883Y-023707D01*
G01X0072879Y-023607D01*
G01X0072883Y-023602D01*
G01X0072883Y-023602D01*
G01X0072866Y-023559D01*
G01X0072822Y-023542D01*
G01X0072047Y-023546D01*
G01X0072042Y-023542D01*
G37*
G36*
G01X0072042Y-023542D02*
G37*
%LPD*%
G54D10*
G01X0071300Y-033300D02*
G01X0071300Y-033800D01*
G01X0071300Y-033300D02*
G01X0071490Y-033800D01*
G01X0071681Y-033300D02*
G01X0071490Y-033800D01*
G01X0071681Y-033300D02*
G01X0071681Y-033800D01*
G01X0072205Y-033800D02*
G01X0072014Y-033300D01*
G01X0072014Y-033300D02*
G01X0071824Y-033800D01*
G01X0071895Y-033633D02*
G01X0072133Y-033633D01*
G01X0072654Y-033372D02*
G01X0072607Y-033324D01*
G01X0072607Y-033324D02*
G01X0072535Y-033300D01*
G01X0072535Y-033300D02*
G01X0072440Y-033300D01*
G01X0072440Y-033300D02*
G01X0072369Y-033324D01*
G01X0072369Y-033324D02*
G01X0072321Y-033372D01*
G01X0072321Y-033372D02*
G01X0072321Y-033419D01*
G01X0072321Y-033419D02*
G01X0072345Y-033467D01*
G01X0072345Y-033467D02*
G01X0072369Y-033491D01*
G01X0072369Y-033491D02*
G01X0072416Y-033514D01*
G01X0072416Y-033514D02*
G01X0072559Y-033562D01*
G01X0072559Y-033562D02*
G01X0072607Y-033586D01*
G01X0072607Y-033586D02*
G01X0072631Y-033610D01*
G01X0072631Y-033610D02*
G01X0072654Y-033657D01*
G01X0072654Y-033657D02*
G01X0072654Y-033729D01*
G01X0072654Y-033729D02*
G01X0072607Y-033776D01*
G01X0072607Y-033776D02*
G01X0072535Y-033800D01*
G01X0072535Y-033800D02*
G01X0072440Y-033800D01*
G01X0072440Y-033800D02*
G01X0072369Y-033776D01*
G01X0072369Y-033776D02*
G01X0072321Y-033729D01*
G01X0072766Y-033300D02*
G01X0072766Y-033800D01*
G01X0073100Y-033300D02*
G01X0072766Y-033633D01*
G01X0072885Y-033514D02*
G01X0073100Y-033800D01*
G01X0073771Y-033300D02*
G01X0073771Y-033800D01*
G01X0073604Y-033300D02*
G01X0073938Y-033300D01*
G01X0074140Y-033300D02*
G01X0074092Y-033324D01*
G01X0074092Y-033324D02*
G01X0074045Y-033372D01*
G01X0074045Y-033372D02*
G01X0074021Y-033419D01*
G01X0074021Y-033419D02*
G01X0073997Y-033491D01*
G01X0073997Y-033491D02*
G01X0073997Y-033610D01*
G01X0073997Y-033610D02*
G01X0074021Y-033681D01*
G01X0074021Y-033681D02*
G01X0074045Y-033729D01*
G01X0074045Y-033729D02*
G01X0074092Y-033776D01*
G01X0074092Y-033776D02*
G01X0074140Y-033800D01*
G01X0074140Y-033800D02*
G01X0074235Y-033800D01*
G01X0074235Y-033800D02*
G01X0074283Y-033776D01*
G01X0074283Y-033776D02*
G01X0074330Y-033729D01*
G01X0074330Y-033729D02*
G01X0074354Y-033681D01*
G01X0074354Y-033681D02*
G01X0074378Y-033610D01*
G01X0074378Y-033610D02*
G01X0074378Y-033491D01*
G01X0074378Y-033491D02*
G01X0074354Y-033419D01*
G01X0074354Y-033419D02*
G01X0074330Y-033372D01*
G01X0074330Y-033372D02*
G01X0074283Y-033324D01*
G01X0074283Y-033324D02*
G01X0074235Y-033300D01*
G01X0074235Y-033300D02*
G01X0074140Y-033300D01*
G01X0074495Y-033562D02*
G01X0074709Y-033562D01*
G01X0074709Y-033562D02*
G01X0074780Y-033538D01*
G01X0074780Y-033538D02*
G01X0074804Y-033514D01*
G01X0074804Y-033514D02*
G01X0074828Y-033467D01*
G01X0074828Y-033467D02*
G01X0074828Y-033395D01*
G01X0074828Y-033395D02*
G01X0074804Y-033348D01*
G01X0074804Y-033348D02*
G01X0074780Y-033324D01*
G01X0074780Y-033324D02*
G01X0074709Y-033300D01*
G01X0074709Y-033300D02*
G01X0074495Y-033300D01*
G01X0074495Y-033300D02*
G01X0074495Y-033800D01*
G01X0074963Y-033752D02*
G01X0074940Y-033776D01*
G01X0074940Y-033776D02*
G01X0074963Y-033800D01*
G01X0074963Y-033800D02*
G01X0074987Y-033776D01*
G01X0074987Y-033776D02*
G01X0074963Y-033752D01*
G01X0075454Y-033419D02*
G01X0075430Y-033372D01*
G01X0075430Y-033372D02*
G01X0075382Y-033324D01*
G01X0075382Y-033324D02*
G01X0075335Y-033300D01*
G01X0075335Y-033300D02*
G01X0075240Y-033300D01*
G01X0075240Y-033300D02*
G01X0075192Y-033324D01*
G01X0075192Y-033324D02*
G01X0075144Y-033372D01*
G01X0075144Y-033372D02*
G01X0075121Y-033419D01*
G01X0075121Y-033419D02*
G01X0075097Y-033491D01*
G01X0075097Y-033491D02*
G01X0075097Y-033610D01*
G01X0075097Y-033610D02*
G01X0075121Y-033681D01*
G01X0075121Y-033681D02*
G01X0075144Y-033729D01*
G01X0075144Y-033729D02*
G01X0075192Y-033776D01*
G01X0075192Y-033776D02*
G01X0075240Y-033800D01*
G01X0075240Y-033800D02*
G01X0075335Y-033800D01*
G01X0075335Y-033800D02*
G01X0075382Y-033776D01*
G01X0075382Y-033776D02*
G01X0075430Y-033729D01*
G01X0075430Y-033729D02*
G01X0075454Y-033681D01*
G01X0075454Y-033681D02*
G01X0075454Y-033610D01*
G01X0075335Y-033610D02*
G01X0075454Y-033610D01*
G01X0075735Y-033300D02*
G01X0075735Y-033800D01*
G01X0075568Y-033300D02*
G01X0075901Y-033300D01*
G01X0076294Y-033372D02*
G01X0076247Y-033324D01*
G01X0076247Y-033324D02*
G01X0076175Y-033300D01*
G01X0076175Y-033300D02*
G01X0076080Y-033300D01*
G01X0076080Y-033300D02*
G01X0076009Y-033324D01*
G01X0076009Y-033324D02*
G01X0075961Y-033372D01*
G01X0075961Y-033372D02*
G01X0075961Y-033419D01*
G01X0075961Y-033419D02*
G01X0075985Y-033467D01*
G01X0075985Y-033467D02*
G01X0076009Y-033491D01*
G01X0076009Y-033491D02*
G01X0076056Y-033514D01*
G01X0076056Y-033514D02*
G01X0076199Y-033562D01*
G01X0076199Y-033562D02*
G01X0076247Y-033586D01*
G01X0076247Y-033586D02*
G01X0076270Y-033610D01*
G01X0076270Y-033610D02*
G01X0076294Y-033657D01*
G01X0076294Y-033657D02*
G01X0076294Y-033729D01*
G01X0076294Y-033729D02*
G01X0076247Y-033776D01*
G01X0076247Y-033776D02*
G01X0076175Y-033800D01*
G01X0076175Y-033800D02*
G01X0076080Y-033800D01*
G01X0076080Y-033800D02*
G01X0076009Y-033776D01*
G01X0076009Y-033776D02*
G01X0075961Y-033729D01*
G01X0071600Y-026900D02*
G01X0071600Y-027600D01*
G01X0071600Y-026900D02*
G01X0071867Y-027600D01*
G01X0072133Y-026900D02*
G01X0071867Y-027600D01*
G01X0072133Y-026900D02*
G01X0072133Y-027600D01*
G01X0072733Y-027133D02*
G01X0072733Y-027600D01*
G01X0072733Y-027233D02*
G01X0072666Y-027167D01*
G01X0072666Y-027167D02*
G01X0072600Y-027133D01*
G01X0072600Y-027133D02*
G01X0072500Y-027133D01*
G01X0072500Y-027133D02*
G01X0072433Y-027167D01*
G01X0072433Y-027167D02*
G01X0072366Y-027233D01*
G01X0072366Y-027233D02*
G01X0072333Y-027333D01*
G01X0072333Y-027333D02*
G01X0072333Y-027400D01*
G01X0072333Y-027400D02*
G01X0072366Y-027500D01*
G01X0072366Y-027500D02*
G01X0072433Y-027567D01*
G01X0072433Y-027567D02*
G01X0072500Y-027600D01*
G01X0072500Y-027600D02*
G01X0072600Y-027600D01*
G01X0072600Y-027600D02*
G01X0072666Y-027567D01*
G01X0072666Y-027567D02*
G01X0072733Y-027500D01*
G01X0073320Y-027233D02*
G01X0073253Y-027167D01*
G01X0073253Y-027167D02*
G01X0073186Y-027133D01*
G01X0073186Y-027133D02*
G01X0073086Y-027133D01*
G01X0073086Y-027133D02*
G01X0073020Y-027167D01*
G01X0073020Y-027167D02*
G01X0072953Y-027233D01*
G01X0072953Y-027233D02*
G01X0072920Y-027333D01*
G01X0072920Y-027333D02*
G01X0072920Y-027400D01*
G01X0072920Y-027400D02*
G01X0072953Y-027500D01*
G01X0072953Y-027500D02*
G01X0073020Y-027567D01*
G01X0073020Y-027567D02*
G01X0073086Y-027600D01*
G01X0073086Y-027600D02*
G01X0073186Y-027600D01*
G01X0073186Y-027600D02*
G01X0073253Y-027567D01*
G01X0073253Y-027567D02*
G01X0073320Y-027500D01*
G01X0073870Y-027233D02*
G01X0073803Y-027167D01*
G01X0073803Y-027167D02*
G01X0073736Y-027133D01*
G01X0073736Y-027133D02*
G01X0073636Y-027133D01*
G01X0073636Y-027133D02*
G01X0073570Y-027167D01*
G01X0073570Y-027167D02*
G01X0073503Y-027233D01*
G01X0073503Y-027233D02*
G01X0073470Y-027333D01*
G01X0073470Y-027333D02*
G01X0073470Y-027400D01*
G01X0073470Y-027400D02*
G01X0073503Y-027500D01*
G01X0073503Y-027500D02*
G01X0073570Y-027567D01*
G01X0073570Y-027567D02*
G01X0073636Y-027600D01*
G01X0073636Y-027600D02*
G01X0073736Y-027600D01*
G01X0073736Y-027600D02*
G01X0073803Y-027567D01*
G01X0073803Y-027567D02*
G01X0073870Y-027500D01*
G01X0074019Y-026900D02*
G01X0074019Y-027600D01*
G01X0074019Y-027267D02*
G01X0074119Y-027167D01*
G01X0074119Y-027167D02*
G01X0074186Y-027133D01*
G01X0074186Y-027133D02*
G01X0074286Y-027133D01*
G01X0074286Y-027133D02*
G01X0074353Y-027167D01*
G01X0074353Y-027167D02*
G01X0074386Y-027267D01*
G01X0074386Y-027267D02*
G01X0074386Y-027600D01*
G01X0074636Y-026900D02*
G01X0074669Y-026933D01*
G01X0074669Y-026933D02*
G01X0074703Y-026900D01*
G01X0074703Y-026900D02*
G01X0074669Y-026867D01*
G01X0074669Y-026867D02*
G01X0074636Y-026900D01*
G01X0074669Y-027133D02*
G01X0074669Y-027600D01*
G01X0074826Y-027133D02*
G01X0074826Y-027600D01*
G01X0074826Y-027267D02*
G01X0074926Y-027167D01*
G01X0074926Y-027167D02*
G01X0074993Y-027133D01*
G01X0074993Y-027133D02*
G01X0075093Y-027133D01*
G01X0075093Y-027133D02*
G01X0075159Y-027167D01*
G01X0075159Y-027167D02*
G01X0075193Y-027267D01*
G01X0075193Y-027267D02*
G01X0075193Y-027600D01*
G01X0075776Y-027133D02*
G01X0075776Y-027600D01*
G01X0075776Y-027233D02*
G01X0075709Y-027167D01*
G01X0075709Y-027167D02*
G01X0075642Y-027133D01*
G01X0075642Y-027133D02*
G01X0075542Y-027133D01*
G01X0075542Y-027133D02*
G01X0075476Y-027167D01*
G01X0075476Y-027167D02*
G01X0075409Y-027233D01*
G01X0075409Y-027233D02*
G01X0075376Y-027333D01*
G01X0075376Y-027333D02*
G01X0075376Y-027400D01*
G01X0075376Y-027400D02*
G01X0075409Y-027500D01*
G01X0075409Y-027500D02*
G01X0075476Y-027567D01*
G01X0075476Y-027567D02*
G01X0075542Y-027600D01*
G01X0075542Y-027600D02*
G01X0075642Y-027600D01*
G01X0075642Y-027600D02*
G01X0075709Y-027567D01*
G01X0075709Y-027567D02*
G01X0075776Y-027500D01*
G01X0076546Y-027067D02*
G01X0076546Y-027033D01*
G01X0076546Y-027033D02*
G01X0076579Y-026967D01*
G01X0076579Y-026967D02*
G01X0076612Y-026933D01*
G01X0076612Y-026933D02*
G01X0076679Y-026900D01*
G01X0076679Y-026900D02*
G01X0076812Y-026900D01*
G01X0076812Y-026900D02*
G01X0076879Y-026933D01*
G01X0076879Y-026933D02*
G01X0076912Y-026967D01*
G01X0076912Y-026967D02*
G01X0076946Y-027033D01*
G01X0076946Y-027033D02*
G01X0076946Y-027100D01*
G01X0076946Y-027100D02*
G01X0076912Y-027167D01*
G01X0076912Y-027167D02*
G01X0076846Y-027267D01*
G01X0076846Y-027267D02*
G01X0076512Y-027600D01*
G01X0076512Y-027600D02*
G01X0076979Y-027600D01*
G01X0077169Y-027533D02*
G01X0077135Y-027567D01*
G01X0077135Y-027567D02*
G01X0077169Y-027600D01*
G01X0077169Y-027600D02*
G01X0077202Y-027567D01*
G01X0077202Y-027567D02*
G01X0077169Y-027533D01*
G01X0077555Y-026900D02*
G01X0077455Y-026933D01*
G01X0077455Y-026933D02*
G01X0077389Y-027033D01*
G01X0077389Y-027033D02*
G01X0077355Y-027200D01*
G01X0077355Y-027200D02*
G01X0077355Y-027300D01*
G01X0077355Y-027300D02*
G01X0077389Y-027467D01*
G01X0077389Y-027467D02*
G01X0077455Y-027567D01*
G01X0077455Y-027567D02*
G01X0077555Y-027600D01*
G01X0077555Y-027600D02*
G01X0077622Y-027600D01*
G01X0077622Y-027600D02*
G01X0077722Y-027567D01*
G01X0077722Y-027567D02*
G01X0077789Y-027467D01*
G01X0077789Y-027467D02*
G01X0077822Y-027300D01*
G01X0077822Y-027300D02*
G01X0077822Y-027200D01*
G01X0077822Y-027200D02*
G01X0077789Y-027033D01*
G01X0077789Y-027033D02*
G01X0077722Y-026933D01*
G01X0077722Y-026933D02*
G01X0077622Y-026900D01*
G01X0077622Y-026900D02*
G01X0077555Y-026900D01*
G01X0078529Y-027300D02*
G01X0079128Y-027300D01*
G01X0079885Y-027267D02*
G01X0080185Y-027267D01*
G01X0080185Y-027267D02*
G01X0080285Y-027233D01*
G01X0080285Y-027233D02*
G01X0080318Y-027200D01*
G01X0080318Y-027200D02*
G01X0080351Y-027133D01*
G01X0080351Y-027133D02*
G01X0080351Y-027033D01*
G01X0080351Y-027033D02*
G01X0080318Y-026967D01*
G01X0080318Y-026967D02*
G01X0080285Y-026933D01*
G01X0080285Y-026933D02*
G01X0080185Y-026900D01*
G01X0080185Y-026900D02*
G01X0079885Y-026900D01*
G01X0079885Y-026900D02*
G01X0079885Y-027600D01*
G01X0080508Y-027133D02*
G01X0080508Y-027600D01*
G01X0080508Y-027333D02*
G01X0080541Y-027233D01*
G01X0080541Y-027233D02*
G01X0080608Y-027167D01*
G01X0080608Y-027167D02*
G01X0080675Y-027133D01*
G01X0080675Y-027133D02*
G01X0080775Y-027133D01*
G01X0081005Y-027133D02*
G01X0080938Y-027167D01*
G01X0080938Y-027167D02*
G01X0080871Y-027233D01*
G01X0080871Y-027233D02*
G01X0080838Y-027333D01*
G01X0080838Y-027333D02*
G01X0080838Y-027400D01*
G01X0080838Y-027400D02*
G01X0080871Y-027500D01*
G01X0080871Y-027500D02*
G01X0080938Y-027567D01*
G01X0080938Y-027567D02*
G01X0081005Y-027600D01*
G01X0081005Y-027600D02*
G01X0081105Y-027600D01*
G01X0081105Y-027600D02*
G01X0081171Y-027567D01*
G01X0081171Y-027567D02*
G01X0081238Y-027500D01*
G01X0081238Y-027500D02*
G01X0081271Y-027400D01*
G01X0081271Y-027400D02*
G01X0081271Y-027333D01*
G01X0081271Y-027333D02*
G01X0081238Y-027233D01*
G01X0081238Y-027233D02*
G01X0081171Y-027167D01*
G01X0081171Y-027167D02*
G01X0081105Y-027133D01*
G01X0081105Y-027133D02*
G01X0081005Y-027133D01*
G01X0081824Y-027233D02*
G01X0081758Y-027167D01*
G01X0081758Y-027167D02*
G01X0081691Y-027133D01*
G01X0081691Y-027133D02*
G01X0081591Y-027133D01*
G01X0081591Y-027133D02*
G01X0081525Y-027167D01*
G01X0081525Y-027167D02*
G01X0081458Y-027233D01*
G01X0081458Y-027233D02*
G01X0081425Y-027333D01*
G01X0081425Y-027333D02*
G01X0081425Y-027400D01*
G01X0081425Y-027400D02*
G01X0081458Y-027500D01*
G01X0081458Y-027500D02*
G01X0081525Y-027567D01*
G01X0081525Y-027567D02*
G01X0081591Y-027600D01*
G01X0081591Y-027600D02*
G01X0081691Y-027600D01*
G01X0081691Y-027600D02*
G01X0081758Y-027567D01*
G01X0081758Y-027567D02*
G01X0081824Y-027500D01*
G01X0081974Y-027333D02*
G01X0082374Y-027333D01*
G01X0082374Y-027333D02*
G01X0082374Y-027267D01*
G01X0082374Y-027267D02*
G01X0082341Y-027200D01*
G01X0082341Y-027200D02*
G01X0082308Y-027167D01*
G01X0082308Y-027167D02*
G01X0082241Y-027133D01*
G01X0082241Y-027133D02*
G01X0082141Y-027133D01*
G01X0082141Y-027133D02*
G01X0082074Y-027167D01*
G01X0082074Y-027167D02*
G01X0082008Y-027233D01*
G01X0082008Y-027233D02*
G01X0081974Y-027333D01*
G01X0081974Y-027333D02*
G01X0081974Y-027400D01*
G01X0081974Y-027400D02*
G01X0082008Y-027500D01*
G01X0082008Y-027500D02*
G01X0082074Y-027567D01*
G01X0082074Y-027567D02*
G01X0082141Y-027600D01*
G01X0082141Y-027600D02*
G01X0082241Y-027600D01*
G01X0082241Y-027600D02*
G01X0082308Y-027567D01*
G01X0082308Y-027567D02*
G01X0082374Y-027500D01*
G01X0082891Y-027233D02*
G01X0082858Y-027167D01*
G01X0082858Y-027167D02*
G01X0082758Y-027133D01*
G01X0082758Y-027133D02*
G01X0082658Y-027133D01*
G01X0082658Y-027133D02*
G01X0082558Y-027167D01*
G01X0082558Y-027167D02*
G01X0082524Y-027233D01*
G01X0082524Y-027233D02*
G01X0082558Y-027300D01*
G01X0082558Y-027300D02*
G01X0082624Y-027333D01*
G01X0082624Y-027333D02*
G01X0082791Y-027367D01*
G01X0082791Y-027367D02*
G01X0082858Y-027400D01*
G01X0082858Y-027400D02*
G01X0082891Y-027467D01*
G01X0082891Y-027467D02*
G01X0082891Y-027500D01*
G01X0082891Y-027500D02*
G01X0082858Y-027567D01*
G01X0082858Y-027567D02*
G01X0082758Y-027600D01*
G01X0082758Y-027600D02*
G01X0082658Y-027600D01*
G01X0082658Y-027600D02*
G01X0082558Y-027567D01*
G01X0082558Y-027567D02*
G01X0082524Y-027500D01*
G01X0083404Y-027233D02*
G01X0083371Y-027167D01*
G01X0083371Y-027167D02*
G01X0083271Y-027133D01*
G01X0083271Y-027133D02*
G01X0083171Y-027133D01*
G01X0083171Y-027133D02*
G01X0083071Y-027167D01*
G01X0083071Y-027167D02*
G01X0083038Y-027233D01*
G01X0083038Y-027233D02*
G01X0083071Y-027300D01*
G01X0083071Y-027300D02*
G01X0083138Y-027333D01*
G01X0083138Y-027333D02*
G01X0083304Y-027367D01*
G01X0083304Y-027367D02*
G01X0083371Y-027400D01*
G01X0083371Y-027400D02*
G01X0083404Y-027467D01*
G01X0083404Y-027467D02*
G01X0083404Y-027500D01*
G01X0083404Y-027500D02*
G01X0083371Y-027567D01*
G01X0083371Y-027567D02*
G01X0083271Y-027600D01*
G01X0083271Y-027600D02*
G01X0083171Y-027600D01*
G01X0083171Y-027600D02*
G01X0083071Y-027567D01*
G01X0083071Y-027567D02*
G01X0083038Y-027500D01*
G01X0083717Y-027133D02*
G01X0083651Y-027167D01*
G01X0083651Y-027167D02*
G01X0083584Y-027233D01*
G01X0083584Y-027233D02*
G01X0083551Y-027333D01*
G01X0083551Y-027333D02*
G01X0083551Y-027400D01*
G01X0083551Y-027400D02*
G01X0083584Y-027500D01*
G01X0083584Y-027500D02*
G01X0083651Y-027567D01*
G01X0083651Y-027567D02*
G01X0083717Y-027600D01*
G01X0083717Y-027600D02*
G01X0083817Y-027600D01*
G01X0083817Y-027600D02*
G01X0083884Y-027567D01*
G01X0083884Y-027567D02*
G01X0083951Y-027500D01*
G01X0083951Y-027500D02*
G01X0083984Y-027400D01*
G01X0083984Y-027400D02*
G01X0083984Y-027333D01*
G01X0083984Y-027333D02*
G01X0083951Y-027233D01*
G01X0083951Y-027233D02*
G01X0083884Y-027167D01*
G01X0083884Y-027167D02*
G01X0083817Y-027133D01*
G01X0083817Y-027133D02*
G01X0083717Y-027133D01*
G01X0084137Y-027133D02*
G01X0084137Y-027600D01*
G01X0084137Y-027333D02*
G01X0084171Y-027233D01*
G01X0084171Y-027233D02*
G01X0084237Y-027167D01*
G01X0084237Y-027167D02*
G01X0084304Y-027133D01*
G01X0084304Y-027133D02*
G01X0084404Y-027133D01*
G01X0085017Y-026900D02*
G01X0085017Y-027600D01*
G01X0085017Y-026900D02*
G01X0085317Y-026900D01*
G01X0085317Y-026900D02*
G01X0085417Y-026933D01*
G01X0085417Y-026933D02*
G01X0085450Y-026967D01*
G01X0085450Y-026967D02*
G01X0085484Y-027033D01*
G01X0085484Y-027033D02*
G01X0085484Y-027100D01*
G01X0085484Y-027100D02*
G01X0085450Y-027167D01*
G01X0085450Y-027167D02*
G01X0085417Y-027200D01*
G01X0085417Y-027200D02*
G01X0085317Y-027233D01*
G01X0085017Y-027233D02*
G01X0085317Y-027233D01*
G01X0085317Y-027233D02*
G01X0085417Y-027267D01*
G01X0085417Y-027267D02*
G01X0085450Y-027300D01*
G01X0085450Y-027300D02*
G01X0085484Y-027367D01*
G01X0085484Y-027367D02*
G01X0085484Y-027467D01*
G01X0085484Y-027467D02*
G01X0085450Y-027533D01*
G01X0085450Y-027533D02*
G01X0085417Y-027567D01*
G01X0085417Y-027567D02*
G01X0085317Y-027600D01*
G01X0085317Y-027600D02*
G01X0085017Y-027600D01*
G01X0085807Y-027133D02*
G01X0085740Y-027167D01*
G01X0085740Y-027167D02*
G01X0085674Y-027233D01*
G01X0085674Y-027233D02*
G01X0085640Y-027333D01*
G01X0085640Y-027333D02*
G01X0085640Y-027400D01*
G01X0085640Y-027400D02*
G01X0085674Y-027500D01*
G01X0085674Y-027500D02*
G01X0085740Y-027567D01*
G01X0085740Y-027567D02*
G01X0085807Y-027600D01*
G01X0085807Y-027600D02*
G01X0085907Y-027600D01*
G01X0085907Y-027600D02*
G01X0085974Y-027567D01*
G01X0085974Y-027567D02*
G01X0086040Y-027500D01*
G01X0086040Y-027500D02*
G01X0086074Y-027400D01*
G01X0086074Y-027400D02*
G01X0086074Y-027333D01*
G01X0086074Y-027333D02*
G01X0086040Y-027233D01*
G01X0086040Y-027233D02*
G01X0085974Y-027167D01*
G01X0085974Y-027167D02*
G01X0085907Y-027133D01*
G01X0085907Y-027133D02*
G01X0085807Y-027133D01*
G01X0086627Y-027133D02*
G01X0086627Y-027600D01*
G01X0086627Y-027233D02*
G01X0086560Y-027167D01*
G01X0086560Y-027167D02*
G01X0086493Y-027133D01*
G01X0086493Y-027133D02*
G01X0086393Y-027133D01*
G01X0086393Y-027133D02*
G01X0086327Y-027167D01*
G01X0086327Y-027167D02*
G01X0086260Y-027233D01*
G01X0086260Y-027233D02*
G01X0086227Y-027333D01*
G01X0086227Y-027333D02*
G01X0086227Y-027400D01*
G01X0086227Y-027400D02*
G01X0086260Y-027500D01*
G01X0086260Y-027500D02*
G01X0086327Y-027567D01*
G01X0086327Y-027567D02*
G01X0086393Y-027600D01*
G01X0086393Y-027600D02*
G01X0086493Y-027600D01*
G01X0086493Y-027600D02*
G01X0086560Y-027567D01*
G01X0086560Y-027567D02*
G01X0086627Y-027500D01*
G01X0086813Y-027133D02*
G01X0086813Y-027600D01*
G01X0086813Y-027333D02*
G01X0086847Y-027233D01*
G01X0086847Y-027233D02*
G01X0086913Y-027167D01*
G01X0086913Y-027167D02*
G01X0086980Y-027133D01*
G01X0086980Y-027133D02*
G01X0087080Y-027133D01*
G01X0087543Y-026900D02*
G01X0087543Y-027600D01*
G01X0087543Y-027233D02*
G01X0087477Y-027167D01*
G01X0087477Y-027167D02*
G01X0087410Y-027133D01*
G01X0087410Y-027133D02*
G01X0087310Y-027133D01*
G01X0087310Y-027133D02*
G01X0087243Y-027167D01*
G01X0087243Y-027167D02*
G01X0087177Y-027233D01*
G01X0087177Y-027233D02*
G01X0087143Y-027333D01*
G01X0087143Y-027333D02*
G01X0087143Y-027400D01*
G01X0087143Y-027400D02*
G01X0087177Y-027500D01*
G01X0087177Y-027500D02*
G01X0087243Y-027567D01*
G01X0087243Y-027567D02*
G01X0087310Y-027600D01*
G01X0087310Y-027600D02*
G01X0087410Y-027600D01*
G01X0087410Y-027600D02*
G01X0087477Y-027567D01*
G01X0087477Y-027567D02*
G01X0087543Y-027500D01*
G01X0075000Y-030972D02*
G01X0075386Y-030972D01*
G01X0075386Y-030972D02*
G01X0075514Y-030929D01*
G01X0075514Y-030929D02*
G01X0075557Y-030886D01*
G01X0075557Y-030886D02*
G01X0075600Y-030800D01*
G01X0075600Y-030800D02*
G01X0075600Y-030672D01*
G01X0075600Y-030672D02*
G01X0075557Y-030586D01*
G01X0075557Y-030586D02*
G01X0075514Y-030543D01*
G01X0075514Y-030543D02*
G01X0075386Y-030500D01*
G01X0075386Y-030500D02*
G01X0075000Y-030500D01*
G01X0075000Y-030500D02*
G01X0075000Y-031400D01*
G01X0076444Y-030714D02*
G01X0076401Y-030629D01*
G01X0076401Y-030629D02*
G01X0076315Y-030543D01*
G01X0076315Y-030543D02*
G01X0076230Y-030500D01*
G01X0076230Y-030500D02*
G01X0076058Y-030500D01*
G01X0076058Y-030500D02*
G01X0075973Y-030543D01*
G01X0075973Y-030543D02*
G01X0075887Y-030629D01*
G01X0075887Y-030629D02*
G01X0075844Y-030714D01*
G01X0075844Y-030714D02*
G01X0075801Y-030843D01*
G01X0075801Y-030843D02*
G01X0075801Y-031057D01*
G01X0075801Y-031057D02*
G01X0075844Y-031186D01*
G01X0075844Y-031186D02*
G01X0075887Y-031271D01*
G01X0075887Y-031271D02*
G01X0075973Y-031357D01*
G01X0075973Y-031357D02*
G01X0076058Y-031400D01*
G01X0076058Y-031400D02*
G01X0076230Y-031400D01*
G01X0076230Y-031400D02*
G01X0076315Y-031357D01*
G01X0076315Y-031357D02*
G01X0076401Y-031271D01*
G01X0076401Y-031271D02*
G01X0076444Y-031186D01*
G01X0076697Y-030500D02*
G01X0076697Y-031400D01*
G01X0076697Y-030500D02*
G01X0077082Y-030500D01*
G01X0077082Y-030500D02*
G01X0077211Y-030543D01*
G01X0077211Y-030543D02*
G01X0077254Y-030586D01*
G01X0077254Y-030586D02*
G01X0077297Y-030672D01*
G01X0077297Y-030672D02*
G01X0077297Y-030757D01*
G01X0077297Y-030757D02*
G01X0077254Y-030843D01*
G01X0077254Y-030843D02*
G01X0077211Y-030886D01*
G01X0077211Y-030886D02*
G01X0077082Y-030929D01*
G01X0076697Y-030929D02*
G01X0077082Y-030929D01*
G01X0077082Y-030929D02*
G01X0077211Y-030972D01*
G01X0077211Y-030972D02*
G01X0077254Y-031014D01*
G01X0077254Y-031014D02*
G01X0077297Y-031100D01*
G01X0077297Y-031100D02*
G01X0077297Y-031229D01*
G01X0077297Y-031229D02*
G01X0077254Y-031314D01*
G01X0077254Y-031314D02*
G01X0077211Y-031357D01*
G01X0077211Y-031357D02*
G01X0077082Y-031400D01*
G01X0077082Y-031400D02*
G01X0076697Y-031400D01*
G01X0077498Y-031014D02*
G01X0078269Y-031014D01*
G01X0078792Y-030500D02*
G01X0078664Y-030543D01*
G01X0078664Y-030543D02*
G01X0078578Y-030672D01*
G01X0078578Y-030672D02*
G01X0078535Y-030886D01*
G01X0078535Y-030886D02*
G01X0078535Y-031014D01*
G01X0078535Y-031014D02*
G01X0078578Y-031229D01*
G01X0078578Y-031229D02*
G01X0078664Y-031357D01*
G01X0078664Y-031357D02*
G01X0078792Y-031400D01*
G01X0078792Y-031400D02*
G01X0078878Y-031400D01*
G01X0078878Y-031400D02*
G01X0079006Y-031357D01*
G01X0079006Y-031357D02*
G01X0079092Y-031229D01*
G01X0079092Y-031229D02*
G01X0079135Y-031014D01*
G01X0079135Y-031014D02*
G01X0079135Y-030886D01*
G01X0079135Y-030886D02*
G01X0079092Y-030672D01*
G01X0079092Y-030672D02*
G01X0079006Y-030543D01*
G01X0079006Y-030543D02*
G01X0078878Y-030500D01*
G01X0078878Y-030500D02*
G01X0078792Y-030500D01*
G01X0079336Y-030672D02*
G01X0079422Y-030629D01*
G01X0079422Y-030629D02*
G01X0079550Y-030500D01*
G01X0079550Y-030500D02*
G01X0079550Y-031400D01*
G01X0080253Y-030500D02*
G01X0080125Y-030543D01*
G01X0080125Y-030543D02*
G01X0080039Y-030672D01*
G01X0080039Y-030672D02*
G01X0079996Y-030886D01*
G01X0079996Y-030886D02*
G01X0079996Y-031014D01*
G01X0079996Y-031014D02*
G01X0080039Y-031229D01*
G01X0080039Y-031229D02*
G01X0080125Y-031357D01*
G01X0080125Y-031357D02*
G01X0080253Y-031400D01*
G01X0080253Y-031400D02*
G01X0080339Y-031400D01*
G01X0080339Y-031400D02*
G01X0080467Y-031357D01*
G01X0080467Y-031357D02*
G01X0080553Y-031229D01*
G01X0080553Y-031229D02*
G01X0080596Y-031014D01*
G01X0080596Y-031014D02*
G01X0080596Y-030886D01*
G01X0080596Y-030886D02*
G01X0080553Y-030672D01*
G01X0080553Y-030672D02*
G01X0080467Y-030543D01*
G01X0080467Y-030543D02*
G01X0080339Y-030500D01*
G01X0080339Y-030500D02*
G01X0080253Y-030500D01*
G01X0081054Y-030500D02*
G01X0080926Y-030543D01*
G01X0080926Y-030543D02*
G01X0080840Y-030672D01*
G01X0080840Y-030672D02*
G01X0080797Y-030886D01*
G01X0080797Y-030886D02*
G01X0080797Y-031014D01*
G01X0080797Y-031014D02*
G01X0080840Y-031229D01*
G01X0080840Y-031229D02*
G01X0080926Y-031357D01*
G01X0080926Y-031357D02*
G01X0081054Y-031400D01*
G01X0081054Y-031400D02*
G01X0081140Y-031400D01*
G01X0081140Y-031400D02*
G01X0081269Y-031357D01*
G01X0081269Y-031357D02*
G01X0081354Y-031229D01*
G01X0081354Y-031229D02*
G01X0081397Y-031014D01*
G01X0081397Y-031014D02*
G01X0081397Y-030886D01*
G01X0081397Y-030886D02*
G01X0081354Y-030672D01*
G01X0081354Y-030672D02*
G01X0081269Y-030543D01*
G01X0081269Y-030543D02*
G01X0081140Y-030500D01*
G01X0081140Y-030500D02*
G01X0081054Y-030500D01*
G01X0082113Y-030500D02*
G01X0081684Y-030500D01*
G01X0081684Y-030500D02*
G01X0081641Y-030886D01*
G01X0081641Y-030886D02*
G01X0081684Y-030843D01*
G01X0081684Y-030843D02*
G01X0081813Y-030800D01*
G01X0081813Y-030800D02*
G01X0081941Y-030800D01*
G01X0081941Y-030800D02*
G01X0082070Y-030843D01*
G01X0082070Y-030843D02*
G01X0082156Y-030929D01*
G01X0082156Y-030929D02*
G01X0082198Y-031057D01*
G01X0082198Y-031057D02*
G01X0082198Y-031143D01*
G01X0082198Y-031143D02*
G01X0082156Y-031271D01*
G01X0082156Y-031271D02*
G01X0082070Y-031357D01*
G01X0082070Y-031357D02*
G01X0081941Y-031400D01*
G01X0081941Y-031400D02*
G01X0081813Y-031400D01*
G01X0081813Y-031400D02*
G01X0081684Y-031357D01*
G01X0081684Y-031357D02*
G01X0081641Y-031314D01*
G01X0081641Y-031314D02*
G01X0081599Y-031229D01*
G01X0063467Y-030600D02*
G01X0063400Y-030533D01*
G01X0063400Y-030533D02*
G01X0063300Y-030500D01*
G01X0063300Y-030500D02*
G01X0063167Y-030500D01*
G01X0063167Y-030500D02*
G01X0063067Y-030533D01*
G01X0063067Y-030533D02*
G01X0063000Y-030600D01*
G01X0063000Y-030600D02*
G01X0063000Y-030667D01*
G01X0063000Y-030667D02*
G01X0063033Y-030733D01*
G01X0063033Y-030733D02*
G01X0063067Y-030767D01*
G01X0063067Y-030767D02*
G01X0063133Y-030800D01*
G01X0063133Y-030800D02*
G01X0063333Y-030867D01*
G01X0063333Y-030867D02*
G01X0063400Y-030900D01*
G01X0063400Y-030900D02*
G01X0063433Y-030933D01*
G01X0063433Y-030933D02*
G01X0063467Y-031000D01*
G01X0063467Y-031000D02*
G01X0063467Y-031100D01*
G01X0063467Y-031100D02*
G01X0063400Y-031167D01*
G01X0063400Y-031167D02*
G01X0063300Y-031200D01*
G01X0063300Y-031200D02*
G01X0063167Y-031200D01*
G01X0063167Y-031200D02*
G01X0063067Y-031167D01*
G01X0063067Y-031167D02*
G01X0063000Y-031100D01*
G01X0064123Y-030667D02*
G01X0064090Y-030600D01*
G01X0064090Y-030600D02*
G01X0064023Y-030533D01*
G01X0064023Y-030533D02*
G01X0063956Y-030500D01*
G01X0063956Y-030500D02*
G01X0063823Y-030500D01*
G01X0063823Y-030500D02*
G01X0063756Y-030533D01*
G01X0063756Y-030533D02*
G01X0063690Y-030600D01*
G01X0063690Y-030600D02*
G01X0063657Y-030667D01*
G01X0063657Y-030667D02*
G01X0063623Y-030767D01*
G01X0063623Y-030767D02*
G01X0063623Y-030933D01*
G01X0063623Y-030933D02*
G01X0063657Y-031033D01*
G01X0063657Y-031033D02*
G01X0063690Y-031100D01*
G01X0063690Y-031100D02*
G01X0063756Y-031167D01*
G01X0063756Y-031167D02*
G01X0063823Y-031200D01*
G01X0063823Y-031200D02*
G01X0063956Y-031200D01*
G01X0063956Y-031200D02*
G01X0064023Y-031167D01*
G01X0064023Y-031167D02*
G01X0064090Y-031100D01*
G01X0064090Y-031100D02*
G01X0064123Y-031033D01*
G01X0064853Y-031200D02*
G01X0064586Y-030500D01*
G01X0064586Y-030500D02*
G01X0064320Y-031200D01*
G01X0064420Y-030967D02*
G01X0064753Y-030967D01*
G01X0065016Y-030500D02*
G01X0065016Y-031200D01*
G01X0065016Y-031200D02*
G01X0065416Y-031200D01*
G01X0065926Y-030500D02*
G01X0065493Y-030500D01*
G01X0065493Y-030500D02*
G01X0065493Y-031200D01*
G01X0065493Y-031200D02*
G01X0065926Y-031200D01*
G01X0065493Y-030833D02*
G01X0065759Y-030833D01*
G01X0066076Y-030733D02*
G01X0066043Y-030767D01*
G01X0066043Y-030767D02*
G01X0066076Y-030800D01*
G01X0066076Y-030800D02*
G01X0066109Y-030767D01*
G01X0066109Y-030767D02*
G01X0066076Y-030733D01*
G01X0066076Y-031133D02*
G01X0066043Y-031167D01*
G01X0066043Y-031167D02*
G01X0066076Y-031200D01*
G01X0066076Y-031200D02*
G01X0066109Y-031167D01*
G01X0066109Y-031167D02*
G01X0066076Y-031133D01*
G01X0066813Y-030633D02*
G01X0066879Y-030600D01*
G01X0066879Y-030600D02*
G01X0066979Y-030500D01*
G01X0066979Y-030500D02*
G01X0066979Y-031200D01*
G01X0067359Y-031133D02*
G01X0067326Y-031167D01*
G01X0067326Y-031167D02*
G01X0067359Y-031200D01*
G01X0067359Y-031200D02*
G01X0067392Y-031167D01*
G01X0067392Y-031167D02*
G01X0067359Y-031133D01*
G01X0067746Y-030500D02*
G01X0067646Y-030533D01*
G01X0067646Y-030533D02*
G01X0067579Y-030633D01*
G01X0067579Y-030633D02*
G01X0067546Y-030800D01*
G01X0067546Y-030800D02*
G01X0067546Y-030900D01*
G01X0067546Y-030900D02*
G01X0067579Y-031067D01*
G01X0067579Y-031067D02*
G01X0067646Y-031167D01*
G01X0067646Y-031167D02*
G01X0067746Y-031200D01*
G01X0067746Y-031200D02*
G01X0067812Y-031200D01*
G01X0067812Y-031200D02*
G01X0067912Y-031167D01*
G01X0067912Y-031167D02*
G01X0067979Y-031067D01*
G01X0067979Y-031067D02*
G01X0068012Y-030900D01*
G01X0068012Y-030900D02*
G01X0068012Y-030800D01*
G01X0068012Y-030800D02*
G01X0067979Y-030633D01*
G01X0067979Y-030633D02*
G01X0067912Y-030533D01*
G01X0067912Y-030533D02*
G01X0067812Y-030500D01*
G01X0067812Y-030500D02*
G01X0067746Y-030500D01*
G01X0068369Y-030500D02*
G01X0068269Y-030533D01*
G01X0068269Y-030533D02*
G01X0068202Y-030633D01*
G01X0068202Y-030633D02*
G01X0068169Y-030800D01*
G01X0068169Y-030800D02*
G01X0068169Y-030900D01*
G01X0068169Y-030900D02*
G01X0068202Y-031067D01*
G01X0068202Y-031067D02*
G01X0068269Y-031167D01*
G01X0068269Y-031167D02*
G01X0068369Y-031200D01*
G01X0068369Y-031200D02*
G01X0068436Y-031200D01*
G01X0068436Y-031200D02*
G01X0068535Y-031167D01*
G01X0068535Y-031167D02*
G01X0068602Y-031067D01*
G01X0068602Y-031067D02*
G01X0068635Y-030900D01*
G01X0068635Y-030900D02*
G01X0068635Y-030800D01*
G01X0068635Y-030800D02*
G01X0068602Y-030633D01*
G01X0068602Y-030633D02*
G01X0068535Y-030533D01*
G01X0068535Y-030533D02*
G01X0068436Y-030500D01*
G01X0068436Y-030500D02*
G01X0068369Y-030500D01*
G01X0065600Y-033562D02*
G01X0065814Y-033562D01*
G01X0065814Y-033562D02*
G01X0065886Y-033538D01*
G01X0065886Y-033538D02*
G01X0065909Y-033514D01*
G01X0065909Y-033514D02*
G01X0065933Y-033467D01*
G01X0065933Y-033467D02*
G01X0065933Y-033395D01*
G01X0065933Y-033395D02*
G01X0065909Y-033348D01*
G01X0065909Y-033348D02*
G01X0065886Y-033324D01*
G01X0065886Y-033324D02*
G01X0065814Y-033300D01*
G01X0065814Y-033300D02*
G01X0065600Y-033300D01*
G01X0065600Y-033300D02*
G01X0065600Y-033800D01*
G01X0066402Y-033419D02*
G01X0066378Y-033372D01*
G01X0066378Y-033372D02*
G01X0066331Y-033324D01*
G01X0066331Y-033324D02*
G01X0066283Y-033300D01*
G01X0066283Y-033300D02*
G01X0066188Y-033300D01*
G01X0066188Y-033300D02*
G01X0066140Y-033324D01*
G01X0066140Y-033324D02*
G01X0066093Y-033372D01*
G01X0066093Y-033372D02*
G01X0066069Y-033419D01*
G01X0066069Y-033419D02*
G01X0066045Y-033491D01*
G01X0066045Y-033491D02*
G01X0066045Y-033610D01*
G01X0066045Y-033610D02*
G01X0066069Y-033681D01*
G01X0066069Y-033681D02*
G01X0066093Y-033729D01*
G01X0066093Y-033729D02*
G01X0066140Y-033776D01*
G01X0066140Y-033776D02*
G01X0066188Y-033800D01*
G01X0066188Y-033800D02*
G01X0066283Y-033800D01*
G01X0066283Y-033800D02*
G01X0066331Y-033776D01*
G01X0066331Y-033776D02*
G01X0066378Y-033729D01*
G01X0066378Y-033729D02*
G01X0066402Y-033681D01*
G01X0066543Y-033300D02*
G01X0066543Y-033800D01*
G01X0066543Y-033300D02*
G01X0066757Y-033300D01*
G01X0066757Y-033300D02*
G01X0066828Y-033324D01*
G01X0066828Y-033324D02*
G01X0066852Y-033348D01*
G01X0066852Y-033348D02*
G01X0066876Y-033395D01*
G01X0066876Y-033395D02*
G01X0066876Y-033443D01*
G01X0066876Y-033443D02*
G01X0066852Y-033491D01*
G01X0066852Y-033491D02*
G01X0066828Y-033514D01*
G01X0066828Y-033514D02*
G01X0066757Y-033538D01*
G01X0066543Y-033538D02*
G01X0066757Y-033538D01*
G01X0066757Y-033538D02*
G01X0066828Y-033562D01*
G01X0066828Y-033562D02*
G01X0066852Y-033586D01*
G01X0066852Y-033586D02*
G01X0066876Y-033633D01*
G01X0066876Y-033633D02*
G01X0066876Y-033705D01*
G01X0066876Y-033705D02*
G01X0066852Y-033752D01*
G01X0066852Y-033752D02*
G01X0066828Y-033776D01*
G01X0066828Y-033776D02*
G01X0066757Y-033800D01*
G01X0066757Y-033800D02*
G01X0066543Y-033800D01*
G01X0066988Y-033586D02*
G01X0067416Y-033586D01*
G01X0067707Y-033300D02*
G01X0067635Y-033324D01*
G01X0067635Y-033324D02*
G01X0067588Y-033395D01*
G01X0067588Y-033395D02*
G01X0067564Y-033514D01*
G01X0067564Y-033514D02*
G01X0067564Y-033586D01*
G01X0067564Y-033586D02*
G01X0067588Y-033705D01*
G01X0067588Y-033705D02*
G01X0067635Y-033776D01*
G01X0067635Y-033776D02*
G01X0067707Y-033800D01*
G01X0067707Y-033800D02*
G01X0067754Y-033800D01*
G01X0067754Y-033800D02*
G01X0067826Y-033776D01*
G01X0067826Y-033776D02*
G01X0067873Y-033705D01*
G01X0067873Y-033705D02*
G01X0067897Y-033586D01*
G01X0067897Y-033586D02*
G01X0067897Y-033514D01*
G01X0067897Y-033514D02*
G01X0067873Y-033395D01*
G01X0067873Y-033395D02*
G01X0067826Y-033324D01*
G01X0067826Y-033324D02*
G01X0067754Y-033300D01*
G01X0067754Y-033300D02*
G01X0067707Y-033300D01*
G01X0068009Y-033395D02*
G01X0068057Y-033372D01*
G01X0068057Y-033372D02*
G01X0068128Y-033300D01*
G01X0068128Y-033300D02*
G01X0068128Y-033800D01*
G01X0068518Y-033300D02*
G01X0068447Y-033324D01*
G01X0068447Y-033324D02*
G01X0068399Y-033395D01*
G01X0068399Y-033395D02*
G01X0068376Y-033514D01*
G01X0068376Y-033514D02*
G01X0068376Y-033586D01*
G01X0068376Y-033586D02*
G01X0068399Y-033705D01*
G01X0068399Y-033705D02*
G01X0068447Y-033776D01*
G01X0068447Y-033776D02*
G01X0068518Y-033800D01*
G01X0068518Y-033800D02*
G01X0068566Y-033800D01*
G01X0068566Y-033800D02*
G01X0068637Y-033776D01*
G01X0068637Y-033776D02*
G01X0068685Y-033705D01*
G01X0068685Y-033705D02*
G01X0068709Y-033586D01*
G01X0068709Y-033586D02*
G01X0068709Y-033514D01*
G01X0068709Y-033514D02*
G01X0068685Y-033395D01*
G01X0068685Y-033395D02*
G01X0068637Y-033324D01*
G01X0068637Y-033324D02*
G01X0068566Y-033300D01*
G01X0068566Y-033300D02*
G01X0068518Y-033300D01*
G01X0068964Y-033300D02*
G01X0068892Y-033324D01*
G01X0068892Y-033324D02*
G01X0068845Y-033395D01*
G01X0068845Y-033395D02*
G01X0068821Y-033514D01*
G01X0068821Y-033514D02*
G01X0068821Y-033586D01*
G01X0068821Y-033586D02*
G01X0068845Y-033705D01*
G01X0068845Y-033705D02*
G01X0068892Y-033776D01*
G01X0068892Y-033776D02*
G01X0068964Y-033800D01*
G01X0068964Y-033800D02*
G01X0069011Y-033800D01*
G01X0069011Y-033800D02*
G01X0069083Y-033776D01*
G01X0069083Y-033776D02*
G01X0069130Y-033705D01*
G01X0069130Y-033705D02*
G01X0069154Y-033586D01*
G01X0069154Y-033586D02*
G01X0069154Y-033514D01*
G01X0069154Y-033514D02*
G01X0069130Y-033395D01*
G01X0069130Y-033395D02*
G01X0069083Y-033324D01*
G01X0069083Y-033324D02*
G01X0069011Y-033300D01*
G01X0069011Y-033300D02*
G01X0068964Y-033300D01*
G01X0069552Y-033300D02*
G01X0069313Y-033300D01*
G01X0069313Y-033300D02*
G01X0069290Y-033514D01*
G01X0069290Y-033514D02*
G01X0069313Y-033491D01*
G01X0069313Y-033491D02*
G01X0069385Y-033467D01*
G01X0069385Y-033467D02*
G01X0069456Y-033467D01*
G01X0069456Y-033467D02*
G01X0069528Y-033491D01*
G01X0069528Y-033491D02*
G01X0069575Y-033538D01*
G01X0069575Y-033538D02*
G01X0069599Y-033610D01*
G01X0069599Y-033610D02*
G01X0069599Y-033657D01*
G01X0069599Y-033657D02*
G01X0069575Y-033729D01*
G01X0069575Y-033729D02*
G01X0069528Y-033776D01*
G01X0069528Y-033776D02*
G01X0069456Y-033800D01*
G01X0069456Y-033800D02*
G01X0069385Y-033800D01*
G01X0069385Y-033800D02*
G01X0069313Y-033776D01*
G01X0069313Y-033776D02*
G01X0069290Y-033752D01*
G01X0069290Y-033752D02*
G01X0069266Y-033705D01*
G01X0070104Y-033300D02*
G01X0070104Y-033800D01*
G01X0070104Y-033300D02*
G01X0070318Y-033300D01*
G01X0070318Y-033300D02*
G01X0070389Y-033324D01*
G01X0070389Y-033324D02*
G01X0070413Y-033348D01*
G01X0070413Y-033348D02*
G01X0070437Y-033395D01*
G01X0070437Y-033395D02*
G01X0070437Y-033443D01*
G01X0070437Y-033443D02*
G01X0070413Y-033491D01*
G01X0070413Y-033491D02*
G01X0070389Y-033514D01*
G01X0070389Y-033514D02*
G01X0070318Y-033538D01*
G01X0070318Y-033538D02*
G01X0070104Y-033538D01*
G01X0070270Y-033538D02*
G01X0070437Y-033800D01*
G01X0070597Y-033300D02*
G01X0070858Y-033300D01*
G01X0070858Y-033300D02*
G01X0070716Y-033491D01*
G01X0070716Y-033491D02*
G01X0070787Y-033491D01*
G01X0070787Y-033491D02*
G01X0070835Y-033514D01*
G01X0070835Y-033514D02*
G01X0070858Y-033538D01*
G01X0070858Y-033538D02*
G01X0070882Y-033610D01*
G01X0070882Y-033610D02*
G01X0070882Y-033657D01*
G01X0070882Y-033657D02*
G01X0070858Y-033729D01*
G01X0070858Y-033729D02*
G01X0070811Y-033776D01*
G01X0070811Y-033776D02*
G01X0070739Y-033800D01*
G01X0070739Y-033800D02*
G01X0070668Y-033800D01*
G01X0070668Y-033800D02*
G01X0070597Y-033776D01*
G01X0070597Y-033776D02*
G01X0070573Y-033752D01*
G01X0070573Y-033752D02*
G01X0070549Y-033705D01*
G54D11*
G01X-009500Y-010000D02*
G01X-009510Y-009899D01*
G01X-009510Y-009899D02*
G01X-009540Y-009803D01*
G01X-009540Y-009803D02*
G01X-009590Y-009714D01*
G01X-009590Y-009714D02*
G01X-009655Y-009638D01*
G01X-009655Y-009638D02*
G01X-009735Y-009576D01*
G01X-009735Y-009576D02*
G01X-009826Y-009531D01*
G01X-009826Y-009531D02*
G01X-009924Y-009506D01*
G01X-009924Y-009506D02*
G01X-010025Y-009501D01*
G01X-010025Y-009501D02*
G01X-010125Y-009516D01*
G01X-010125Y-009516D02*
G01X-010220Y-009551D01*
G01X-010220Y-009551D02*
G01X-010306Y-009605D01*
G01X-010306Y-009605D02*
G01X-010379Y-009674D01*
G01X-010379Y-009674D02*
G01X-010437Y-009757D01*
G01X-010437Y-009757D02*
G01X-010477Y-009850D01*
G01X-010477Y-009850D02*
G01X-010497Y-009950D01*
G01X-010497Y-009950D02*
G01X-010497Y-010051D01*
G01X-010497Y-010051D02*
G01X-010477Y-010150D01*
G01X-010477Y-010150D02*
G01X-010437Y-010243D01*
G01X-010437Y-010243D02*
G01X-010379Y-010326D01*
G01X-010379Y-010326D02*
G01X-010306Y-010395D01*
G01X-010306Y-010395D02*
G01X-010220Y-010449D01*
G01X-010220Y-010449D02*
G01X-010125Y-010484D01*
G01X-010125Y-010484D02*
G01X-010025Y-010499D01*
G01X-010025Y-010499D02*
G01X-009924Y-010494D01*
G01X-009924Y-010494D02*
G01X-009826Y-010469D01*
G01X-009826Y-010469D02*
G01X-009735Y-010424D01*
G01X-009735Y-010424D02*
G01X-009655Y-010362D01*
G01X-009655Y-010362D02*
G01X-009590Y-010286D01*
G01X-009590Y-010286D02*
G01X-009540Y-010197D01*
G01X-009540Y-010197D02*
G01X-009510Y-010101D01*
G01X-009510Y-010101D02*
G01X-009500Y-010000D01*
G01X-009250Y-010000D02*
G01X-009257Y-009900D01*
G01X-009257Y-009900D02*
G01X-009277Y-009802D01*
G01X-009277Y-009802D02*
G01X-009309Y-009707D01*
G01X-009309Y-009707D02*
G01X-009355Y-009618D01*
G01X-009355Y-009618D02*
G01X-009411Y-009535D01*
G01X-009411Y-009535D02*
G01X-009479Y-009461D01*
G01X-009479Y-009461D02*
G01X-009555Y-009396D01*
G01X-009555Y-009396D02*
G01X-009639Y-009342D01*
G01X-009639Y-009342D02*
G01X-009730Y-009300D01*
G01X-009730Y-009300D02*
G01X-009826Y-009271D01*
G01X-009826Y-009271D02*
G01X-009925Y-009254D01*
G01X-009925Y-009254D02*
G01X-010025Y-009251D01*
G01X-010025Y-009251D02*
G01X-010125Y-009261D01*
G01X-010125Y-009261D02*
G01X-010222Y-009284D01*
G01X-010222Y-009284D02*
G01X-010316Y-009320D01*
G01X-010316Y-009320D02*
G01X-010403Y-009368D01*
G01X-010403Y-009368D02*
G01X-010484Y-009427D01*
G01X-010484Y-009427D02*
G01X-010556Y-009497D01*
G01X-010556Y-009497D02*
G01X-010618Y-009576D01*
G01X-010618Y-009576D02*
G01X-010669Y-009662D01*
G01X-010669Y-009662D02*
G01X-010708Y-009754D01*
G01X-010708Y-009754D02*
G01X-010735Y-009851D01*
G01X-010735Y-009851D02*
G01X-010748Y-009950D01*
G01X-010748Y-009950D02*
G01X-010748Y-010050D01*
G01X-010748Y-010050D02*
G01X-010735Y-010149D01*
G01X-010735Y-010149D02*
G01X-010708Y-010246D01*
G01X-010708Y-010246D02*
G01X-010669Y-010338D01*
G01X-010669Y-010338D02*
G01X-010618Y-010425D01*
G01X-010618Y-010425D02*
G01X-010556Y-010503D01*
G01X-010556Y-010503D02*
G01X-010484Y-010573D01*
G01X-010484Y-010573D02*
G01X-010403Y-010632D01*
G01X-010403Y-010632D02*
G01X-010316Y-010680D01*
G01X-010316Y-010680D02*
G01X-010222Y-010716D01*
G01X-010222Y-010716D02*
G01X-010125Y-010740D01*
G01X-010125Y-010740D02*
G01X-010025Y-010750D01*
G01X-010025Y-010750D02*
G01X-009925Y-010746D01*
G01X-009925Y-010746D02*
G01X-009826Y-010730D01*
G01X-009826Y-010730D02*
G01X-009730Y-010700D01*
G01X-009730Y-010700D02*
G01X-009639Y-010658D01*
G01X-009639Y-010658D02*
G01X-009555Y-010604D01*
G01X-009555Y-010604D02*
G01X-009479Y-010539D01*
G01X-009479Y-010539D02*
G01X-009411Y-010465D01*
G01X-009411Y-010465D02*
G01X-009355Y-010382D01*
G01X-009355Y-010382D02*
G01X-009309Y-010293D01*
G01X-009309Y-010293D02*
G01X-009277Y-010198D01*
G01X-009277Y-010198D02*
G01X-009257Y-010100D01*
G01X-009257Y-010100D02*
G01X-009250Y-010000D01*
G01X-009975Y-010000D02*
G01X-010025Y-010000D01*
G01X-010025Y-010000D02*
G01X-009975Y-010000D01*
G01X-009950Y-010000D02*
G01X-010025Y-009957D01*
G01X-010025Y-009957D02*
G01X-010025Y-010043D01*
G01X-010025Y-010043D02*
G01X-009950Y-010000D01*
G01X-009800Y-010000D02*
G01X-009823Y-009907D01*
G01X-009823Y-009907D02*
G01X-009886Y-009836D01*
G01X-009886Y-009836D02*
G01X-009976Y-009802D01*
G01X-009976Y-009802D02*
G01X-010071Y-009813D01*
G01X-010071Y-009813D02*
G01X-010150Y-009867D01*
G01X-010150Y-009867D02*
G01X-010194Y-009952D01*
G01X-010194Y-009952D02*
G01X-010194Y-010048D01*
G01X-010194Y-010048D02*
G01X-010150Y-010133D01*
G01X-010150Y-010133D02*
G01X-010071Y-010187D01*
G01X-010071Y-010187D02*
G01X-009976Y-010199D01*
G01X-009976Y-010199D02*
G01X-009886Y-010165D01*
G01X-009886Y-010165D02*
G01X-009823Y-010093D01*
G01X-009823Y-010093D02*
G01X-009800Y-010000D01*
G01X-009900Y-010000D02*
G01X-009950Y-009913D01*
G01X-009950Y-009913D02*
G01X-010050Y-009913D01*
G01X-010050Y-009913D02*
G01X-010100Y-010000D01*
G01X-010100Y-010000D02*
G01X-010050Y-010087D01*
G01X-010050Y-010087D02*
G01X-009950Y-010087D01*
G01X-009950Y-010087D02*
G01X-009900Y-010000D01*
G01X-009850Y-010000D02*
G01X-009885Y-009904D01*
G01X-009885Y-009904D02*
G01X-009974Y-009852D01*
G01X-009974Y-009852D02*
G01X-010075Y-009870D01*
G01X-010075Y-009870D02*
G01X-010141Y-009949D01*
G01X-010141Y-009949D02*
G01X-010141Y-010051D01*
G01X-010141Y-010051D02*
G01X-010075Y-010130D01*
G01X-010075Y-010130D02*
G01X-009974Y-010148D01*
G01X-009974Y-010148D02*
G01X-009885Y-010097D01*
G01X-009885Y-010097D02*
G01X-009850Y-010000D01*
G01X0105500Y-010000D02*
G01X0105490Y-009899D01*
G01X0105490Y-009899D02*
G01X0105460Y-009803D01*
G01X0105460Y-009803D02*
G01X0105410Y-009714D01*
G01X0105410Y-009714D02*
G01X0105345Y-009638D01*
G01X0105345Y-009638D02*
G01X0105265Y-009576D01*
G01X0105265Y-009576D02*
G01X0105174Y-009531D01*
G01X0105174Y-009531D02*
G01X0105076Y-009506D01*
G01X0105076Y-009506D02*
G01X0104975Y-009501D01*
G01X0104975Y-009501D02*
G01X0104875Y-009516D01*
G01X0104875Y-009516D02*
G01X0104780Y-009551D01*
G01X0104780Y-009551D02*
G01X0104694Y-009605D01*
G01X0104694Y-009605D02*
G01X0104621Y-009674D01*
G01X0104621Y-009674D02*
G01X0104563Y-009757D01*
G01X0104563Y-009757D02*
G01X0104523Y-009850D01*
G01X0104523Y-009850D02*
G01X0104503Y-009950D01*
G01X0104503Y-009950D02*
G01X0104503Y-010051D01*
G01X0104503Y-010051D02*
G01X0104523Y-010150D01*
G01X0104523Y-010150D02*
G01X0104563Y-010243D01*
G01X0104563Y-010243D02*
G01X0104621Y-010326D01*
G01X0104621Y-010326D02*
G01X0104694Y-010395D01*
G01X0104694Y-010395D02*
G01X0104780Y-010449D01*
G01X0104780Y-010449D02*
G01X0104875Y-010484D01*
G01X0104875Y-010484D02*
G01X0104975Y-010499D01*
G01X0104975Y-010499D02*
G01X0105076Y-010494D01*
G01X0105076Y-010494D02*
G01X0105174Y-010469D01*
G01X0105174Y-010469D02*
G01X0105265Y-010424D01*
G01X0105265Y-010424D02*
G01X0105345Y-010362D01*
G01X0105345Y-010362D02*
G01X0105410Y-010286D01*
G01X0105410Y-010286D02*
G01X0105460Y-010197D01*
G01X0105460Y-010197D02*
G01X0105490Y-010101D01*
G01X0105490Y-010101D02*
G01X0105500Y-010000D01*
G01X0105750Y-010000D02*
G01X0105743Y-009900D01*
G01X0105743Y-009900D02*
G01X0105723Y-009802D01*
G01X0105723Y-009802D02*
G01X0105691Y-009707D01*
G01X0105691Y-009707D02*
G01X0105645Y-009618D01*
G01X0105645Y-009618D02*
G01X0105589Y-009535D01*
G01X0105589Y-009535D02*
G01X0105521Y-009461D01*
G01X0105521Y-009461D02*
G01X0105445Y-009396D01*
G01X0105445Y-009396D02*
G01X0105361Y-009342D01*
G01X0105361Y-009342D02*
G01X0105270Y-009300D01*
G01X0105270Y-009300D02*
G01X0105174Y-009271D01*
G01X0105174Y-009271D02*
G01X0105075Y-009254D01*
G01X0105075Y-009254D02*
G01X0104975Y-009251D01*
G01X0104975Y-009251D02*
G01X0104875Y-009261D01*
G01X0104875Y-009261D02*
G01X0104778Y-009284D01*
G01X0104778Y-009284D02*
G01X0104684Y-009320D01*
G01X0104684Y-009320D02*
G01X0104597Y-009368D01*
G01X0104597Y-009368D02*
G01X0104516Y-009427D01*
G01X0104516Y-009427D02*
G01X0104444Y-009497D01*
G01X0104444Y-009497D02*
G01X0104382Y-009576D01*
G01X0104382Y-009576D02*
G01X0104331Y-009662D01*
G01X0104331Y-009662D02*
G01X0104292Y-009754D01*
G01X0104292Y-009754D02*
G01X0104265Y-009851D01*
G01X0104265Y-009851D02*
G01X0104252Y-009950D01*
G01X0104252Y-009950D02*
G01X0104252Y-010050D01*
G01X0104252Y-010050D02*
G01X0104265Y-010149D01*
G01X0104265Y-010149D02*
G01X0104292Y-010246D01*
G01X0104292Y-010246D02*
G01X0104331Y-010338D01*
G01X0104331Y-010338D02*
G01X0104382Y-010425D01*
G01X0104382Y-010425D02*
G01X0104444Y-010503D01*
G01X0104444Y-010503D02*
G01X0104516Y-010573D01*
G01X0104516Y-010573D02*
G01X0104597Y-010632D01*
G01X0104597Y-010632D02*
G01X0104684Y-010680D01*
G01X0104684Y-010680D02*
G01X0104778Y-010716D01*
G01X0104778Y-010716D02*
G01X0104875Y-010740D01*
G01X0104875Y-010740D02*
G01X0104975Y-010750D01*
G01X0104975Y-010750D02*
G01X0105075Y-010746D01*
G01X0105075Y-010746D02*
G01X0105174Y-010730D01*
G01X0105174Y-010730D02*
G01X0105270Y-010700D01*
G01X0105270Y-010700D02*
G01X0105361Y-010658D01*
G01X0105361Y-010658D02*
G01X0105445Y-010604D01*
G01X0105445Y-010604D02*
G01X0105521Y-010539D01*
G01X0105521Y-010539D02*
G01X0105589Y-010465D01*
G01X0105589Y-010465D02*
G01X0105645Y-010382D01*
G01X0105645Y-010382D02*
G01X0105691Y-010293D01*
G01X0105691Y-010293D02*
G01X0105723Y-010198D01*
G01X0105723Y-010198D02*
G01X0105743Y-010100D01*
G01X0105743Y-010100D02*
G01X0105750Y-010000D01*
G01X0105025Y-010000D02*
G01X0104975Y-010000D01*
G01X0104975Y-010000D02*
G01X0105025Y-010000D01*
G01X0105050Y-010000D02*
G01X0104975Y-009957D01*
G01X0104975Y-009957D02*
G01X0104975Y-010043D01*
G01X0104975Y-010043D02*
G01X0105050Y-010000D01*
G01X0105200Y-010000D02*
G01X0105177Y-009907D01*
G01X0105177Y-009907D02*
G01X0105114Y-009836D01*
G01X0105114Y-009836D02*
G01X0105024Y-009802D01*
G01X0105024Y-009802D02*
G01X0104929Y-009813D01*
G01X0104929Y-009813D02*
G01X0104850Y-009867D01*
G01X0104850Y-009867D02*
G01X0104806Y-009952D01*
G01X0104806Y-009952D02*
G01X0104806Y-010048D01*
G01X0104806Y-010048D02*
G01X0104850Y-010133D01*
G01X0104850Y-010133D02*
G01X0104929Y-010187D01*
G01X0104929Y-010187D02*
G01X0105024Y-010199D01*
G01X0105024Y-010199D02*
G01X0105114Y-010165D01*
G01X0105114Y-010165D02*
G01X0105177Y-010093D01*
G01X0105177Y-010093D02*
G01X0105200Y-010000D01*
G01X0105100Y-010000D02*
G01X0105050Y-009913D01*
G01X0105050Y-009913D02*
G01X0104950Y-009913D01*
G01X0104950Y-009913D02*
G01X0104900Y-010000D01*
G01X0104900Y-010000D02*
G01X0104950Y-010087D01*
G01X0104950Y-010087D02*
G01X0105050Y-010087D01*
G01X0105050Y-010087D02*
G01X0105100Y-010000D01*
G01X0105150Y-010000D02*
G01X0105115Y-009904D01*
G01X0105115Y-009904D02*
G01X0105026Y-009852D01*
G01X0105026Y-009852D02*
G01X0104925Y-009870D01*
G01X0104925Y-009870D02*
G01X0104859Y-009949D01*
G01X0104859Y-009949D02*
G01X0104859Y-010051D01*
G01X0104859Y-010051D02*
G01X0104925Y-010130D01*
G01X0104925Y-010130D02*
G01X0105026Y-010148D01*
G01X0105026Y-010148D02*
G01X0105115Y-010097D01*
G01X0105115Y-010097D02*
G01X0105150Y-010000D01*
G01X-009500Y0040000D02*
G01X-009510Y0040101D01*
G01X-009510Y0040101D02*
G01X-009540Y0040197D01*
G01X-009540Y0040197D02*
G01X-009590Y0040286D01*
G01X-009590Y0040286D02*
G01X-009655Y0040362D01*
G01X-009655Y0040362D02*
G01X-009735Y0040424D01*
G01X-009735Y0040424D02*
G01X-009826Y0040469D01*
G01X-009826Y0040469D02*
G01X-009924Y0040494D01*
G01X-009924Y0040494D02*
G01X-010025Y0040499D01*
G01X-010025Y0040499D02*
G01X-010125Y0040484D01*
G01X-010125Y0040484D02*
G01X-010220Y0040449D01*
G01X-010220Y0040449D02*
G01X-010306Y0040395D01*
G01X-010306Y0040395D02*
G01X-010379Y0040326D01*
G01X-010379Y0040326D02*
G01X-010437Y0040243D01*
G01X-010437Y0040243D02*
G01X-010477Y0040150D01*
G01X-010477Y0040150D02*
G01X-010497Y0040050D01*
G01X-010497Y0040050D02*
G01X-010497Y0039949D01*
G01X-010497Y0039949D02*
G01X-010477Y0039850D01*
G01X-010477Y0039850D02*
G01X-010437Y0039757D01*
G01X-010437Y0039757D02*
G01X-010379Y0039674D01*
G01X-010379Y0039674D02*
G01X-010306Y0039605D01*
G01X-010306Y0039605D02*
G01X-010220Y0039551D01*
G01X-010220Y0039551D02*
G01X-010125Y0039516D01*
G01X-010125Y0039516D02*
G01X-010025Y0039501D01*
G01X-010025Y0039501D02*
G01X-009924Y0039506D01*
G01X-009924Y0039506D02*
G01X-009826Y0039531D01*
G01X-009826Y0039531D02*
G01X-009735Y0039576D01*
G01X-009735Y0039576D02*
G01X-009655Y0039637D01*
G01X-009655Y0039637D02*
G01X-009590Y0039714D01*
G01X-009590Y0039714D02*
G01X-009540Y0039803D01*
G01X-009540Y0039803D02*
G01X-009510Y0039899D01*
G01X-009510Y0039899D02*
G01X-009500Y0040000D01*
G01X-009250Y0040000D02*
G01X-009257Y0040100D01*
G01X-009257Y0040100D02*
G01X-009277Y0040198D01*
G01X-009277Y0040198D02*
G01X-009309Y0040293D01*
G01X-009309Y0040293D02*
G01X-009355Y0040382D01*
G01X-009355Y0040382D02*
G01X-009411Y0040465D01*
G01X-009411Y0040465D02*
G01X-009479Y0040539D01*
G01X-009479Y0040539D02*
G01X-009555Y0040604D01*
G01X-009555Y0040604D02*
G01X-009639Y0040658D01*
G01X-009639Y0040658D02*
G01X-009730Y0040700D01*
G01X-009730Y0040700D02*
G01X-009826Y0040729D01*
G01X-009826Y0040729D02*
G01X-009925Y0040746D01*
G01X-009925Y0040746D02*
G01X-010025Y0040749D01*
G01X-010025Y0040749D02*
G01X-010125Y0040739D01*
G01X-010125Y0040739D02*
G01X-010222Y0040716D01*
G01X-010222Y0040716D02*
G01X-010316Y0040680D01*
G01X-010316Y0040680D02*
G01X-010403Y0040632D01*
G01X-010403Y0040632D02*
G01X-010484Y0040573D01*
G01X-010484Y0040573D02*
G01X-010556Y0040503D01*
G01X-010556Y0040503D02*
G01X-010618Y0040424D01*
G01X-010618Y0040424D02*
G01X-010669Y0040338D01*
G01X-010669Y0040338D02*
G01X-010708Y0040246D01*
G01X-010708Y0040246D02*
G01X-010735Y0040149D01*
G01X-010735Y0040149D02*
G01X-010748Y0040050D01*
G01X-010748Y0040050D02*
G01X-010748Y0039950D01*
G01X-010748Y0039950D02*
G01X-010735Y0039851D01*
G01X-010735Y0039851D02*
G01X-010708Y0039754D01*
G01X-010708Y0039754D02*
G01X-010669Y0039662D01*
G01X-010669Y0039662D02*
G01X-010618Y0039575D01*
G01X-010618Y0039575D02*
G01X-010556Y0039497D01*
G01X-010556Y0039497D02*
G01X-010484Y0039427D01*
G01X-010484Y0039427D02*
G01X-010403Y0039368D01*
G01X-010403Y0039368D02*
G01X-010316Y0039320D01*
G01X-010316Y0039320D02*
G01X-010222Y0039284D01*
G01X-010222Y0039284D02*
G01X-010125Y0039260D01*
G01X-010125Y0039260D02*
G01X-010025Y0039250D01*
G01X-010025Y0039250D02*
G01X-009925Y0039254D01*
G01X-009925Y0039254D02*
G01X-009826Y0039270D01*
G01X-009826Y0039270D02*
G01X-009730Y0039300D01*
G01X-009730Y0039300D02*
G01X-009639Y0039342D01*
G01X-009639Y0039342D02*
G01X-009555Y0039396D01*
G01X-009555Y0039396D02*
G01X-009479Y0039461D01*
G01X-009479Y0039461D02*
G01X-009411Y0039535D01*
G01X-009411Y0039535D02*
G01X-009355Y0039618D01*
G01X-009355Y0039618D02*
G01X-009309Y0039707D01*
G01X-009309Y0039707D02*
G01X-009277Y0039802D01*
G01X-009277Y0039802D02*
G01X-009257Y0039900D01*
G01X-009257Y0039900D02*
G01X-009250Y0040000D01*
G01X-009975Y0040000D02*
G01X-010025Y0040000D01*
G01X-010025Y0040000D02*
G01X-009975Y0040000D01*
G01X-009950Y0040000D02*
G01X-010025Y0040043D01*
G01X-010025Y0040043D02*
G01X-010025Y0039957D01*
G01X-010025Y0039957D02*
G01X-009950Y0040000D01*
G01X-009800Y0040000D02*
G01X-009823Y0040093D01*
G01X-009823Y0040093D02*
G01X-009886Y0040164D01*
G01X-009886Y0040164D02*
G01X-009976Y0040198D01*
G01X-009976Y0040198D02*
G01X-010071Y0040187D01*
G01X-010071Y0040187D02*
G01X-010150Y0040133D01*
G01X-010150Y0040133D02*
G01X-010194Y0040048D01*
G01X-010194Y0040048D02*
G01X-010194Y0039952D01*
G01X-010194Y0039952D02*
G01X-010150Y0039867D01*
G01X-010150Y0039867D02*
G01X-010071Y0039813D01*
G01X-010071Y0039813D02*
G01X-009976Y0039801D01*
G01X-009976Y0039801D02*
G01X-009886Y0039835D01*
G01X-009886Y0039835D02*
G01X-009823Y0039907D01*
G01X-009823Y0039907D02*
G01X-009800Y0040000D01*
G01X-009900Y0040000D02*
G01X-009950Y0040086D01*
G01X-009950Y0040086D02*
G01X-010050Y0040086D01*
G01X-010050Y0040086D02*
G01X-010100Y0040000D01*
G01X-010100Y0040000D02*
G01X-010050Y0039913D01*
G01X-010050Y0039913D02*
G01X-009950Y0039913D01*
G01X-009950Y0039913D02*
G01X-009900Y0040000D01*
G01X-009850Y0040000D02*
G01X-009885Y0040096D01*
G01X-009885Y0040096D02*
G01X-009974Y0040148D01*
G01X-009974Y0040148D02*
G01X-010075Y0040130D01*
G01X-010075Y0040130D02*
G01X-010141Y0040051D01*
G01X-010141Y0040051D02*
G01X-010141Y0039949D01*
G01X-010141Y0039949D02*
G01X-010075Y0039870D01*
G01X-010075Y0039870D02*
G01X-009974Y0039852D01*
G01X-009974Y0039852D02*
G01X-009885Y0039903D01*
G01X-009885Y0039903D02*
G01X-009850Y0040000D01*
G01X-015000Y0040000D02*
G01X-013000Y0040000D01*
G01X-013750Y0039000D02*
G01X-013000Y0039000D01*
G01X-013750Y0038000D02*
G01X-013000Y0038000D01*
G01X-013750Y0037000D02*
G01X-013000Y0037000D01*
G01X-013750Y0036000D02*
G01X-013000Y0036000D01*
G01X-014500Y0035000D02*
G01X-013000Y0035000D01*
G01X-013750Y0034000D02*
G01X-013000Y0034000D01*
G01X-013750Y0033000D02*
G01X-013000Y0033000D01*
G01X-013750Y0032000D02*
G01X-013000Y0032000D01*
G01X-013750Y0031000D02*
G01X-013000Y0031000D01*
G01X-015000Y0030000D02*
G01X-013000Y0030000D01*
G01X-013750Y0029000D02*
G01X-013000Y0029000D01*
G01X-013750Y0028000D02*
G01X-013000Y0028000D01*
G01X-013750Y0027000D02*
G01X-013000Y0027000D01*
G01X-013750Y0026000D02*
G01X-013000Y0026000D01*
G01X-014500Y0025000D02*
G01X-013000Y0025000D01*
G01X-013750Y0024000D02*
G01X-013000Y0024000D01*
G01X-013750Y0023000D02*
G01X-013000Y0023000D01*
G01X-013750Y0022000D02*
G01X-013000Y0022000D01*
G01X-013750Y0021000D02*
G01X-013000Y0021000D01*
G01X-015000Y0020000D02*
G01X-013000Y0020000D01*
G01X-013750Y0019000D02*
G01X-013000Y0019000D01*
G01X-013750Y0018000D02*
G01X-013000Y0018000D01*
G01X-013750Y0017000D02*
G01X-013000Y0017000D01*
G01X-013750Y0016000D02*
G01X-013000Y0016000D01*
G01X-014500Y0015000D02*
G01X-013000Y0015000D01*
G01X-013750Y0014000D02*
G01X-013000Y0014000D01*
G01X-013750Y0013000D02*
G01X-013000Y0013000D01*
G01X-013750Y0012000D02*
G01X-013000Y0012000D01*
G01X-013750Y0011000D02*
G01X-013000Y0011000D01*
G01X-015000Y0010000D02*
G01X-013000Y0010000D01*
G01X-013750Y0009000D02*
G01X-013000Y0009000D01*
G01X-013750Y0008000D02*
G01X-013000Y0008000D01*
G01X-013750Y0007000D02*
G01X-013000Y0007000D01*
G01X-013750Y0006000D02*
G01X-013000Y0006000D01*
G01X-014500Y0005000D02*
G01X-013000Y0005000D01*
G01X-013750Y0004000D02*
G01X-013000Y0004000D01*
G01X-013750Y0003000D02*
G01X-013000Y0003000D01*
G01X-013750Y0002000D02*
G01X-013000Y0002000D01*
G01X-013750Y0001000D02*
G01X-013000Y0001000D01*
G01X-015000Y0000000D02*
G01X-013000Y0000000D01*
G01X-013750Y-001000D02*
G01X-013000Y-001000D01*
G01X-013750Y-002000D02*
G01X-013000Y-002000D01*
G01X-013750Y-003000D02*
G01X-013000Y-003000D01*
G01X-013750Y-004000D02*
G01X-013000Y-004000D01*
G01X-014500Y-005000D02*
G01X-013000Y-005000D01*
G01X-013750Y-006000D02*
G01X-013000Y-006000D01*
G01X-013750Y-007000D02*
G01X-013000Y-007000D01*
G01X-013750Y-008000D02*
G01X-013000Y-008000D01*
G01X-013750Y-009000D02*
G01X-013000Y-009000D01*
G01X-015000Y-010000D02*
G01X-013000Y-010000D01*
G01X-011000Y-013000D02*
G01X-010750Y-013000D01*
G01X-013045Y-010600D02*
G01X-012955Y-010600D01*
G01X-013195Y-010705D02*
G01X-012805Y-010705D01*
G01X-013095Y-010635D02*
G01X-012905Y-010635D01*
G01X-013145Y-010670D02*
G01X-012855Y-010670D01*
G01X-013250Y-010750D02*
G01X-012750Y-010750D01*
G01X-013000Y-013000D02*
G01X-012250Y-013000D01*
G01X-009250Y-010000D02*
G01X-008800Y-010000D01*
G01X-012200Y-010000D02*
G01X-010750Y-010000D01*
G01X0050000Y-015000D02*
G01X0050000Y-013000D01*
G01X0049000Y-013750D02*
G01X0049000Y-013000D01*
G01X0048000Y-013750D02*
G01X0048000Y-013000D01*
G01X0047000Y-013750D02*
G01X0047000Y-013000D01*
G01X0046000Y-013750D02*
G01X0046000Y-013000D01*
G01X0045000Y-014500D02*
G01X0045000Y-013000D01*
G01X0044000Y-013750D02*
G01X0044000Y-013000D01*
G01X0043000Y-013750D02*
G01X0043000Y-013000D01*
G01X0042000Y-013750D02*
G01X0042000Y-013000D01*
G01X0041000Y-013750D02*
G01X0041000Y-013000D01*
G01X0040000Y-015000D02*
G01X0040000Y-013000D01*
G01X0039000Y-013750D02*
G01X0039000Y-013000D01*
G01X0038000Y-013750D02*
G01X0038000Y-013000D01*
G01X0037000Y-013750D02*
G01X0037000Y-013000D01*
G01X0036000Y-013750D02*
G01X0036000Y-013000D01*
G01X0035000Y-014500D02*
G01X0035000Y-013000D01*
G01X0034000Y-013750D02*
G01X0034000Y-013000D01*
G01X0033000Y-013750D02*
G01X0033000Y-013000D01*
G01X0032000Y-013750D02*
G01X0032000Y-013000D01*
G01X0031000Y-013750D02*
G01X0031000Y-013000D01*
G01X0030000Y-015000D02*
G01X0030000Y-013000D01*
G01X0029000Y-013750D02*
G01X0029000Y-013000D01*
G01X0028000Y-013750D02*
G01X0028000Y-013000D01*
G01X0027000Y-013750D02*
G01X0027000Y-013000D01*
G01X0026000Y-013750D02*
G01X0026000Y-013000D01*
G01X0025000Y-014500D02*
G01X0025000Y-013000D01*
G01X0024000Y-013750D02*
G01X0024000Y-013000D01*
G01X0023000Y-013750D02*
G01X0023000Y-013000D01*
G01X0022000Y-013750D02*
G01X0022000Y-013000D01*
G01X0021000Y-013750D02*
G01X0021000Y-013000D01*
G01X0020000Y-015000D02*
G01X0020000Y-013000D01*
G01X0019000Y-013750D02*
G01X0019000Y-013000D01*
G01X0018000Y-013750D02*
G01X0018000Y-013000D01*
G01X0017000Y-013750D02*
G01X0017000Y-013000D01*
G01X0016000Y-013750D02*
G01X0016000Y-013000D01*
G01X0015000Y-014500D02*
G01X0015000Y-013000D01*
G01X0014000Y-013750D02*
G01X0014000Y-013000D01*
G01X0013000Y-013750D02*
G01X0013000Y-013000D01*
G01X0012000Y-013750D02*
G01X0012000Y-013000D01*
G01X0011000Y-013750D02*
G01X0011000Y-013000D01*
G01X0010000Y-015000D02*
G01X0010000Y-013000D01*
G01X0009000Y-013750D02*
G01X0009000Y-013000D01*
G01X0008000Y-013750D02*
G01X0008000Y-013000D01*
G01X0007000Y-013750D02*
G01X0007000Y-013000D01*
G01X0006000Y-013750D02*
G01X0006000Y-013000D01*
G01X0005000Y-014500D02*
G01X0005000Y-013000D01*
G01X0004000Y-013750D02*
G01X0004000Y-013000D01*
G01X0003000Y-013750D02*
G01X0003000Y-013000D01*
G01X0002000Y-013750D02*
G01X0002000Y-013000D01*
G01X0001000Y-013750D02*
G01X0001000Y-013000D01*
G01X0000000Y-015000D02*
G01X0000000Y-013000D01*
G01X-001000Y-013750D02*
G01X-001000Y-013000D01*
G01X-002000Y-013750D02*
G01X-002000Y-013000D01*
G01X-003000Y-013750D02*
G01X-003000Y-013000D01*
G01X-004000Y-013750D02*
G01X-004000Y-013000D01*
G01X-005000Y-014500D02*
G01X-005000Y-013000D01*
G01X-006000Y-013750D02*
G01X-006000Y-013000D01*
G01X-007000Y-013750D02*
G01X-007000Y-013000D01*
G01X-008000Y-013750D02*
G01X-008000Y-013000D01*
G01X-009000Y-013750D02*
G01X-009000Y-013000D01*
G01X-010000Y-015000D02*
G01X-010000Y-013000D01*
G01X-010600Y-013045D02*
G01X-010600Y-012955D01*
G01X-010705Y-013195D02*
G01X-010705Y-012805D01*
G01X-010635Y-013095D02*
G01X-010635Y-012905D01*
G01X-013000Y-011000D02*
G01X-013000Y-010750D01*
G01X-010670Y-013145D02*
G01X-010670Y-012855D01*
G01X-010750Y-013250D02*
G01X-010750Y-012750D01*
G01X-013000Y-013000D02*
G01X-013000Y-012250D01*
G01X0090000Y-015000D02*
G01X0090000Y-013000D01*
G01X0089000Y-013750D02*
G01X0089000Y-013000D01*
G01X0088000Y-013750D02*
G01X0088000Y-013000D01*
G01X0087000Y-013750D02*
G01X0087000Y-013000D01*
G01X0086000Y-013750D02*
G01X0086000Y-013000D01*
G01X0085000Y-014500D02*
G01X0085000Y-013000D01*
G01X0084000Y-013750D02*
G01X0084000Y-013000D01*
G01X0083000Y-013750D02*
G01X0083000Y-013000D01*
G01X0082000Y-013750D02*
G01X0082000Y-013000D01*
G01X0081000Y-013750D02*
G01X0081000Y-013000D01*
G01X0080000Y-015000D02*
G01X0080000Y-013000D01*
G01X0079000Y-013750D02*
G01X0079000Y-013000D01*
G01X0078000Y-013750D02*
G01X0078000Y-013000D01*
G01X0077000Y-013750D02*
G01X0077000Y-013000D01*
G01X0076000Y-013750D02*
G01X0076000Y-013000D01*
G01X0075000Y-014500D02*
G01X0075000Y-013000D01*
G01X0074000Y-013750D02*
G01X0074000Y-013000D01*
G01X0073000Y-013750D02*
G01X0073000Y-013000D01*
G01X0072000Y-013750D02*
G01X0072000Y-013000D01*
G01X0071000Y-013750D02*
G01X0071000Y-013000D01*
G01X0070000Y-015000D02*
G01X0070000Y-013000D01*
G01X0069000Y-013750D02*
G01X0069000Y-013000D01*
G01X0068000Y-013750D02*
G01X0068000Y-013000D01*
G01X0067000Y-013750D02*
G01X0067000Y-013000D01*
G01X0066000Y-013750D02*
G01X0066000Y-013000D01*
G01X0065000Y-014500D02*
G01X0065000Y-013000D01*
G01X0064000Y-013750D02*
G01X0064000Y-013000D01*
G01X0063000Y-013750D02*
G01X0063000Y-013000D01*
G01X0062000Y-013750D02*
G01X0062000Y-013000D01*
G01X0061000Y-013750D02*
G01X0061000Y-013000D01*
G01X0060000Y-015000D02*
G01X0060000Y-013000D01*
G01X0059000Y-013750D02*
G01X0059000Y-013000D01*
G01X0058000Y-013750D02*
G01X0058000Y-013000D01*
G01X0057000Y-013750D02*
G01X0057000Y-013000D01*
G01X0056000Y-013750D02*
G01X0056000Y-013000D01*
G01X0055000Y-014500D02*
G01X0055000Y-013000D01*
G01X0054000Y-013750D02*
G01X0054000Y-013000D01*
G01X0053000Y-013750D02*
G01X0053000Y-013000D01*
G01X0052000Y-013750D02*
G01X0052000Y-013000D01*
G01X0051000Y-013750D02*
G01X0051000Y-013000D01*
G01X0105000Y-014500D02*
G01X0105000Y-013000D01*
G01X0104000Y-013750D02*
G01X0104000Y-013000D01*
G01X0103000Y-013750D02*
G01X0103000Y-013000D01*
G01X0102000Y-013750D02*
G01X0102000Y-013000D01*
G01X0101000Y-013750D02*
G01X0101000Y-013000D01*
G01X0100000Y-015000D02*
G01X0100000Y-013000D01*
G01X0099000Y-013750D02*
G01X0099000Y-013000D01*
G01X0098000Y-013750D02*
G01X0098000Y-013000D01*
G01X0097000Y-013750D02*
G01X0097000Y-013000D01*
G01X0096000Y-013750D02*
G01X0096000Y-013000D01*
G01X0095000Y-014500D02*
G01X0095000Y-013000D01*
G01X0094000Y-013750D02*
G01X0094000Y-013000D01*
G01X0093000Y-013750D02*
G01X0093000Y-013000D01*
G01X0092000Y-013750D02*
G01X0092000Y-013000D01*
G01X0091000Y-013750D02*
G01X0091000Y-013000D01*
G01X0090000Y-015000D02*
G01X0090000Y-013000D01*
G01X-010000Y-012200D02*
G01X-010000Y-010750D01*
G01X-010000Y-009250D02*
G01X-010000Y-008800D01*
G01X-010000Y-010000D02*
G01X-009650Y-009650D01*
G01X-010350Y-010350D02*
G01X-010000Y-010000D01*
G01X-010000Y-010000D02*
G01X-009650Y-010350D01*
G01X-010350Y-009650D02*
G01X-010000Y-010000D01*
G01X-010600Y-013045D02*
G01X-010470Y-013000D01*
G01X-010600Y-012955D02*
G01X-010470Y-013000D01*
G01X-010705Y-013195D02*
G01X-010125Y-013000D01*
G01X-010705Y-012805D02*
G01X-010125Y-013000D01*
G01X-010635Y-013095D02*
G01X-010355Y-013000D01*
G01X-010635Y-012905D02*
G01X-010355Y-013000D01*
G01X-013000Y-010470D02*
G01X-012955Y-010600D01*
G01X-013045Y-010600D02*
G01X-013000Y-010470D01*
G01X-013000Y-010125D02*
G01X-012805Y-010705D01*
G01X-013195Y-010705D02*
G01X-013000Y-010125D01*
G01X-013000Y-010355D02*
G01X-012905Y-010635D01*
G01X-013095Y-010635D02*
G01X-013000Y-010355D01*
G01X-013000Y-010240D02*
G01X-012855Y-010670D01*
G01X-013145Y-010670D02*
G01X-013000Y-010240D01*
G01X-013250Y-010750D02*
G01X-013000Y-010000D01*
G01X-013000Y-010000D02*
G01X-012750Y-010750D01*
G01X-010670Y-013145D02*
G01X-010240Y-013000D01*
G01X-010670Y-012855D02*
G01X-010240Y-013000D01*
G01X-010750Y-012750D02*
G01X-010000Y-013000D01*
G01X-010750Y-013250D02*
G01X-010000Y-013000D01*
G01X0105750Y-010000D02*
G01X0106200Y-010000D01*
G01X0103800Y-010000D02*
G01X0104250Y-010000D01*
G01X0105000Y-012200D02*
G01X0105000Y-010750D01*
G01X0105000Y-009250D02*
G01X0105000Y-008800D01*
G01X0105000Y-010000D02*
G01X0105350Y-009650D01*
G01X0104650Y-010350D02*
G01X0105000Y-010000D01*
G01X0105000Y-010000D02*
G01X0105350Y-010350D01*
G01X0104650Y-009650D02*
G01X0105000Y-010000D01*
G01X-009250Y0040000D02*
G01X-008800Y0040000D01*
G01X-012200Y0040000D02*
G01X-010750Y0040000D01*
G01X-010000Y0038800D02*
G01X-010000Y0039250D01*
G01X-010000Y0040750D02*
G01X-010000Y0041200D01*
G01X-010000Y0040000D02*
G01X-009650Y0040350D01*
G01X-010350Y0039650D02*
G01X-010000Y0040000D01*
G01X-010000Y0040000D02*
G01X-009650Y0039650D01*
G01X-010350Y0040350D02*
G01X-010000Y0040000D01*
G01X0000800Y0041200D02*
G01X0001000Y0041200D01*
G01X0001000Y0041200D02*
G01X0000900Y0041200D01*
G01X0000900Y0041200D02*
G01X0000900Y0041800D01*
G01X0000900Y0041800D02*
G01X0000800Y0041700D01*
G01X0001600Y0041200D02*
G01X0001600Y0041800D01*
G01X0001600Y0041800D02*
G01X0001300Y0041500D01*
G01X0001300Y0041500D02*
G01X0001700Y0041500D01*
G01X0001900Y0041200D02*
G01X0002100Y0041200D01*
G01X0002100Y0041200D02*
G01X0002000Y0041200D01*
G01X0002000Y0041200D02*
G01X0002000Y0041800D01*
G01X0002000Y0041800D02*
G01X0001900Y0041700D01*
G01X0000800Y0040000D02*
G01X0001000Y0040000D01*
G01X0001000Y0040000D02*
G01X0000900Y0040000D01*
G01X0000900Y0040000D02*
G01X0000900Y0040600D01*
G01X0000900Y0040600D02*
G01X0000800Y0040500D01*
G01X0001700Y0040600D02*
G01X0001300Y0040600D01*
G01X0001300Y0040600D02*
G01X0001300Y0040300D01*
G01X0001300Y0040300D02*
G01X0001500Y0040400D01*
G01X0001500Y0040400D02*
G01X0001600Y0040400D01*
G01X0001600Y0040400D02*
G01X0001700Y0040300D01*
G01X0001700Y0040300D02*
G01X0001700Y0040100D01*
G01X0001700Y0040100D02*
G01X0001600Y0040000D01*
G01X0001600Y0040000D02*
G01X0001400Y0040000D01*
G01X0001400Y0040000D02*
G01X0001300Y0040100D01*
G01X0002300Y0040600D02*
G01X0002100Y0040500D01*
G01X0002100Y0040500D02*
G01X0001900Y0040300D01*
G01X0001900Y0040300D02*
G01X0001900Y0040100D01*
G01X0001900Y0040100D02*
G01X0002000Y0040000D01*
G01X0002000Y0040000D02*
G01X0002200Y0040000D01*
G01X0002200Y0040000D02*
G01X0002300Y0040100D01*
G01X0002300Y0040100D02*
G01X0002300Y0040200D01*
G01X0002300Y0040200D02*
G01X0002200Y0040300D01*
G01X0002200Y0040300D02*
G01X0001900Y0040300D01*
G01X-005600Y0041700D02*
G01X-005700Y0041800D01*
G01X-005700Y0041800D02*
G01X-005900Y0041800D01*
G01X-005900Y0041800D02*
G01X-006000Y0041700D01*
G01X-006000Y0041700D02*
G01X-006000Y0041300D01*
G01X-006000Y0041300D02*
G01X-005900Y0041200D01*
G01X-005900Y0041200D02*
G01X-005700Y0041200D01*
G01X-005700Y0041200D02*
G01X-005600Y0041300D01*
G01X-005300Y0041200D02*
G01X-005100Y0041200D01*
G01X-005100Y0041200D02*
G01X-005000Y0041300D01*
G01X-005000Y0041300D02*
G01X-005000Y0041500D01*
G01X-005000Y0041500D02*
G01X-005100Y0041600D01*
G01X-005100Y0041600D02*
G01X-005300Y0041600D01*
G01X-005300Y0041600D02*
G01X-005400Y0041500D01*
G01X-005400Y0041500D02*
G01X-005400Y0041300D01*
G01X-005400Y0041300D02*
G01X-005300Y0041200D01*
G01X-004800Y0041200D02*
G01X-004800Y0041600D01*
G01X-004800Y0041600D02*
G01X-004700Y0041600D01*
G01X-004700Y0041600D02*
G01X-004600Y0041500D01*
G01X-004600Y0041500D02*
G01X-004600Y0041200D01*
G01X-004600Y0041200D02*
G01X-004600Y0041500D01*
G01X-004600Y0041500D02*
G01X-004500Y0041600D01*
G01X-004500Y0041600D02*
G01X-004401Y0041500D01*
G01X-004401Y0041500D02*
G01X-004401Y0041200D01*
G01X-004201Y0041000D02*
G01X-004201Y0041600D01*
G01X-004201Y0041600D02*
G01X-003901Y0041600D01*
G01X-003901Y0041600D02*
G01X-003801Y0041500D01*
G01X-003801Y0041500D02*
G01X-003801Y0041300D01*
G01X-003801Y0041300D02*
G01X-003901Y0041200D01*
G01X-003901Y0041200D02*
G01X-004201Y0041200D01*
G01X-003501Y0041200D02*
G01X-003301Y0041200D01*
G01X-003301Y0041200D02*
G01X-003201Y0041300D01*
G01X-003201Y0041300D02*
G01X-003201Y0041500D01*
G01X-003201Y0041500D02*
G01X-003301Y0041600D01*
G01X-003301Y0041600D02*
G01X-003501Y0041600D01*
G01X-003501Y0041600D02*
G01X-003601Y0041500D01*
G01X-003601Y0041500D02*
G01X-003601Y0041300D01*
G01X-003601Y0041300D02*
G01X-003501Y0041200D01*
G01X-003001Y0041200D02*
G01X-003001Y0041600D01*
G01X-003001Y0041600D02*
G01X-002701Y0041600D01*
G01X-002701Y0041600D02*
G01X-002601Y0041500D01*
G01X-002601Y0041500D02*
G01X-002601Y0041200D01*
G01X-002101Y0041200D02*
G01X-002301Y0041200D01*
G01X-002301Y0041200D02*
G01X-002401Y0041300D01*
G01X-002401Y0041300D02*
G01X-002401Y0041500D01*
G01X-002401Y0041500D02*
G01X-002301Y0041600D01*
G01X-002301Y0041600D02*
G01X-002101Y0041600D01*
G01X-002101Y0041600D02*
G01X-002001Y0041500D01*
G01X-002001Y0041500D02*
G01X-002001Y0041400D01*
G01X-002001Y0041400D02*
G01X-002401Y0041400D01*
G01X-001801Y0041200D02*
G01X-001801Y0041600D01*
G01X-001801Y0041600D02*
G01X-001501Y0041600D01*
G01X-001501Y0041600D02*
G01X-001401Y0041500D01*
G01X-001401Y0041500D02*
G01X-001401Y0041200D01*
G01X-001102Y0041700D02*
G01X-001102Y0041600D01*
G01X-001102Y0041600D02*
G01X-001202Y0041600D01*
G01X-001202Y0041600D02*
G01X-001002Y0041600D01*
G01X-001002Y0041600D02*
G01X-001102Y0041600D01*
G01X-001102Y0041600D02*
G01X-001102Y0041300D01*
G01X-001102Y0041300D02*
G01X-001002Y0041200D01*
G01X-000702Y0041200D02*
G01X-000402Y0041200D01*
G01X-000402Y0041200D02*
G01X-000302Y0041300D01*
G01X-000302Y0041300D02*
G01X-000402Y0041400D01*
G01X-000402Y0041400D02*
G01X-000602Y0041400D01*
G01X-000602Y0041400D02*
G01X-000702Y0041500D01*
G01X-000702Y0041500D02*
G01X-000602Y0041600D01*
G01X-000602Y0041600D02*
G01X-000302Y0041600D01*
G01X-002400Y0040000D02*
G01X-002400Y0040600D01*
G01X-002400Y0040600D02*
G01X-002000Y0040000D01*
G01X-002000Y0040000D02*
G01X-002000Y0040600D01*
G01X-001500Y0040000D02*
G01X-001700Y0040000D01*
G01X-001700Y0040000D02*
G01X-001800Y0040100D01*
G01X-001800Y0040100D02*
G01X-001800Y0040300D01*
G01X-001800Y0040300D02*
G01X-001700Y0040400D01*
G01X-001700Y0040400D02*
G01X-001500Y0040400D01*
G01X-001500Y0040400D02*
G01X-001400Y0040300D01*
G01X-001400Y0040300D02*
G01X-001400Y0040200D01*
G01X-001400Y0040200D02*
G01X-001800Y0040200D01*
G01X-001100Y0040500D02*
G01X-001100Y0040400D01*
G01X-001100Y0040400D02*
G01X-001200Y0040400D01*
G01X-001200Y0040400D02*
G01X-001000Y0040400D01*
G01X-001000Y0040400D02*
G01X-001100Y0040400D01*
G01X-001100Y0040400D02*
G01X-001100Y0040100D01*
G01X-001100Y0040100D02*
G01X-001000Y0040000D01*
G01X-000701Y0040000D02*
G01X-000401Y0040000D01*
G01X-000401Y0040000D02*
G01X-000301Y0040100D01*
G01X-000301Y0040100D02*
G01X-000401Y0040200D01*
G01X-000401Y0040200D02*
G01X-000601Y0040200D01*
G01X-000601Y0040200D02*
G01X-000701Y0040300D01*
G01X-000701Y0040300D02*
G01X-000601Y0040400D01*
G01X-000601Y0040400D02*
G01X-000301Y0040400D01*
G01X-003000Y0039400D02*
G01X-003000Y0038800D01*
G01X-003000Y0038800D02*
G01X-003000Y0039100D01*
G01X-003000Y0039100D02*
G01X-002600Y0039100D01*
G01X-002600Y0039100D02*
G01X-002600Y0039400D01*
G01X-002600Y0039400D02*
G01X-002600Y0038800D01*
G01X-002300Y0038800D02*
G01X-002100Y0038800D01*
G01X-002100Y0038800D02*
G01X-002000Y0038900D01*
G01X-002000Y0038900D02*
G01X-002000Y0039100D01*
G01X-002000Y0039100D02*
G01X-002100Y0039200D01*
G01X-002100Y0039200D02*
G01X-002300Y0039200D01*
G01X-002300Y0039200D02*
G01X-002400Y0039100D01*
G01X-002400Y0039100D02*
G01X-002400Y0038900D01*
G01X-002400Y0038900D02*
G01X-002300Y0038800D01*
G01X-001800Y0038800D02*
G01X-001600Y0038800D01*
G01X-001600Y0038800D02*
G01X-001700Y0038800D01*
G01X-001700Y0038800D02*
G01X-001700Y0039400D01*
G01X-001700Y0039400D02*
G01X-001800Y0039400D01*
G01X-001001Y0038800D02*
G01X-001201Y0038800D01*
G01X-001201Y0038800D02*
G01X-001301Y0038900D01*
G01X-001301Y0038900D02*
G01X-001301Y0039100D01*
G01X-001301Y0039100D02*
G01X-001201Y0039200D01*
G01X-001201Y0039200D02*
G01X-001001Y0039200D01*
G01X-001001Y0039200D02*
G01X-000901Y0039100D01*
G01X-000901Y0039100D02*
G01X-000901Y0039000D01*
G01X-000901Y0039000D02*
G01X-001301Y0039000D01*
G01X-000701Y0038800D02*
G01X-000401Y0038800D01*
G01X-000401Y0038800D02*
G01X-000301Y0038900D01*
G01X-000301Y0038900D02*
G01X-000401Y0039000D01*
G01X-000401Y0039000D02*
G01X-000601Y0039000D01*
G01X-000601Y0039000D02*
G01X-000701Y0039100D01*
G01X-000701Y0039100D02*
G01X-000601Y0039200D01*
G01X-000601Y0039200D02*
G01X-000301Y0039200D01*
G01X0001100Y0038800D02*
G01X0001100Y0039400D01*
G01X0001100Y0039400D02*
G01X0000800Y0039100D01*
G01X0000800Y0039100D02*
G01X0001200Y0039100D01*
G01X0001400Y0039300D02*
G01X0001500Y0039400D01*
G01X0001500Y0039400D02*
G01X0001700Y0039400D01*
G01X0001700Y0039400D02*
G01X0001800Y0039300D01*
G01X0001800Y0039300D02*
G01X0001800Y0038900D01*
G01X0001800Y0038900D02*
G01X0001700Y0038800D01*
G01X0001700Y0038800D02*
G01X0001500Y0038800D01*
G01X0001500Y0038800D02*
G01X0001400Y0038900D01*
G01X0001400Y0038900D02*
G01X0001400Y0039300D01*
G01X0002399Y0039400D02*
G01X0002200Y0039300D01*
G01X0002200Y0039300D02*
G01X0002000Y0039100D01*
G01X0002000Y0039100D02*
G01X0002000Y0038900D01*
G01X0002000Y0038900D02*
G01X0002100Y0038800D01*
G01X0002100Y0038800D02*
G01X0002300Y0038800D01*
G01X0002300Y0038800D02*
G01X0002399Y0038900D01*
G01X0002399Y0038900D02*
G01X0002399Y0039000D01*
G01X0002399Y0039000D02*
G01X0002300Y0039100D01*
G01X0002300Y0039100D02*
G01X0002000Y0039100D01*
G54D12*
G01X0061500Y-024550D02*
G01X0061500Y-022500D01*
G01X0092000Y-024550D02*
G01X0092000Y-022500D01*
G01X0092500Y-029300D02*
G01X0092500Y-022500D01*
G01X0104500Y-029300D02*
G01X0104500Y-022500D01*
G01X0092000Y-029300D02*
G01X0092000Y-025000D01*
G01X0061500Y-028300D02*
G01X0061500Y-025000D01*
G01X0070000Y-028300D02*
G01X0070000Y-025000D01*
G01X0070500Y-029300D02*
G01X0070500Y-025000D01*
G01X0070500Y-032050D02*
G01X0070500Y-029750D01*
G01X0070000Y-032050D02*
G01X0070000Y-028750D01*
G01X0061500Y-032050D02*
G01X0061500Y-028750D01*
G01X0087500Y-032050D02*
G01X0087500Y-029750D01*
G01X0088000Y-032050D02*
G01X0088000Y-029750D01*
G01X0092000Y-032050D02*
G01X0092000Y-029750D01*
G01X0092500Y-032050D02*
G01X0092500Y-029750D01*
G01X0104500Y-032050D02*
G01X0104500Y-029750D01*
G01X0061500Y-034550D02*
G01X0061500Y-032500D01*
G01X0061000Y-035050D02*
G01X0061000Y-022000D01*
G01X0079250Y-034550D02*
G01X0079250Y-032500D01*
G01X0079750Y-034550D02*
G01X0079750Y-032500D01*
G01X0097500Y-034550D02*
G01X0097500Y-032500D01*
G01X0098000Y-034550D02*
G01X0098000Y-032500D01*
G01X0104500Y-034550D02*
G01X0104500Y-032500D01*
G01X0105000Y-035050D02*
G01X0105000Y-022000D01*
G01X0061500Y-024550D02*
G01X0092000Y-024550D01*
G01X0061500Y-022500D02*
G01X0092000Y-022500D01*
G01X0061000Y-022000D02*
G01X0105000Y-022000D01*
G01X0092500Y-022500D02*
G01X0104500Y-022500D01*
G01X0092500Y-029300D02*
G01X0104500Y-029300D01*
G01X0092500Y-029750D02*
G01X0104500Y-029750D01*
G01X0088000Y-029750D02*
G01X0092000Y-029750D01*
G01X0070500Y-025000D02*
G01X0092000Y-025000D01*
G01X0061500Y-025000D02*
G01X0070000Y-025000D01*
G01X0061500Y-028300D02*
G01X0070000Y-028300D01*
G01X0070500Y-029300D02*
G01X0092000Y-029300D01*
G01X0061500Y-028750D02*
G01X0070000Y-028750D01*
G01X0061500Y-032050D02*
G01X0070000Y-032050D01*
G01X0061500Y-032500D02*
G01X0079250Y-032500D01*
G01X0070500Y-032050D02*
G01X0087500Y-032050D01*
G01X0070500Y-029750D02*
G01X0087500Y-029750D01*
G01X0088000Y-032050D02*
G01X0092000Y-032050D01*
G01X0092500Y-032050D02*
G01X0104500Y-032050D01*
G01X0098000Y-032500D02*
G01X0104500Y-032500D01*
G01X0079750Y-032500D02*
G01X0097500Y-032500D01*
G01X0061500Y-034550D02*
G01X0079250Y-034550D01*
G01X0079750Y-034550D02*
G01X0097500Y-034550D01*
G01X0098000Y-034550D02*
G01X0104500Y-034550D01*
G01X0061000Y-035050D02*
G01X0105000Y-035050D01*
G01X0061000Y-025750D02*
G01X0061000Y-023700D01*
G01X0061500Y-030500D02*
G01X0061500Y-023700D01*
G01X0061500Y-033250D02*
G01X0061500Y-030950D01*
G54D13*
G01X0098921Y-033087D02*
G01X0098900Y-033044D01*
G01X0098900Y-033044D02*
G01X0098857Y-033002D01*
G01X0098857Y-033002D02*
G01X0098814Y-032980D01*
G01X0098814Y-032980D02*
G01X0098729Y-032980D01*
G01X0098729Y-032980D02*
G01X0098686Y-033002D01*
G01X0098686Y-033002D02*
G01X0098643Y-033044D01*
G01X0098643Y-033044D02*
G01X0098621Y-033087D01*
G01X0098621Y-033087D02*
G01X0098600Y-033151D01*
G01X0098600Y-033151D02*
G01X0098600Y-033259D01*
G01X0098600Y-033259D02*
G01X0098621Y-033323D01*
G01X0098621Y-033323D02*
G01X0098643Y-033366D01*
G01X0098643Y-033366D02*
G01X0098686Y-033409D01*
G01X0098686Y-033409D02*
G01X0098729Y-033430D01*
G01X0098729Y-033430D02*
G01X0098814Y-033430D01*
G01X0098814Y-033430D02*
G01X0098857Y-033409D01*
G01X0098857Y-033409D02*
G01X0098900Y-033366D01*
G01X0098900Y-033366D02*
G01X0098921Y-033323D01*
G01X0098921Y-033323D02*
G01X0098921Y-033259D01*
G01X0098814Y-033259D02*
G01X0098921Y-033259D01*
G01X0099303Y-032980D02*
G01X0099024Y-032980D01*
G01X0099024Y-032980D02*
G01X0099024Y-033430D01*
G01X0099024Y-033430D02*
G01X0099303Y-033430D01*
G01X0099024Y-033194D02*
G01X0099196Y-033194D01*
G01X0099378Y-032980D02*
G01X0099378Y-033430D01*
G01X0099378Y-032980D02*
G01X0099571Y-032980D01*
G01X0099571Y-032980D02*
G01X0099635Y-033002D01*
G01X0099635Y-033002D02*
G01X0099656Y-033023D01*
G01X0099656Y-033023D02*
G01X0099678Y-033066D01*
G01X0099678Y-033066D02*
G01X0099678Y-033109D01*
G01X0099678Y-033109D02*
G01X0099656Y-033151D01*
G01X0099656Y-033151D02*
G01X0099635Y-033173D01*
G01X0099635Y-033173D02*
G01X0099571Y-033194D01*
G01X0099571Y-033194D02*
G01X0099378Y-033194D01*
G01X0099528Y-033194D02*
G01X0099678Y-033430D01*
G01X0099778Y-032980D02*
G01X0099778Y-033430D01*
G01X0099778Y-032980D02*
G01X0099971Y-032980D01*
G01X0099971Y-032980D02*
G01X0100035Y-033002D01*
G01X0100035Y-033002D02*
G01X0100057Y-033023D01*
G01X0100057Y-033023D02*
G01X0100078Y-033066D01*
G01X0100078Y-033066D02*
G01X0100078Y-033109D01*
G01X0100078Y-033109D02*
G01X0100057Y-033151D01*
G01X0100057Y-033151D02*
G01X0100035Y-033173D01*
G01X0100035Y-033173D02*
G01X0099971Y-033194D01*
G01X0099778Y-033194D02*
G01X0099971Y-033194D01*
G01X0099971Y-033194D02*
G01X0100035Y-033216D01*
G01X0100035Y-033216D02*
G01X0100057Y-033237D01*
G01X0100057Y-033237D02*
G01X0100078Y-033280D01*
G01X0100078Y-033280D02*
G01X0100078Y-033344D01*
G01X0100078Y-033344D02*
G01X0100057Y-033387D01*
G01X0100057Y-033387D02*
G01X0100035Y-033409D01*
G01X0100035Y-033409D02*
G01X0099971Y-033430D01*
G01X0099971Y-033430D02*
G01X0099778Y-033430D01*
G01X0100457Y-032980D02*
G01X0100179Y-032980D01*
G01X0100179Y-032980D02*
G01X0100179Y-033430D01*
G01X0100179Y-033430D02*
G01X0100457Y-033430D01*
G01X0100179Y-033194D02*
G01X0100350Y-033194D01*
G01X0100532Y-032980D02*
G01X0100532Y-033430D01*
G01X0100532Y-032980D02*
G01X0100725Y-032980D01*
G01X0100725Y-032980D02*
G01X0100790Y-033002D01*
G01X0100790Y-033002D02*
G01X0100811Y-033023D01*
G01X0100811Y-033023D02*
G01X0100832Y-033066D01*
G01X0100832Y-033066D02*
G01X0100832Y-033109D01*
G01X0100832Y-033109D02*
G01X0100811Y-033151D01*
G01X0100811Y-033151D02*
G01X0100790Y-033173D01*
G01X0100790Y-033173D02*
G01X0100725Y-033194D01*
G01X0100725Y-033194D02*
G01X0100532Y-033194D01*
G01X0100682Y-033194D02*
G01X0100832Y-033430D01*
G01X0100955Y-033130D02*
G01X0100933Y-033151D01*
G01X0100933Y-033151D02*
G01X0100955Y-033173D01*
G01X0100955Y-033173D02*
G01X0100976Y-033151D01*
G01X0100976Y-033151D02*
G01X0100955Y-033130D01*
G01X0100955Y-033387D02*
G01X0100933Y-033409D01*
G01X0100933Y-033409D02*
G01X0100955Y-033430D01*
G01X0100955Y-033430D02*
G01X0100976Y-033409D01*
G01X0100976Y-033409D02*
G01X0100955Y-033387D01*
G01X0062000Y-032980D02*
G01X0062000Y-033430D01*
G01X0062000Y-032980D02*
G01X0062279Y-032980D01*
G01X0062000Y-033194D02*
G01X0062171Y-033194D01*
G01X0062330Y-032980D02*
G01X0062330Y-033430D01*
G01X0062424Y-032980D02*
G01X0062424Y-033430D01*
G01X0062424Y-033430D02*
G01X0062681Y-033430D01*
G01X0063009Y-032980D02*
G01X0062731Y-032980D01*
G01X0062731Y-032980D02*
G01X0062731Y-033430D01*
G01X0062731Y-033430D02*
G01X0063009Y-033430D01*
G01X0062731Y-033194D02*
G01X0062902Y-033194D01*
G01X0063438Y-032980D02*
G01X0063438Y-033430D01*
G01X0063438Y-032980D02*
G01X0063737Y-033430D01*
G01X0063737Y-032980D02*
G01X0063737Y-033430D01*
G01X0064205Y-033430D02*
G01X0064033Y-032980D01*
G01X0064033Y-032980D02*
G01X0063862Y-033430D01*
G01X0063926Y-033280D02*
G01X0064140Y-033280D01*
G01X0064310Y-032980D02*
G01X0064310Y-033430D01*
G01X0064310Y-032980D02*
G01X0064481Y-033430D01*
G01X0064652Y-032980D02*
G01X0064481Y-033430D01*
G01X0064652Y-032980D02*
G01X0064652Y-033430D01*
G01X0065059Y-032980D02*
G01X0064781Y-032980D01*
G01X0064781Y-032980D02*
G01X0064781Y-033430D01*
G01X0064781Y-033430D02*
G01X0065059Y-033430D01*
G01X0064781Y-033194D02*
G01X0064952Y-033194D01*
G01X0065156Y-033130D02*
G01X0065134Y-033151D01*
G01X0065134Y-033151D02*
G01X0065156Y-033173D01*
G01X0065156Y-033173D02*
G01X0065177Y-033151D01*
G01X0065177Y-033151D02*
G01X0065156Y-033130D01*
G01X0065156Y-033387D02*
G01X0065134Y-033409D01*
G01X0065134Y-033409D02*
G01X0065156Y-033430D01*
G01X0065156Y-033430D02*
G01X0065177Y-033409D01*
G01X0065177Y-033409D02*
G01X0065156Y-033387D01*
G01X0071025Y-025455D02*
G01X0071025Y-025905D01*
G01X0070875Y-025455D02*
G01X0071175Y-025455D01*
G01X0071228Y-025455D02*
G01X0071228Y-025905D01*
G01X0071473Y-025455D02*
G01X0071473Y-025905D01*
G01X0071323Y-025455D02*
G01X0071623Y-025455D01*
G01X0071676Y-025455D02*
G01X0071676Y-025905D01*
G01X0071676Y-025905D02*
G01X0071933Y-025905D01*
G01X0072261Y-025455D02*
G01X0071983Y-025455D01*
G01X0071983Y-025455D02*
G01X0071983Y-025905D01*
G01X0071983Y-025905D02*
G01X0072261Y-025905D01*
G01X0071983Y-025669D02*
G01X0072154Y-025669D01*
G01X0072358Y-025605D02*
G01X0072336Y-025626D01*
G01X0072336Y-025626D02*
G01X0072358Y-025648D01*
G01X0072358Y-025648D02*
G01X0072379Y-025626D01*
G01X0072379Y-025626D02*
G01X0072358Y-025605D01*
G01X0072358Y-025862D02*
G01X0072336Y-025884D01*
G01X0072336Y-025884D02*
G01X0072358Y-025905D01*
G01X0072358Y-025905D02*
G01X0072379Y-025884D01*
G01X0072379Y-025884D02*
G01X0072358Y-025862D01*
G01X0071000Y-030441D02*
G01X0071193Y-030441D01*
G01X0071193Y-030441D02*
G01X0071257Y-030419D01*
G01X0071257Y-030419D02*
G01X0071279Y-030398D01*
G01X0071279Y-030398D02*
G01X0071300Y-030355D01*
G01X0071300Y-030355D02*
G01X0071300Y-030291D01*
G01X0071300Y-030291D02*
G01X0071279Y-030248D01*
G01X0071279Y-030248D02*
G01X0071257Y-030227D01*
G01X0071257Y-030227D02*
G01X0071193Y-030205D01*
G01X0071193Y-030205D02*
G01X0071000Y-030205D01*
G01X0071000Y-030205D02*
G01X0071000Y-030655D01*
G01X0071743Y-030655D02*
G01X0071572Y-030205D01*
G01X0071572Y-030205D02*
G01X0071401Y-030655D01*
G01X0071465Y-030505D02*
G01X0071679Y-030505D01*
G01X0071848Y-030205D02*
G01X0071848Y-030655D01*
G01X0071848Y-030205D02*
G01X0072041Y-030205D01*
G01X0072041Y-030205D02*
G01X0072105Y-030227D01*
G01X0072105Y-030227D02*
G01X0072127Y-030248D01*
G01X0072127Y-030248D02*
G01X0072148Y-030291D01*
G01X0072148Y-030291D02*
G01X0072148Y-030334D01*
G01X0072148Y-030334D02*
G01X0072127Y-030376D01*
G01X0072127Y-030376D02*
G01X0072105Y-030398D01*
G01X0072105Y-030398D02*
G01X0072041Y-030419D01*
G01X0072041Y-030419D02*
G01X0071848Y-030419D01*
G01X0071998Y-030419D02*
G01X0072148Y-030655D01*
G01X0072399Y-030205D02*
G01X0072399Y-030655D01*
G01X0072249Y-030205D02*
G01X0072549Y-030205D01*
G01X0072956Y-030205D02*
G01X0072956Y-030655D01*
G01X0072956Y-030205D02*
G01X0073256Y-030655D01*
G01X0073256Y-030205D02*
G01X0073256Y-030655D01*
G01X0073509Y-030205D02*
G01X0073466Y-030227D01*
G01X0073466Y-030227D02*
G01X0073423Y-030269D01*
G01X0073423Y-030269D02*
G01X0073402Y-030312D01*
G01X0073402Y-030312D02*
G01X0073380Y-030376D01*
G01X0073380Y-030376D02*
G01X0073380Y-030484D01*
G01X0073380Y-030484D02*
G01X0073402Y-030548D01*
G01X0073402Y-030548D02*
G01X0073423Y-030591D01*
G01X0073423Y-030591D02*
G01X0073466Y-030634D01*
G01X0073466Y-030634D02*
G01X0073509Y-030655D01*
G01X0073509Y-030655D02*
G01X0073594Y-030655D01*
G01X0073594Y-030655D02*
G01X0073637Y-030634D01*
G01X0073637Y-030634D02*
G01X0073680Y-030591D01*
G01X0073680Y-030591D02*
G01X0073702Y-030548D01*
G01X0073702Y-030548D02*
G01X0073723Y-030484D01*
G01X0073723Y-030484D02*
G01X0073723Y-030376D01*
G01X0073723Y-030376D02*
G01X0073702Y-030312D01*
G01X0073702Y-030312D02*
G01X0073680Y-030269D01*
G01X0073680Y-030269D02*
G01X0073637Y-030227D01*
G01X0073637Y-030227D02*
G01X0073594Y-030205D01*
G01X0073594Y-030205D02*
G01X0073509Y-030205D01*
G01X0073849Y-030612D02*
G01X0073828Y-030634D01*
G01X0073828Y-030634D02*
G01X0073849Y-030655D01*
G01X0073849Y-030655D02*
G01X0073871Y-030634D01*
G01X0073871Y-030634D02*
G01X0073849Y-030612D01*
G01X0073991Y-030355D02*
G01X0073969Y-030376D01*
G01X0073969Y-030376D02*
G01X0073991Y-030398D01*
G01X0073991Y-030398D02*
G01X0074012Y-030376D01*
G01X0074012Y-030376D02*
G01X0073991Y-030355D01*
G01X0073991Y-030612D02*
G01X0073969Y-030634D01*
G01X0073969Y-030634D02*
G01X0073991Y-030655D01*
G01X0073991Y-030655D02*
G01X0074012Y-030634D01*
G01X0074012Y-030634D02*
G01X0073991Y-030612D01*
G01X0062279Y-025580D02*
G01X0062000Y-025580D01*
G01X0062000Y-025580D02*
G01X0062000Y-026030D01*
G01X0062000Y-026030D02*
G01X0062279Y-026030D01*
G01X0062000Y-025794D02*
G01X0062171Y-025794D01*
G01X0062354Y-025580D02*
G01X0062354Y-026030D01*
G01X0062354Y-025580D02*
G01X0062653Y-026030D01*
G01X0062653Y-025580D02*
G01X0062653Y-026030D01*
G01X0063099Y-025687D02*
G01X0063078Y-025644D01*
G01X0063078Y-025644D02*
G01X0063035Y-025602D01*
G01X0063035Y-025602D02*
G01X0062992Y-025580D01*
G01X0062992Y-025580D02*
G01X0062906Y-025580D01*
G01X0062906Y-025580D02*
G01X0062863Y-025602D01*
G01X0062863Y-025602D02*
G01X0062821Y-025644D01*
G01X0062821Y-025644D02*
G01X0062799Y-025687D01*
G01X0062799Y-025687D02*
G01X0062778Y-025751D01*
G01X0062778Y-025751D02*
G01X0062778Y-025859D01*
G01X0062778Y-025859D02*
G01X0062799Y-025923D01*
G01X0062799Y-025923D02*
G01X0062821Y-025966D01*
G01X0062821Y-025966D02*
G01X0062863Y-026009D01*
G01X0062863Y-026009D02*
G01X0062906Y-026030D01*
G01X0062906Y-026030D02*
G01X0062992Y-026030D01*
G01X0062992Y-026030D02*
G01X0063035Y-026009D01*
G01X0063035Y-026009D02*
G01X0063078Y-025966D01*
G01X0063078Y-025966D02*
G01X0063099Y-025923D01*
G01X0063099Y-025923D02*
G01X0063099Y-025859D01*
G01X0062992Y-025859D02*
G01X0063099Y-025859D01*
G01X0063202Y-025580D02*
G01X0063202Y-026030D01*
G01X0063296Y-025580D02*
G01X0063296Y-026030D01*
G01X0063296Y-025580D02*
G01X0063596Y-026030D01*
G01X0063596Y-025580D02*
G01X0063596Y-026030D01*
G01X0063999Y-025580D02*
G01X0063720Y-025580D01*
G01X0063720Y-025580D02*
G01X0063720Y-026030D01*
G01X0063720Y-026030D02*
G01X0063999Y-026030D01*
G01X0063720Y-025794D02*
G01X0063892Y-025794D01*
G01X0064352Y-025580D02*
G01X0064074Y-025580D01*
G01X0064074Y-025580D02*
G01X0064074Y-026030D01*
G01X0064074Y-026030D02*
G01X0064352Y-026030D01*
G01X0064074Y-025794D02*
G01X0064245Y-025794D01*
G01X0064427Y-025580D02*
G01X0064427Y-026030D01*
G01X0064427Y-025580D02*
G01X0064620Y-025580D01*
G01X0064620Y-025580D02*
G01X0064684Y-025602D01*
G01X0064684Y-025602D02*
G01X0064706Y-025623D01*
G01X0064706Y-025623D02*
G01X0064727Y-025666D01*
G01X0064727Y-025666D02*
G01X0064727Y-025709D01*
G01X0064727Y-025709D02*
G01X0064706Y-025751D01*
G01X0064706Y-025751D02*
G01X0064684Y-025773D01*
G01X0064684Y-025773D02*
G01X0064620Y-025794D01*
G01X0064620Y-025794D02*
G01X0064427Y-025794D01*
G01X0064577Y-025794D02*
G01X0064727Y-026030D01*
G01X0064849Y-025730D02*
G01X0064828Y-025751D01*
G01X0064828Y-025751D02*
G01X0064849Y-025773D01*
G01X0064849Y-025773D02*
G01X0064871Y-025751D01*
G01X0064871Y-025751D02*
G01X0064849Y-025730D01*
G01X0064849Y-025987D02*
G01X0064828Y-026009D01*
G01X0064828Y-026009D02*
G01X0064849Y-026030D01*
G01X0064849Y-026030D02*
G01X0064871Y-026009D01*
G01X0064871Y-026009D02*
G01X0064849Y-025987D01*
G01X0080400Y-032980D02*
G01X0080400Y-033430D01*
G01X0080400Y-033430D02*
G01X0080657Y-033430D01*
G01X0081049Y-033430D02*
G01X0080878Y-032980D01*
G01X0080878Y-032980D02*
G01X0080706Y-033430D01*
G01X0080771Y-033280D02*
G01X0080985Y-033280D01*
G01X0081154Y-032980D02*
G01X0081326Y-033194D01*
G01X0081326Y-033194D02*
G01X0081326Y-033430D01*
G01X0081497Y-032980D02*
G01X0081326Y-033194D01*
G01X0081833Y-032980D02*
G01X0081555Y-032980D01*
G01X0081555Y-032980D02*
G01X0081555Y-033430D01*
G01X0081555Y-033430D02*
G01X0081833Y-033430D01*
G01X0081555Y-033194D02*
G01X0081726Y-033194D01*
G01X0081908Y-032980D02*
G01X0081908Y-033430D01*
G01X0081908Y-032980D02*
G01X0082101Y-032980D01*
G01X0082101Y-032980D02*
G01X0082165Y-033002D01*
G01X0082165Y-033002D02*
G01X0082187Y-033023D01*
G01X0082187Y-033023D02*
G01X0082208Y-033066D01*
G01X0082208Y-033066D02*
G01X0082208Y-033109D01*
G01X0082208Y-033109D02*
G01X0082187Y-033151D01*
G01X0082187Y-033151D02*
G01X0082165Y-033173D01*
G01X0082165Y-033173D02*
G01X0082101Y-033194D01*
G01X0082101Y-033194D02*
G01X0081908Y-033194D01*
G01X0082058Y-033194D02*
G01X0082208Y-033430D01*
G01X0082330Y-033130D02*
G01X0082309Y-033151D01*
G01X0082309Y-033151D02*
G01X0082330Y-033173D01*
G01X0082330Y-033173D02*
G01X0082352Y-033151D01*
G01X0082352Y-033151D02*
G01X0082330Y-033130D01*
G01X0082330Y-033387D02*
G01X0082309Y-033409D01*
G01X0082309Y-033409D02*
G01X0082330Y-033430D01*
G01X0082330Y-033430D02*
G01X0082352Y-033409D01*
G01X0082352Y-033409D02*
G01X0082330Y-033387D01*
G01X0088375Y-030205D02*
G01X0088375Y-030655D01*
G01X0088375Y-030205D02*
G01X0088568Y-030205D01*
G01X0088568Y-030205D02*
G01X0088632Y-030227D01*
G01X0088632Y-030227D02*
G01X0088654Y-030248D01*
G01X0088654Y-030248D02*
G01X0088675Y-030291D01*
G01X0088675Y-030291D02*
G01X0088675Y-030334D01*
G01X0088675Y-030334D02*
G01X0088654Y-030376D01*
G01X0088654Y-030376D02*
G01X0088632Y-030398D01*
G01X0088632Y-030398D02*
G01X0088568Y-030419D01*
G01X0088568Y-030419D02*
G01X0088375Y-030419D01*
G01X0088525Y-030419D02*
G01X0088675Y-030655D01*
G01X0089054Y-030205D02*
G01X0088776Y-030205D01*
G01X0088776Y-030205D02*
G01X0088776Y-030655D01*
G01X0088776Y-030655D02*
G01X0089054Y-030655D01*
G01X0088776Y-030419D02*
G01X0088947Y-030419D01*
G01X0089129Y-030205D02*
G01X0089301Y-030655D01*
G01X0089472Y-030205D02*
G01X0089301Y-030655D01*
G01X0089551Y-030355D02*
G01X0089530Y-030376D01*
G01X0089530Y-030376D02*
G01X0089551Y-030398D01*
G01X0089551Y-030398D02*
G01X0089573Y-030376D01*
G01X0089573Y-030376D02*
G01X0089551Y-030355D01*
G01X0089551Y-030612D02*
G01X0089530Y-030634D01*
G01X0089530Y-030634D02*
G01X0089551Y-030655D01*
G01X0089551Y-030655D02*
G01X0089573Y-030634D01*
G01X0089573Y-030634D02*
G01X0089551Y-030612D01*
G01X0093000Y-030205D02*
G01X0093000Y-030655D01*
G01X0093000Y-030205D02*
G01X0093150Y-030205D01*
G01X0093150Y-030205D02*
G01X0093214Y-030227D01*
G01X0093214Y-030227D02*
G01X0093257Y-030269D01*
G01X0093257Y-030269D02*
G01X0093279Y-030312D01*
G01X0093279Y-030312D02*
G01X0093300Y-030376D01*
G01X0093300Y-030376D02*
G01X0093300Y-030484D01*
G01X0093300Y-030484D02*
G01X0093279Y-030548D01*
G01X0093279Y-030548D02*
G01X0093257Y-030591D01*
G01X0093257Y-030591D02*
G01X0093214Y-030634D01*
G01X0093214Y-030634D02*
G01X0093150Y-030655D01*
G01X0093150Y-030655D02*
G01X0093000Y-030655D01*
G01X0093743Y-030655D02*
G01X0093572Y-030205D01*
G01X0093572Y-030205D02*
G01X0093401Y-030655D01*
G01X0093465Y-030505D02*
G01X0093679Y-030505D01*
G01X0093998Y-030205D02*
G01X0093998Y-030655D01*
G01X0093848Y-030205D02*
G01X0094148Y-030205D01*
G01X0094480Y-030205D02*
G01X0094202Y-030205D01*
G01X0094202Y-030205D02*
G01X0094202Y-030655D01*
G01X0094202Y-030655D02*
G01X0094480Y-030655D01*
G01X0094202Y-030419D02*
G01X0094373Y-030419D01*
G01X0094577Y-030355D02*
G01X0094555Y-030376D01*
G01X0094555Y-030376D02*
G01X0094577Y-030398D01*
G01X0094577Y-030398D02*
G01X0094598Y-030376D01*
G01X0094598Y-030376D02*
G01X0094577Y-030355D01*
G01X0094577Y-030612D02*
G01X0094555Y-030634D01*
G01X0094555Y-030634D02*
G01X0094577Y-030655D01*
G01X0094577Y-030655D02*
G01X0094598Y-030634D01*
G01X0094598Y-030634D02*
G01X0094577Y-030612D01*
G01X0062300Y-029444D02*
G01X0062257Y-029402D01*
G01X0062257Y-029402D02*
G01X0062193Y-029380D01*
G01X0062193Y-029380D02*
G01X0062107Y-029380D01*
G01X0062107Y-029380D02*
G01X0062043Y-029402D01*
G01X0062043Y-029402D02*
G01X0062000Y-029444D01*
G01X0062000Y-029444D02*
G01X0062000Y-029487D01*
G01X0062000Y-029487D02*
G01X0062021Y-029530D01*
G01X0062021Y-029530D02*
G01X0062043Y-029551D01*
G01X0062043Y-029551D02*
G01X0062086Y-029573D01*
G01X0062086Y-029573D02*
G01X0062214Y-029616D01*
G01X0062214Y-029616D02*
G01X0062257Y-029637D01*
G01X0062257Y-029637D02*
G01X0062279Y-029659D01*
G01X0062279Y-029659D02*
G01X0062300Y-029701D01*
G01X0062300Y-029701D02*
G01X0062300Y-029766D01*
G01X0062300Y-029766D02*
G01X0062257Y-029809D01*
G01X0062257Y-029809D02*
G01X0062193Y-029830D01*
G01X0062193Y-029830D02*
G01X0062107Y-029830D01*
G01X0062107Y-029830D02*
G01X0062043Y-029809D01*
G01X0062043Y-029809D02*
G01X0062000Y-029766D01*
G01X0062658Y-029594D02*
G01X0062615Y-029551D01*
G01X0062615Y-029551D02*
G01X0062572Y-029530D01*
G01X0062572Y-029530D02*
G01X0062508Y-029530D01*
G01X0062508Y-029530D02*
G01X0062465Y-029551D01*
G01X0062465Y-029551D02*
G01X0062422Y-029594D01*
G01X0062422Y-029594D02*
G01X0062401Y-029659D01*
G01X0062401Y-029659D02*
G01X0062401Y-029701D01*
G01X0062401Y-029701D02*
G01X0062422Y-029766D01*
G01X0062422Y-029766D02*
G01X0062465Y-029809D01*
G01X0062465Y-029809D02*
G01X0062508Y-029830D01*
G01X0062508Y-029830D02*
G01X0062572Y-029830D01*
G01X0062572Y-029830D02*
G01X0062615Y-029809D01*
G01X0062615Y-029809D02*
G01X0062658Y-029766D01*
G01X0063011Y-029530D02*
G01X0063011Y-029830D01*
G01X0063011Y-029594D02*
G01X0062968Y-029551D01*
G01X0062968Y-029551D02*
G01X0062926Y-029530D01*
G01X0062926Y-029530D02*
G01X0062861Y-029530D01*
G01X0062861Y-029530D02*
G01X0062818Y-029551D01*
G01X0062818Y-029551D02*
G01X0062776Y-029594D01*
G01X0062776Y-029594D02*
G01X0062754Y-029659D01*
G01X0062754Y-029659D02*
G01X0062754Y-029701D01*
G01X0062754Y-029701D02*
G01X0062776Y-029766D01*
G01X0062776Y-029766D02*
G01X0062818Y-029809D01*
G01X0062818Y-029809D02*
G01X0062861Y-029830D01*
G01X0062861Y-029830D02*
G01X0062926Y-029830D01*
G01X0062926Y-029830D02*
G01X0062968Y-029809D01*
G01X0062968Y-029809D02*
G01X0063011Y-029766D01*
G01X0063131Y-029380D02*
G01X0063131Y-029830D01*
G01X0063225Y-029659D02*
G01X0063483Y-029659D01*
G01X0063483Y-029659D02*
G01X0063483Y-029616D01*
G01X0063483Y-029616D02*
G01X0063461Y-029573D01*
G01X0063461Y-029573D02*
G01X0063440Y-029551D01*
G01X0063440Y-029551D02*
G01X0063397Y-029530D01*
G01X0063397Y-029530D02*
G01X0063333Y-029530D01*
G01X0063333Y-029530D02*
G01X0063290Y-029551D01*
G01X0063290Y-029551D02*
G01X0063247Y-029594D01*
G01X0063247Y-029594D02*
G01X0063225Y-029659D01*
G01X0063225Y-029659D02*
G01X0063225Y-029701D01*
G01X0063225Y-029701D02*
G01X0063247Y-029766D01*
G01X0063247Y-029766D02*
G01X0063290Y-029809D01*
G01X0063290Y-029809D02*
G01X0063333Y-029830D01*
G01X0063333Y-029830D02*
G01X0063397Y-029830D01*
G01X0063397Y-029830D02*
G01X0063440Y-029809D01*
G01X0063440Y-029809D02*
G01X0063483Y-029766D01*
G01X0063600Y-029530D02*
G01X0063579Y-029551D01*
G01X0063579Y-029551D02*
G01X0063600Y-029573D01*
G01X0063600Y-029573D02*
G01X0063622Y-029551D01*
G01X0063622Y-029551D02*
G01X0063600Y-029530D01*
G01X0063600Y-029787D02*
G01X0063579Y-029809D01*
G01X0063579Y-029809D02*
G01X0063600Y-029830D01*
G01X0063600Y-029830D02*
G01X0063622Y-029809D01*
G01X0063622Y-029809D02*
G01X0063600Y-029787D01*
G54D14*
G01X0083067Y-033200D02*
G01X0083067Y-034000D01*
G01X0082800Y-033200D02*
G01X0083333Y-033200D01*
G01X0083619Y-033467D02*
G01X0083543Y-033505D01*
G01X0083543Y-033505D02*
G01X0083467Y-033581D01*
G01X0083467Y-033581D02*
G01X0083428Y-033695D01*
G01X0083428Y-033695D02*
G01X0083428Y-033771D01*
G01X0083428Y-033771D02*
G01X0083467Y-033886D01*
G01X0083467Y-033886D02*
G01X0083543Y-033962D01*
G01X0083543Y-033962D02*
G01X0083619Y-034000D01*
G01X0083619Y-034000D02*
G01X0083733Y-034000D01*
G01X0083733Y-034000D02*
G01X0083809Y-033962D01*
G01X0083809Y-033962D02*
G01X0083885Y-033886D01*
G01X0083885Y-033886D02*
G01X0083924Y-033771D01*
G01X0083924Y-033771D02*
G01X0083924Y-033695D01*
G01X0083924Y-033695D02*
G01X0083885Y-033581D01*
G01X0083885Y-033581D02*
G01X0083809Y-033505D01*
G01X0083809Y-033505D02*
G01X0083733Y-033467D01*
G01X0083733Y-033467D02*
G01X0083619Y-033467D01*
G01X0084099Y-033467D02*
G01X0084099Y-034267D01*
G01X0084099Y-033581D02*
G01X0084175Y-033505D01*
G01X0084175Y-033505D02*
G01X0084251Y-033467D01*
G01X0084251Y-033467D02*
G01X0084365Y-033467D01*
G01X0084365Y-033467D02*
G01X0084442Y-033505D01*
G01X0084442Y-033505D02*
G01X0084518Y-033581D01*
G01X0084518Y-033581D02*
G01X0084556Y-033695D01*
G01X0084556Y-033695D02*
G01X0084556Y-033771D01*
G01X0084556Y-033771D02*
G01X0084518Y-033886D01*
G01X0084518Y-033886D02*
G01X0084442Y-033962D01*
G01X0084442Y-033962D02*
G01X0084365Y-034000D01*
G01X0084365Y-034000D02*
G01X0084251Y-034000D01*
G01X0084251Y-034000D02*
G01X0084175Y-033962D01*
G01X0084175Y-033962D02*
G01X0084099Y-033886D01*
G01X0085889Y-033314D02*
G01X0085813Y-033238D01*
G01X0085813Y-033238D02*
G01X0085698Y-033200D01*
G01X0085698Y-033200D02*
G01X0085546Y-033200D01*
G01X0085546Y-033200D02*
G01X0085432Y-033238D01*
G01X0085432Y-033238D02*
G01X0085356Y-033314D01*
G01X0085356Y-033314D02*
G01X0085356Y-033391D01*
G01X0085356Y-033391D02*
G01X0085394Y-033467D01*
G01X0085394Y-033467D02*
G01X0085432Y-033505D01*
G01X0085432Y-033505D02*
G01X0085508Y-033543D01*
G01X0085508Y-033543D02*
G01X0085737Y-033619D01*
G01X0085737Y-033619D02*
G01X0085813Y-033657D01*
G01X0085813Y-033657D02*
G01X0085851Y-033695D01*
G01X0085851Y-033695D02*
G01X0085889Y-033771D01*
G01X0085889Y-033771D02*
G01X0085889Y-033886D01*
G01X0085889Y-033886D02*
G01X0085813Y-033962D01*
G01X0085813Y-033962D02*
G01X0085698Y-034000D01*
G01X0085698Y-034000D02*
G01X0085546Y-034000D01*
G01X0085546Y-034000D02*
G01X0085432Y-033962D01*
G01X0085432Y-033962D02*
G01X0085356Y-033886D01*
G01X0086258Y-033467D02*
G01X0086182Y-033505D01*
G01X0086182Y-033505D02*
G01X0086106Y-033581D01*
G01X0086106Y-033581D02*
G01X0086068Y-033695D01*
G01X0086068Y-033695D02*
G01X0086068Y-033771D01*
G01X0086068Y-033771D02*
G01X0086106Y-033886D01*
G01X0086106Y-033886D02*
G01X0086182Y-033962D01*
G01X0086182Y-033962D02*
G01X0086258Y-034000D01*
G01X0086258Y-034000D02*
G01X0086373Y-034000D01*
G01X0086373Y-034000D02*
G01X0086449Y-033962D01*
G01X0086449Y-033962D02*
G01X0086525Y-033886D01*
G01X0086525Y-033886D02*
G01X0086563Y-033771D01*
G01X0086563Y-033771D02*
G01X0086563Y-033695D01*
G01X0086563Y-033695D02*
G01X0086525Y-033581D01*
G01X0086525Y-033581D02*
G01X0086449Y-033505D01*
G01X0086449Y-033505D02*
G01X0086373Y-033467D01*
G01X0086373Y-033467D02*
G01X0086258Y-033467D01*
G01X0086738Y-033200D02*
G01X0086738Y-034000D01*
G01X0087363Y-033200D02*
G01X0087363Y-034000D01*
G01X0087363Y-033581D02*
G01X0087287Y-033505D01*
G01X0087287Y-033505D02*
G01X0087210Y-033467D01*
G01X0087210Y-033467D02*
G01X0087096Y-033467D01*
G01X0087096Y-033467D02*
G01X0087020Y-033505D01*
G01X0087020Y-033505D02*
G01X0086944Y-033581D01*
G01X0086944Y-033581D02*
G01X0086906Y-033695D01*
G01X0086906Y-033695D02*
G01X0086906Y-033771D01*
G01X0086906Y-033771D02*
G01X0086944Y-033886D01*
G01X0086944Y-033886D02*
G01X0087020Y-033962D01*
G01X0087020Y-033962D02*
G01X0087096Y-034000D01*
G01X0087096Y-034000D02*
G01X0087210Y-034000D01*
G01X0087210Y-034000D02*
G01X0087287Y-033962D01*
G01X0087287Y-033962D02*
G01X0087363Y-033886D01*
G01X0087576Y-033695D02*
G01X0088033Y-033695D01*
G01X0088033Y-033695D02*
G01X0088033Y-033619D01*
G01X0088033Y-033619D02*
G01X0087995Y-033543D01*
G01X0087995Y-033543D02*
G01X0087957Y-033505D01*
G01X0087957Y-033505D02*
G01X0087881Y-033467D01*
G01X0087881Y-033467D02*
G01X0087767Y-033467D01*
G01X0087767Y-033467D02*
G01X0087690Y-033505D01*
G01X0087690Y-033505D02*
G01X0087614Y-033581D01*
G01X0087614Y-033581D02*
G01X0087576Y-033695D01*
G01X0087576Y-033695D02*
G01X0087576Y-033771D01*
G01X0087576Y-033771D02*
G01X0087614Y-033886D01*
G01X0087614Y-033886D02*
G01X0087690Y-033962D01*
G01X0087690Y-033962D02*
G01X0087767Y-034000D01*
G01X0087767Y-034000D02*
G01X0087881Y-034000D01*
G01X0087881Y-034000D02*
G01X0087957Y-033962D01*
G01X0087957Y-033962D02*
G01X0088033Y-033886D01*
G01X0088205Y-033467D02*
G01X0088205Y-034000D01*
G01X0088205Y-033695D02*
G01X0088243Y-033581D01*
G01X0088243Y-033581D02*
G01X0088319Y-033505D01*
G01X0088319Y-033505D02*
G01X0088395Y-033467D01*
G01X0088395Y-033467D02*
G01X0088509Y-033467D01*
G01X0101243Y-033914D02*
G01X0101200Y-033957D01*
G01X0101200Y-033957D02*
G01X0101243Y-034000D01*
G01X0101243Y-034000D02*
G01X0101286Y-033957D01*
G01X0101286Y-033957D02*
G01X0101243Y-033914D01*
G01X0102126Y-033314D02*
G01X0102083Y-033229D01*
G01X0102083Y-033229D02*
G01X0101997Y-033143D01*
G01X0101997Y-033143D02*
G01X0101911Y-033100D01*
G01X0101911Y-033100D02*
G01X0101740Y-033100D01*
G01X0101740Y-033100D02*
G01X0101654Y-033143D01*
G01X0101654Y-033143D02*
G01X0101568Y-033229D01*
G01X0101568Y-033229D02*
G01X0101526Y-033314D01*
G01X0101526Y-033314D02*
G01X0101483Y-033443D01*
G01X0101483Y-033443D02*
G01X0101483Y-033657D01*
G01X0101483Y-033657D02*
G01X0101526Y-033786D01*
G01X0101526Y-033786D02*
G01X0101568Y-033871D01*
G01X0101568Y-033871D02*
G01X0101654Y-033957D01*
G01X0101654Y-033957D02*
G01X0101740Y-034000D01*
G01X0101740Y-034000D02*
G01X0101911Y-034000D01*
G01X0101911Y-034000D02*
G01X0101997Y-033957D01*
G01X0101997Y-033957D02*
G01X0102083Y-033871D01*
G01X0102083Y-033871D02*
G01X0102126Y-033786D01*
G01X0102126Y-033786D02*
G01X0102126Y-033657D01*
G01X0101911Y-033657D02*
G01X0102126Y-033657D01*
G01X0102631Y-033100D02*
G01X0102631Y-034000D01*
G01X0102331Y-033100D02*
G01X0102931Y-033100D01*
G01X0103638Y-033229D02*
G01X0103552Y-033143D01*
G01X0103552Y-033143D02*
G01X0103424Y-033100D01*
G01X0103424Y-033100D02*
G01X0103252Y-033100D01*
G01X0103252Y-033100D02*
G01X0103124Y-033143D01*
G01X0103124Y-033143D02*
G01X0103038Y-033229D01*
G01X0103038Y-033229D02*
G01X0103038Y-033314D01*
G01X0103038Y-033314D02*
G01X0103081Y-033400D01*
G01X0103081Y-033400D02*
G01X0103124Y-033443D01*
G01X0103124Y-033443D02*
G01X0103210Y-033486D01*
G01X0103210Y-033486D02*
G01X0103467Y-033572D01*
G01X0103467Y-033572D02*
G01X0103552Y-033614D01*
G01X0103552Y-033614D02*
G01X0103595Y-033657D01*
G01X0103595Y-033657D02*
G01X0103638Y-033743D01*
G01X0103638Y-033743D02*
G01X0103638Y-033871D01*
G01X0103638Y-033871D02*
G01X0103552Y-033957D01*
G01X0103552Y-033957D02*
G01X0103424Y-034000D01*
G01X0103424Y-034000D02*
G01X0103252Y-034000D01*
G01X0103252Y-034000D02*
G01X0103124Y-033957D01*
G01X0103124Y-033957D02*
G01X0103038Y-033871D01*
G01X-010114Y-015500D02*
G01X-010114Y-016271D01*
G01X-009772Y-016537D02*
G01X-009729Y-016623D01*
G01X-009729Y-016623D02*
G01X-009600Y-016751D01*
G01X-009600Y-016751D02*
G01X-010500Y-016751D01*
G01X-010414Y-017240D02*
G01X-010457Y-017197D01*
G01X-010457Y-017197D02*
G01X-010500Y-017240D01*
G01X-010500Y-017240D02*
G01X-010457Y-017282D01*
G01X-010457Y-017282D02*
G01X-010414Y-017240D01*
G01X-009600Y-017737D02*
G01X-009643Y-017608D01*
G01X-009643Y-017608D02*
G01X-009772Y-017522D01*
G01X-009772Y-017522D02*
G01X-009986Y-017480D01*
G01X-009986Y-017480D02*
G01X-010114Y-017480D01*
G01X-010114Y-017480D02*
G01X-010329Y-017522D01*
G01X-010329Y-017522D02*
G01X-010457Y-017608D01*
G01X-010457Y-017608D02*
G01X-010500Y-017737D01*
G01X-010500Y-017737D02*
G01X-010500Y-017822D01*
G01X-010500Y-017822D02*
G01X-010457Y-017951D01*
G01X-010457Y-017951D02*
G01X-010329Y-018037D01*
G01X-010329Y-018037D02*
G01X-010114Y-018079D01*
G01X-010114Y-018079D02*
G01X-009986Y-018079D01*
G01X-009986Y-018079D02*
G01X-009772Y-018037D01*
G01X-009772Y-018037D02*
G01X-009643Y-017951D01*
G01X-009643Y-017951D02*
G01X-009600Y-017822D01*
G01X-009600Y-017822D02*
G01X-009600Y-017737D01*
G01X-018050Y-010113D02*
G01X-017279Y-010113D01*
G01X-017013Y-009770D02*
G01X-016927Y-009727D01*
G01X-016927Y-009727D02*
G01X-016799Y-009599D01*
G01X-016799Y-009599D02*
G01X-016799Y-010498D01*
G01X-016310Y-010413D02*
G01X-016353Y-010456D01*
G01X-016353Y-010456D02*
G01X-016310Y-010498D01*
G01X-016310Y-010498D02*
G01X-016268Y-010456D01*
G01X-016268Y-010456D02*
G01X-016310Y-010413D01*
G01X-015813Y-009599D02*
G01X-015942Y-009641D01*
G01X-015942Y-009641D02*
G01X-016028Y-009770D01*
G01X-016028Y-009770D02*
G01X-016070Y-009984D01*
G01X-016070Y-009984D02*
G01X-016070Y-010113D01*
G01X-016070Y-010113D02*
G01X-016028Y-010327D01*
G01X-016028Y-010327D02*
G01X-015942Y-010456D01*
G01X-015942Y-010456D02*
G01X-015813Y-010498D01*
G01X-015813Y-010498D02*
G01X-015728Y-010498D01*
G01X-015728Y-010498D02*
G01X-015599Y-010456D01*
G01X-015599Y-010456D02*
G01X-015513Y-010327D01*
G01X-015513Y-010327D02*
G01X-015471Y-010113D01*
G01X-015471Y-010113D02*
G01X-015471Y-009984D01*
G01X-015471Y-009984D02*
G01X-015513Y-009770D01*
G01X-015513Y-009770D02*
G01X-015599Y-009641D01*
G01X-015599Y-009641D02*
G01X-015728Y-009599D01*
G01X-015728Y-009599D02*
G01X-015813Y-009599D01*
G01X-016893Y0000401D02*
G01X-017021Y0000359D01*
G01X-017021Y0000359D02*
G01X-017107Y0000230D01*
G01X-017107Y0000230D02*
G01X-017150Y0000016D01*
G01X-017150Y0000016D02*
G01X-017150Y-000113D01*
G01X-017150Y-000113D02*
G01X-017107Y-000327D01*
G01X-017107Y-000327D02*
G01X-017021Y-000456D01*
G01X-017021Y-000456D02*
G01X-016893Y-000498D01*
G01X-016893Y-000498D02*
G01X-016807Y-000498D01*
G01X-016807Y-000498D02*
G01X-016679Y-000456D01*
G01X-016679Y-000456D02*
G01X-016593Y-000327D01*
G01X-016593Y-000327D02*
G01X-016550Y-000113D01*
G01X-016550Y-000113D02*
G01X-016550Y0000016D01*
G01X-016550Y0000016D02*
G01X-016593Y0000230D01*
G01X-016593Y0000230D02*
G01X-016679Y0000359D01*
G01X-016679Y0000359D02*
G01X-016807Y0000401D01*
G01X-016807Y0000401D02*
G01X-016893Y0000401D01*
G01X-016306Y-000413D02*
G01X-016349Y-000456D01*
G01X-016349Y-000456D02*
G01X-016306Y-000498D01*
G01X-016306Y-000498D02*
G01X-016263Y-000456D01*
G01X-016263Y-000456D02*
G01X-016306Y-000413D01*
G01X-015809Y0000401D02*
G01X-015937Y0000359D01*
G01X-015937Y0000359D02*
G01X-016023Y0000230D01*
G01X-016023Y0000230D02*
G01X-016066Y0000016D01*
G01X-016066Y0000016D02*
G01X-016066Y-000113D01*
G01X-016066Y-000113D02*
G01X-016023Y-000327D01*
G01X-016023Y-000327D02*
G01X-015937Y-000456D01*
G01X-015937Y-000456D02*
G01X-015809Y-000498D01*
G01X-015809Y-000498D02*
G01X-015723Y-000498D01*
G01X-015723Y-000498D02*
G01X-015595Y-000456D01*
G01X-015595Y-000456D02*
G01X-015509Y-000327D01*
G01X-015509Y-000327D02*
G01X-015466Y-000113D01*
G01X-015466Y-000113D02*
G01X-015466Y0000016D01*
G01X-015466Y0000016D02*
G01X-015509Y0000230D01*
G01X-015509Y0000230D02*
G01X-015595Y0000359D01*
G01X-015595Y0000359D02*
G01X-015723Y0000401D01*
G01X-015723Y0000401D02*
G01X-015809Y0000401D01*
G01X0000400Y-015757D02*
G01X0000357Y-015629D01*
G01X0000357Y-015629D02*
G01X0000228Y-015543D01*
G01X0000228Y-015543D02*
G01X0000014Y-015500D01*
G01X0000014Y-015500D02*
G01X-000114Y-015500D01*
G01X-000114Y-015500D02*
G01X-000329Y-015543D01*
G01X-000329Y-015543D02*
G01X-000457Y-015629D01*
G01X-000457Y-015629D02*
G01X-000500Y-015757D01*
G01X-000500Y-015757D02*
G01X-000500Y-015843D01*
G01X-000500Y-015843D02*
G01X-000457Y-015971D01*
G01X-000457Y-015971D02*
G01X-000329Y-016057D01*
G01X-000329Y-016057D02*
G01X-000114Y-016100D01*
G01X-000114Y-016100D02*
G01X0000014Y-016100D01*
G01X0000014Y-016100D02*
G01X0000228Y-016057D01*
G01X0000228Y-016057D02*
G01X0000357Y-015971D01*
G01X0000357Y-015971D02*
G01X0000400Y-015843D01*
G01X0000400Y-015843D02*
G01X0000400Y-015757D01*
G01X-000414Y-016344D02*
G01X-000457Y-016301D01*
G01X-000457Y-016301D02*
G01X-000500Y-016344D01*
G01X-000500Y-016344D02*
G01X-000457Y-016387D01*
G01X-000457Y-016387D02*
G01X-000414Y-016344D01*
G01X0000400Y-016841D02*
G01X0000357Y-016713D01*
G01X0000357Y-016713D02*
G01X0000228Y-016627D01*
G01X0000228Y-016627D02*
G01X0000014Y-016584D01*
G01X0000014Y-016584D02*
G01X-000114Y-016584D01*
G01X-000114Y-016584D02*
G01X-000329Y-016627D01*
G01X-000329Y-016627D02*
G01X-000457Y-016713D01*
G01X-000457Y-016713D02*
G01X-000500Y-016841D01*
G01X-000500Y-016841D02*
G01X-000500Y-016927D01*
G01X-000500Y-016927D02*
G01X-000457Y-017055D01*
G01X-000457Y-017055D02*
G01X-000329Y-017141D01*
G01X-000329Y-017141D02*
G01X-000114Y-017184D01*
G01X-000114Y-017184D02*
G01X0000014Y-017184D01*
G01X0000014Y-017184D02*
G01X0000228Y-017141D01*
G01X0000228Y-017141D02*
G01X0000357Y-017055D01*
G01X0000357Y-017055D02*
G01X0000400Y-016927D01*
G01X0000400Y-016927D02*
G01X0000400Y-016841D01*
G01X0100228Y-015500D02*
G01X0100271Y-015586D01*
G01X0100271Y-015586D02*
G01X0100400Y-015714D01*
G01X0100400Y-015714D02*
G01X0099500Y-015714D01*
G01X0100400Y-016417D02*
G01X0100357Y-016288D01*
G01X0100357Y-016288D02*
G01X0100228Y-016203D01*
G01X0100228Y-016203D02*
G01X0100014Y-016160D01*
G01X0100014Y-016160D02*
G01X0099886Y-016160D01*
G01X0099886Y-016160D02*
G01X0099671Y-016203D01*
G01X0099671Y-016203D02*
G01X0099543Y-016288D01*
G01X0099543Y-016288D02*
G01X0099500Y-016417D01*
G01X0099500Y-016417D02*
G01X0099500Y-016503D01*
G01X0099500Y-016503D02*
G01X0099543Y-016631D01*
G01X0099543Y-016631D02*
G01X0099671Y-016717D01*
G01X0099671Y-016717D02*
G01X0099886Y-016760D01*
G01X0099886Y-016760D02*
G01X0100014Y-016760D01*
G01X0100014Y-016760D02*
G01X0100228Y-016717D01*
G01X0100228Y-016717D02*
G01X0100357Y-016631D01*
G01X0100357Y-016631D02*
G01X0100400Y-016503D01*
G01X0100400Y-016503D02*
G01X0100400Y-016417D01*
G01X0099586Y-017004D02*
G01X0099543Y-016961D01*
G01X0099543Y-016961D02*
G01X0099500Y-017004D01*
G01X0099500Y-017004D02*
G01X0099543Y-017047D01*
G01X0099543Y-017047D02*
G01X0099586Y-017004D01*
G01X0100400Y-017501D02*
G01X0100357Y-017372D01*
G01X0100357Y-017372D02*
G01X0100228Y-017287D01*
G01X0100228Y-017287D02*
G01X0100014Y-017244D01*
G01X0100014Y-017244D02*
G01X0099886Y-017244D01*
G01X0099886Y-017244D02*
G01X0099671Y-017287D01*
G01X0099671Y-017287D02*
G01X0099543Y-017372D01*
G01X0099543Y-017372D02*
G01X0099500Y-017501D01*
G01X0099500Y-017501D02*
G01X0099500Y-017587D01*
G01X0099500Y-017587D02*
G01X0099543Y-017715D01*
G01X0099543Y-017715D02*
G01X0099671Y-017801D01*
G01X0099671Y-017801D02*
G01X0099886Y-017844D01*
G01X0099886Y-017844D02*
G01X0100014Y-017844D01*
G01X0100014Y-017844D02*
G01X0100228Y-017801D01*
G01X0100228Y-017801D02*
G01X0100357Y-017715D01*
G01X0100357Y-017715D02*
G01X0100400Y-017587D01*
G01X0100400Y-017587D02*
G01X0100400Y-017501D01*
G01X0090100Y-016057D02*
G01X0089971Y-016014D01*
G01X0089971Y-016014D02*
G01X0089886Y-015928D01*
G01X0089886Y-015928D02*
G01X0089843Y-015800D01*
G01X0089843Y-015800D02*
G01X0089843Y-015757D01*
G01X0089843Y-015757D02*
G01X0089886Y-015629D01*
G01X0089886Y-015629D02*
G01X0089971Y-015543D01*
G01X0089971Y-015543D02*
G01X0090100Y-015500D01*
G01X0090100Y-015500D02*
G01X0090143Y-015500D01*
G01X0090143Y-015500D02*
G01X0090271Y-015543D01*
G01X0090271Y-015543D02*
G01X0090357Y-015629D01*
G01X0090357Y-015629D02*
G01X0090400Y-015757D01*
G01X0090400Y-015757D02*
G01X0090400Y-015800D01*
G01X0090400Y-015800D02*
G01X0090357Y-015928D01*
G01X0090357Y-015928D02*
G01X0090271Y-016014D01*
G01X0090271Y-016014D02*
G01X0090100Y-016057D01*
G01X0090100Y-016057D02*
G01X0089886Y-016057D01*
G01X0089886Y-016057D02*
G01X0089671Y-016014D01*
G01X0089671Y-016014D02*
G01X0089543Y-015928D01*
G01X0089543Y-015928D02*
G01X0089500Y-015800D01*
G01X0089500Y-015800D02*
G01X0089500Y-015714D01*
G01X0089500Y-015714D02*
G01X0089543Y-015586D01*
G01X0089543Y-015586D02*
G01X0089629Y-015543D01*
G01X0089586Y-016344D02*
G01X0089543Y-016301D01*
G01X0089543Y-016301D02*
G01X0089500Y-016344D01*
G01X0089500Y-016344D02*
G01X0089543Y-016387D01*
G01X0089543Y-016387D02*
G01X0089586Y-016344D01*
G01X0090400Y-016841D02*
G01X0090357Y-016713D01*
G01X0090357Y-016713D02*
G01X0090228Y-016627D01*
G01X0090228Y-016627D02*
G01X0090014Y-016584D01*
G01X0090014Y-016584D02*
G01X0089886Y-016584D01*
G01X0089886Y-016584D02*
G01X0089671Y-016627D01*
G01X0089671Y-016627D02*
G01X0089543Y-016713D01*
G01X0089543Y-016713D02*
G01X0089500Y-016841D01*
G01X0089500Y-016841D02*
G01X0089500Y-016927D01*
G01X0089500Y-016927D02*
G01X0089543Y-017055D01*
G01X0089543Y-017055D02*
G01X0089671Y-017141D01*
G01X0089671Y-017141D02*
G01X0089886Y-017184D01*
G01X0089886Y-017184D02*
G01X0090014Y-017184D01*
G01X0090014Y-017184D02*
G01X0090228Y-017141D01*
G01X0090228Y-017141D02*
G01X0090357Y-017055D01*
G01X0090357Y-017055D02*
G01X0090400Y-016927D01*
G01X0090400Y-016927D02*
G01X0090400Y-016841D01*
G01X0080400Y-015714D02*
G01X0080357Y-015586D01*
G01X0080357Y-015586D02*
G01X0080271Y-015543D01*
G01X0080271Y-015543D02*
G01X0080186Y-015543D01*
G01X0080186Y-015543D02*
G01X0080100Y-015586D01*
G01X0080100Y-015586D02*
G01X0080057Y-015671D01*
G01X0080057Y-015671D02*
G01X0080014Y-015843D01*
G01X0080014Y-015843D02*
G01X0079971Y-015971D01*
G01X0079971Y-015971D02*
G01X0079886Y-016057D01*
G01X0079886Y-016057D02*
G01X0079800Y-016100D01*
G01X0079800Y-016100D02*
G01X0079671Y-016100D01*
G01X0079671Y-016100D02*
G01X0079586Y-016057D01*
G01X0079586Y-016057D02*
G01X0079543Y-016014D01*
G01X0079543Y-016014D02*
G01X0079500Y-015886D01*
G01X0079500Y-015886D02*
G01X0079500Y-015714D01*
G01X0079500Y-015714D02*
G01X0079543Y-015586D01*
G01X0079543Y-015586D02*
G01X0079586Y-015543D01*
G01X0079586Y-015543D02*
G01X0079671Y-015500D01*
G01X0079671Y-015500D02*
G01X0079800Y-015500D01*
G01X0079800Y-015500D02*
G01X0079886Y-015543D01*
G01X0079886Y-015543D02*
G01X0079971Y-015629D01*
G01X0079971Y-015629D02*
G01X0080014Y-015757D01*
G01X0080014Y-015757D02*
G01X0080057Y-015928D01*
G01X0080057Y-015928D02*
G01X0080100Y-016014D01*
G01X0080100Y-016014D02*
G01X0080186Y-016057D01*
G01X0080186Y-016057D02*
G01X0080271Y-016057D01*
G01X0080271Y-016057D02*
G01X0080357Y-016014D01*
G01X0080357Y-016014D02*
G01X0080400Y-015886D01*
G01X0080400Y-015886D02*
G01X0080400Y-015714D01*
G01X0079586Y-016344D02*
G01X0079543Y-016301D01*
G01X0079543Y-016301D02*
G01X0079500Y-016344D01*
G01X0079500Y-016344D02*
G01X0079543Y-016387D01*
G01X0079543Y-016387D02*
G01X0079586Y-016344D01*
G01X0080400Y-016841D02*
G01X0080357Y-016713D01*
G01X0080357Y-016713D02*
G01X0080228Y-016627D01*
G01X0080228Y-016627D02*
G01X0080014Y-016584D01*
G01X0080014Y-016584D02*
G01X0079886Y-016584D01*
G01X0079886Y-016584D02*
G01X0079671Y-016627D01*
G01X0079671Y-016627D02*
G01X0079543Y-016713D01*
G01X0079543Y-016713D02*
G01X0079500Y-016841D01*
G01X0079500Y-016841D02*
G01X0079500Y-016927D01*
G01X0079500Y-016927D02*
G01X0079543Y-017055D01*
G01X0079543Y-017055D02*
G01X0079671Y-017141D01*
G01X0079671Y-017141D02*
G01X0079886Y-017184D01*
G01X0079886Y-017184D02*
G01X0080014Y-017184D01*
G01X0080014Y-017184D02*
G01X0080228Y-017141D01*
G01X0080228Y-017141D02*
G01X0080357Y-017055D01*
G01X0080357Y-017055D02*
G01X0080400Y-016927D01*
G01X0080400Y-016927D02*
G01X0080400Y-016841D01*
G01X0070400Y-016100D02*
G01X0069500Y-015671D01*
G01X0070400Y-015500D02*
G01X0070400Y-016100D01*
G01X0069586Y-016344D02*
G01X0069543Y-016301D01*
G01X0069543Y-016301D02*
G01X0069500Y-016344D01*
G01X0069500Y-016344D02*
G01X0069543Y-016387D01*
G01X0069543Y-016387D02*
G01X0069586Y-016344D01*
G01X0070400Y-016841D02*
G01X0070357Y-016713D01*
G01X0070357Y-016713D02*
G01X0070228Y-016627D01*
G01X0070228Y-016627D02*
G01X0070014Y-016584D01*
G01X0070014Y-016584D02*
G01X0069886Y-016584D01*
G01X0069886Y-016584D02*
G01X0069671Y-016627D01*
G01X0069671Y-016627D02*
G01X0069543Y-016713D01*
G01X0069543Y-016713D02*
G01X0069500Y-016841D01*
G01X0069500Y-016841D02*
G01X0069500Y-016927D01*
G01X0069500Y-016927D02*
G01X0069543Y-017055D01*
G01X0069543Y-017055D02*
G01X0069671Y-017141D01*
G01X0069671Y-017141D02*
G01X0069886Y-017184D01*
G01X0069886Y-017184D02*
G01X0070014Y-017184D01*
G01X0070014Y-017184D02*
G01X0070228Y-017141D01*
G01X0070228Y-017141D02*
G01X0070357Y-017055D01*
G01X0070357Y-017055D02*
G01X0070400Y-016927D01*
G01X0070400Y-016927D02*
G01X0070400Y-016841D01*
G01X-012600Y-011375D02*
G01X-013029Y-011718D01*
G01X-013029Y-011718D02*
G01X-013500Y-011718D01*
G01X-012600Y-012061D02*
G01X-013029Y-011718D01*
G01X-011875Y-012600D02*
G01X-011275Y-013500D01*
G01X-011275Y-012600D02*
G01X-011875Y-013500D01*
G01X0050400Y-016014D02*
G01X0050400Y-015586D01*
G01X0050400Y-015586D02*
G01X0050014Y-015543D01*
G01X0050014Y-015543D02*
G01X0050057Y-015586D01*
G01X0050057Y-015586D02*
G01X0050100Y-015714D01*
G01X0050100Y-015714D02*
G01X0050100Y-015843D01*
G01X0050100Y-015843D02*
G01X0050057Y-015971D01*
G01X0050057Y-015971D02*
G01X0049971Y-016057D01*
G01X0049971Y-016057D02*
G01X0049843Y-016100D01*
G01X0049843Y-016100D02*
G01X0049757Y-016100D01*
G01X0049757Y-016100D02*
G01X0049629Y-016057D01*
G01X0049629Y-016057D02*
G01X0049543Y-015971D01*
G01X0049543Y-015971D02*
G01X0049500Y-015843D01*
G01X0049500Y-015843D02*
G01X0049500Y-015714D01*
G01X0049500Y-015714D02*
G01X0049543Y-015586D01*
G01X0049543Y-015586D02*
G01X0049586Y-015543D01*
G01X0049586Y-015543D02*
G01X0049671Y-015500D01*
G01X0049586Y-016344D02*
G01X0049543Y-016301D01*
G01X0049543Y-016301D02*
G01X0049500Y-016344D01*
G01X0049500Y-016344D02*
G01X0049543Y-016387D01*
G01X0049543Y-016387D02*
G01X0049586Y-016344D01*
G01X0050400Y-016841D02*
G01X0050357Y-016713D01*
G01X0050357Y-016713D02*
G01X0050228Y-016627D01*
G01X0050228Y-016627D02*
G01X0050014Y-016584D01*
G01X0050014Y-016584D02*
G01X0049886Y-016584D01*
G01X0049886Y-016584D02*
G01X0049671Y-016627D01*
G01X0049671Y-016627D02*
G01X0049543Y-016713D01*
G01X0049543Y-016713D02*
G01X0049500Y-016841D01*
G01X0049500Y-016841D02*
G01X0049500Y-016927D01*
G01X0049500Y-016927D02*
G01X0049543Y-017055D01*
G01X0049543Y-017055D02*
G01X0049671Y-017141D01*
G01X0049671Y-017141D02*
G01X0049886Y-017184D01*
G01X0049886Y-017184D02*
G01X0050014Y-017184D01*
G01X0050014Y-017184D02*
G01X0050228Y-017141D01*
G01X0050228Y-017141D02*
G01X0050357Y-017055D01*
G01X0050357Y-017055D02*
G01X0050400Y-016927D01*
G01X0050400Y-016927D02*
G01X0050400Y-016841D01*
G01X0030400Y-015586D02*
G01X0030400Y-016057D01*
G01X0030400Y-016057D02*
G01X0030057Y-015800D01*
G01X0030057Y-015800D02*
G01X0030057Y-015928D01*
G01X0030057Y-015928D02*
G01X0030014Y-016014D01*
G01X0030014Y-016014D02*
G01X0029971Y-016057D01*
G01X0029971Y-016057D02*
G01X0029843Y-016100D01*
G01X0029843Y-016100D02*
G01X0029757Y-016100D01*
G01X0029757Y-016100D02*
G01X0029629Y-016057D01*
G01X0029629Y-016057D02*
G01X0029543Y-015971D01*
G01X0029543Y-015971D02*
G01X0029500Y-015843D01*
G01X0029500Y-015843D02*
G01X0029500Y-015714D01*
G01X0029500Y-015714D02*
G01X0029543Y-015586D01*
G01X0029543Y-015586D02*
G01X0029586Y-015543D01*
G01X0029586Y-015543D02*
G01X0029671Y-015500D01*
G01X0029586Y-016344D02*
G01X0029543Y-016301D01*
G01X0029543Y-016301D02*
G01X0029500Y-016344D01*
G01X0029500Y-016344D02*
G01X0029543Y-016387D01*
G01X0029543Y-016387D02*
G01X0029586Y-016344D01*
G01X0030400Y-016841D02*
G01X0030357Y-016713D01*
G01X0030357Y-016713D02*
G01X0030228Y-016627D01*
G01X0030228Y-016627D02*
G01X0030014Y-016584D01*
G01X0030014Y-016584D02*
G01X0029886Y-016584D01*
G01X0029886Y-016584D02*
G01X0029671Y-016627D01*
G01X0029671Y-016627D02*
G01X0029543Y-016713D01*
G01X0029543Y-016713D02*
G01X0029500Y-016841D01*
G01X0029500Y-016841D02*
G01X0029500Y-016927D01*
G01X0029500Y-016927D02*
G01X0029543Y-017055D01*
G01X0029543Y-017055D02*
G01X0029671Y-017141D01*
G01X0029671Y-017141D02*
G01X0029886Y-017184D01*
G01X0029886Y-017184D02*
G01X0030014Y-017184D01*
G01X0030014Y-017184D02*
G01X0030228Y-017141D01*
G01X0030228Y-017141D02*
G01X0030357Y-017055D01*
G01X0030357Y-017055D02*
G01X0030400Y-016927D01*
G01X0030400Y-016927D02*
G01X0030400Y-016841D01*
G01X0010228Y-015500D02*
G01X0010271Y-015586D01*
G01X0010271Y-015586D02*
G01X0010400Y-015714D01*
G01X0010400Y-015714D02*
G01X0009500Y-015714D01*
G01X0009586Y-016203D02*
G01X0009543Y-016160D01*
G01X0009543Y-016160D02*
G01X0009500Y-016203D01*
G01X0009500Y-016203D02*
G01X0009543Y-016246D01*
G01X0009543Y-016246D02*
G01X0009586Y-016203D01*
G01X0010400Y-016700D02*
G01X0010357Y-016571D01*
G01X0010357Y-016571D02*
G01X0010228Y-016486D01*
G01X0010228Y-016486D02*
G01X0010014Y-016443D01*
G01X0010014Y-016443D02*
G01X0009886Y-016443D01*
G01X0009886Y-016443D02*
G01X0009671Y-016486D01*
G01X0009671Y-016486D02*
G01X0009543Y-016571D01*
G01X0009543Y-016571D02*
G01X0009500Y-016700D01*
G01X0009500Y-016700D02*
G01X0009500Y-016785D01*
G01X0009500Y-016785D02*
G01X0009543Y-016914D01*
G01X0009543Y-016914D02*
G01X0009671Y-017000D01*
G01X0009671Y-017000D02*
G01X0009886Y-017043D01*
G01X0009886Y-017043D02*
G01X0010014Y-017043D01*
G01X0010014Y-017043D02*
G01X0010228Y-017000D01*
G01X0010228Y-017000D02*
G01X0010357Y-016914D01*
G01X0010357Y-016914D02*
G01X0010400Y-016785D01*
G01X0010400Y-016785D02*
G01X0010400Y-016700D01*
G01X0020186Y-015543D02*
G01X0020228Y-015543D01*
G01X0020228Y-015543D02*
G01X0020314Y-015586D01*
G01X0020314Y-015586D02*
G01X0020357Y-015629D01*
G01X0020357Y-015629D02*
G01X0020400Y-015714D01*
G01X0020400Y-015714D02*
G01X0020400Y-015886D01*
G01X0020400Y-015886D02*
G01X0020357Y-015971D01*
G01X0020357Y-015971D02*
G01X0020314Y-016014D01*
G01X0020314Y-016014D02*
G01X0020228Y-016057D01*
G01X0020228Y-016057D02*
G01X0020143Y-016057D01*
G01X0020143Y-016057D02*
G01X0020057Y-016014D01*
G01X0020057Y-016014D02*
G01X0019928Y-015928D01*
G01X0019928Y-015928D02*
G01X0019500Y-015500D01*
G01X0019500Y-015500D02*
G01X0019500Y-016100D01*
G01X0019586Y-016344D02*
G01X0019543Y-016301D01*
G01X0019543Y-016301D02*
G01X0019500Y-016344D01*
G01X0019500Y-016344D02*
G01X0019543Y-016387D01*
G01X0019543Y-016387D02*
G01X0019586Y-016344D01*
G01X0020400Y-016841D02*
G01X0020357Y-016713D01*
G01X0020357Y-016713D02*
G01X0020228Y-016627D01*
G01X0020228Y-016627D02*
G01X0020014Y-016584D01*
G01X0020014Y-016584D02*
G01X0019886Y-016584D01*
G01X0019886Y-016584D02*
G01X0019671Y-016627D01*
G01X0019671Y-016627D02*
G01X0019543Y-016713D01*
G01X0019543Y-016713D02*
G01X0019500Y-016841D01*
G01X0019500Y-016841D02*
G01X0019500Y-016927D01*
G01X0019500Y-016927D02*
G01X0019543Y-017055D01*
G01X0019543Y-017055D02*
G01X0019671Y-017141D01*
G01X0019671Y-017141D02*
G01X0019886Y-017184D01*
G01X0019886Y-017184D02*
G01X0020014Y-017184D01*
G01X0020014Y-017184D02*
G01X0020228Y-017141D01*
G01X0020228Y-017141D02*
G01X0020357Y-017055D01*
G01X0020357Y-017055D02*
G01X0020400Y-016927D01*
G01X0020400Y-016927D02*
G01X0020400Y-016841D01*
G01X0040400Y-015928D02*
G01X0039800Y-015500D01*
G01X0039800Y-015500D02*
G01X0039800Y-016143D01*
G01X0040400Y-015928D02*
G01X0039500Y-015928D01*
G01X0039586Y-016344D02*
G01X0039543Y-016301D01*
G01X0039543Y-016301D02*
G01X0039500Y-016344D01*
G01X0039500Y-016344D02*
G01X0039543Y-016387D01*
G01X0039543Y-016387D02*
G01X0039586Y-016344D01*
G01X0040400Y-016841D02*
G01X0040357Y-016713D01*
G01X0040357Y-016713D02*
G01X0040228Y-016627D01*
G01X0040228Y-016627D02*
G01X0040014Y-016584D01*
G01X0040014Y-016584D02*
G01X0039886Y-016584D01*
G01X0039886Y-016584D02*
G01X0039671Y-016627D01*
G01X0039671Y-016627D02*
G01X0039543Y-016713D01*
G01X0039543Y-016713D02*
G01X0039500Y-016841D01*
G01X0039500Y-016841D02*
G01X0039500Y-016927D01*
G01X0039500Y-016927D02*
G01X0039543Y-017055D01*
G01X0039543Y-017055D02*
G01X0039671Y-017141D01*
G01X0039671Y-017141D02*
G01X0039886Y-017184D01*
G01X0039886Y-017184D02*
G01X0040014Y-017184D01*
G01X0040014Y-017184D02*
G01X0040228Y-017141D01*
G01X0040228Y-017141D02*
G01X0040357Y-017055D01*
G01X0040357Y-017055D02*
G01X0040400Y-016927D01*
G01X0040400Y-016927D02*
G01X0040400Y-016841D01*
G01X0060271Y-016014D02*
G01X0060357Y-015971D01*
G01X0060357Y-015971D02*
G01X0060400Y-015843D01*
G01X0060400Y-015843D02*
G01X0060400Y-015757D01*
G01X0060400Y-015757D02*
G01X0060357Y-015629D01*
G01X0060357Y-015629D02*
G01X0060228Y-015543D01*
G01X0060228Y-015543D02*
G01X0060014Y-015500D01*
G01X0060014Y-015500D02*
G01X0059800Y-015500D01*
G01X0059800Y-015500D02*
G01X0059629Y-015543D01*
G01X0059629Y-015543D02*
G01X0059543Y-015629D01*
G01X0059543Y-015629D02*
G01X0059500Y-015757D01*
G01X0059500Y-015757D02*
G01X0059500Y-015800D01*
G01X0059500Y-015800D02*
G01X0059543Y-015928D01*
G01X0059543Y-015928D02*
G01X0059629Y-016014D01*
G01X0059629Y-016014D02*
G01X0059757Y-016057D01*
G01X0059757Y-016057D02*
G01X0059800Y-016057D01*
G01X0059800Y-016057D02*
G01X0059928Y-016014D01*
G01X0059928Y-016014D02*
G01X0060014Y-015928D01*
G01X0060014Y-015928D02*
G01X0060057Y-015800D01*
G01X0060057Y-015800D02*
G01X0060057Y-015757D01*
G01X0060057Y-015757D02*
G01X0060014Y-015629D01*
G01X0060014Y-015629D02*
G01X0059928Y-015543D01*
G01X0059928Y-015543D02*
G01X0059800Y-015500D01*
G01X0059586Y-016297D02*
G01X0059543Y-016254D01*
G01X0059543Y-016254D02*
G01X0059500Y-016297D01*
G01X0059500Y-016297D02*
G01X0059543Y-016340D01*
G01X0059543Y-016340D02*
G01X0059586Y-016297D01*
G01X0060400Y-016794D02*
G01X0060357Y-016665D01*
G01X0060357Y-016665D02*
G01X0060228Y-016580D01*
G01X0060228Y-016580D02*
G01X0060014Y-016537D01*
G01X0060014Y-016537D02*
G01X0059886Y-016537D01*
G01X0059886Y-016537D02*
G01X0059671Y-016580D01*
G01X0059671Y-016580D02*
G01X0059543Y-016665D01*
G01X0059543Y-016665D02*
G01X0059500Y-016794D01*
G01X0059500Y-016794D02*
G01X0059500Y-016880D01*
G01X0059500Y-016880D02*
G01X0059543Y-017008D01*
G01X0059543Y-017008D02*
G01X0059671Y-017094D01*
G01X0059671Y-017094D02*
G01X0059886Y-017137D01*
G01X0059886Y-017137D02*
G01X0060014Y-017137D01*
G01X0060014Y-017137D02*
G01X0060228Y-017094D01*
G01X0060228Y-017094D02*
G01X0060357Y-017008D01*
G01X0060357Y-017008D02*
G01X0060400Y-016880D01*
G01X0060400Y-016880D02*
G01X0060400Y-016794D01*
G01X-017164Y0030400D02*
G01X-016693Y0030400D01*
G01X-016693Y0030400D02*
G01X-016950Y0030057D01*
G01X-016950Y0030057D02*
G01X-016822Y0030057D01*
G01X-016822Y0030057D02*
G01X-016736Y0030014D01*
G01X-016736Y0030014D02*
G01X-016693Y0029971D01*
G01X-016693Y0029971D02*
G01X-016650Y0029843D01*
G01X-016650Y0029843D02*
G01X-016650Y0029757D01*
G01X-016650Y0029757D02*
G01X-016693Y0029629D01*
G01X-016693Y0029629D02*
G01X-016779Y0029543D01*
G01X-016779Y0029543D02*
G01X-016907Y0029500D01*
G01X-016907Y0029500D02*
G01X-017036Y0029500D01*
G01X-017036Y0029500D02*
G01X-017164Y0029543D01*
G01X-017164Y0029543D02*
G01X-017207Y0029586D01*
G01X-017207Y0029586D02*
G01X-017250Y0029671D01*
G01X-016406Y0029586D02*
G01X-016449Y0029543D01*
G01X-016449Y0029543D02*
G01X-016406Y0029500D01*
G01X-016406Y0029500D02*
G01X-016363Y0029543D01*
G01X-016363Y0029543D02*
G01X-016406Y0029586D01*
G01X-015909Y0030400D02*
G01X-016037Y0030357D01*
G01X-016037Y0030357D02*
G01X-016123Y0030228D01*
G01X-016123Y0030228D02*
G01X-016166Y0030014D01*
G01X-016166Y0030014D02*
G01X-016166Y0029886D01*
G01X-016166Y0029886D02*
G01X-016123Y0029671D01*
G01X-016123Y0029671D02*
G01X-016037Y0029543D01*
G01X-016037Y0029543D02*
G01X-015909Y0029500D01*
G01X-015909Y0029500D02*
G01X-015823Y0029500D01*
G01X-015823Y0029500D02*
G01X-015695Y0029543D01*
G01X-015695Y0029543D02*
G01X-015609Y0029671D01*
G01X-015609Y0029671D02*
G01X-015566Y0029886D01*
G01X-015566Y0029886D02*
G01X-015566Y0030014D01*
G01X-015566Y0030014D02*
G01X-015609Y0030228D01*
G01X-015609Y0030228D02*
G01X-015695Y0030357D01*
G01X-015695Y0030357D02*
G01X-015823Y0030400D01*
G01X-015823Y0030400D02*
G01X-015909Y0030400D01*
G01X-017000Y0010228D02*
G01X-016914Y0010271D01*
G01X-016914Y0010271D02*
G01X-016786Y0010400D01*
G01X-016786Y0010400D02*
G01X-016786Y0009500D01*
G01X-016297Y0009586D02*
G01X-016340Y0009543D01*
G01X-016340Y0009543D02*
G01X-016297Y0009500D01*
G01X-016297Y0009500D02*
G01X-016254Y0009543D01*
G01X-016254Y0009543D02*
G01X-016297Y0009586D01*
G01X-015800Y0010400D02*
G01X-015929Y0010357D01*
G01X-015929Y0010357D02*
G01X-016014Y0010228D01*
G01X-016014Y0010228D02*
G01X-016057Y0010014D01*
G01X-016057Y0010014D02*
G01X-016057Y0009886D01*
G01X-016057Y0009886D02*
G01X-016014Y0009671D01*
G01X-016014Y0009671D02*
G01X-015929Y0009543D01*
G01X-015929Y0009543D02*
G01X-015800Y0009500D01*
G01X-015800Y0009500D02*
G01X-015715Y0009500D01*
G01X-015715Y0009500D02*
G01X-015586Y0009543D01*
G01X-015586Y0009543D02*
G01X-015500Y0009671D01*
G01X-015500Y0009671D02*
G01X-015457Y0009886D01*
G01X-015457Y0009886D02*
G01X-015457Y0010014D01*
G01X-015457Y0010014D02*
G01X-015500Y0010228D01*
G01X-015500Y0010228D02*
G01X-015586Y0010357D01*
G01X-015586Y0010357D02*
G01X-015715Y0010400D01*
G01X-015715Y0010400D02*
G01X-015800Y0010400D01*
G01X-017207Y0020186D02*
G01X-017207Y0020228D01*
G01X-017207Y0020228D02*
G01X-017164Y0020314D01*
G01X-017164Y0020314D02*
G01X-017121Y0020357D01*
G01X-017121Y0020357D02*
G01X-017036Y0020400D01*
G01X-017036Y0020400D02*
G01X-016864Y0020400D01*
G01X-016864Y0020400D02*
G01X-016779Y0020357D01*
G01X-016779Y0020357D02*
G01X-016736Y0020314D01*
G01X-016736Y0020314D02*
G01X-016693Y0020228D01*
G01X-016693Y0020228D02*
G01X-016693Y0020143D01*
G01X-016693Y0020143D02*
G01X-016736Y0020057D01*
G01X-016736Y0020057D02*
G01X-016822Y0019928D01*
G01X-016822Y0019928D02*
G01X-017250Y0019500D01*
G01X-017250Y0019500D02*
G01X-016650Y0019500D01*
G01X-016406Y0019586D02*
G01X-016449Y0019543D01*
G01X-016449Y0019543D02*
G01X-016406Y0019500D01*
G01X-016406Y0019500D02*
G01X-016363Y0019543D01*
G01X-016363Y0019543D02*
G01X-016406Y0019586D01*
G01X-015909Y0020400D02*
G01X-016037Y0020357D01*
G01X-016037Y0020357D02*
G01X-016123Y0020228D01*
G01X-016123Y0020228D02*
G01X-016166Y0020014D01*
G01X-016166Y0020014D02*
G01X-016166Y0019886D01*
G01X-016166Y0019886D02*
G01X-016123Y0019671D01*
G01X-016123Y0019671D02*
G01X-016037Y0019543D01*
G01X-016037Y0019543D02*
G01X-015909Y0019500D01*
G01X-015909Y0019500D02*
G01X-015823Y0019500D01*
G01X-015823Y0019500D02*
G01X-015695Y0019543D01*
G01X-015695Y0019543D02*
G01X-015609Y0019671D01*
G01X-015609Y0019671D02*
G01X-015566Y0019886D01*
G01X-015566Y0019886D02*
G01X-015566Y0020014D01*
G01X-015566Y0020014D02*
G01X-015609Y0020228D01*
G01X-015609Y0020228D02*
G01X-015695Y0020357D01*
G01X-015695Y0020357D02*
G01X-015823Y0020400D01*
G01X-015823Y0020400D02*
G01X-015909Y0020400D01*
G01X-016822Y0040400D02*
G01X-017250Y0039800D01*
G01X-017250Y0039800D02*
G01X-016607Y0039800D01*
G01X-016822Y0040400D02*
G01X-016822Y0039500D01*
G01X-016406Y0039586D02*
G01X-016449Y0039543D01*
G01X-016449Y0039543D02*
G01X-016406Y0039500D01*
G01X-016406Y0039500D02*
G01X-016363Y0039543D01*
G01X-016363Y0039543D02*
G01X-016406Y0039586D01*
G01X-015909Y0040400D02*
G01X-016037Y0040357D01*
G01X-016037Y0040357D02*
G01X-016123Y0040228D01*
G01X-016123Y0040228D02*
G01X-016166Y0040014D01*
G01X-016166Y0040014D02*
G01X-016166Y0039886D01*
G01X-016166Y0039886D02*
G01X-016123Y0039671D01*
G01X-016123Y0039671D02*
G01X-016037Y0039543D01*
G01X-016037Y0039543D02*
G01X-015909Y0039500D01*
G01X-015909Y0039500D02*
G01X-015823Y0039500D01*
G01X-015823Y0039500D02*
G01X-015695Y0039543D01*
G01X-015695Y0039543D02*
G01X-015609Y0039671D01*
G01X-015609Y0039671D02*
G01X-015566Y0039886D01*
G01X-015566Y0039886D02*
G01X-015566Y0040014D01*
G01X-015566Y0040014D02*
G01X-015609Y0040228D01*
G01X-015609Y0040228D02*
G01X-015695Y0040357D01*
G01X-015695Y0040357D02*
G01X-015823Y0040400D01*
G01X-015823Y0040400D02*
G01X-015909Y0040400D01*
G01X0095850Y-030505D02*
G01X0095421Y-031405D01*
G01X0095250Y-030505D02*
G01X0095850Y-030505D01*
G01X0096051Y-031534D02*
G01X0096651Y-030505D01*
G01X0096711Y-030677D02*
G01X0096797Y-030634D01*
G01X0096797Y-030634D02*
G01X0096925Y-030505D01*
G01X0096925Y-030505D02*
G01X0096925Y-031405D01*
G01X0097799Y-030505D02*
G01X0097371Y-031105D01*
G01X0097371Y-031105D02*
G01X0098014Y-031105D01*
G01X0097799Y-030505D02*
G01X0097799Y-031405D01*
G01X0098172Y-031534D02*
G01X0098772Y-030505D01*
G01X0098875Y-030719D02*
G01X0098875Y-030677D01*
G01X0098875Y-030677D02*
G01X0098918Y-030591D01*
G01X0098918Y-030591D02*
G01X0098961Y-030548D01*
G01X0098961Y-030548D02*
G01X0099046Y-030505D01*
G01X0099046Y-030505D02*
G01X0099218Y-030505D01*
G01X0099218Y-030505D02*
G01X0099303Y-030548D01*
G01X0099303Y-030548D02*
G01X0099346Y-030591D01*
G01X0099346Y-030591D02*
G01X0099389Y-030677D01*
G01X0099389Y-030677D02*
G01X0099389Y-030762D01*
G01X0099389Y-030762D02*
G01X0099346Y-030848D01*
G01X0099346Y-030848D02*
G01X0099261Y-030977D01*
G01X0099261Y-030977D02*
G01X0098832Y-031405D01*
G01X0098832Y-031405D02*
G01X0099432Y-031405D01*
G01X0099890Y-030505D02*
G01X0099762Y-030548D01*
G01X0099762Y-030548D02*
G01X0099676Y-030677D01*
G01X0099676Y-030677D02*
G01X0099633Y-030891D01*
G01X0099633Y-030891D02*
G01X0099633Y-031019D01*
G01X0099633Y-031019D02*
G01X0099676Y-031234D01*
G01X0099676Y-031234D02*
G01X0099762Y-031362D01*
G01X0099762Y-031362D02*
G01X0099890Y-031405D01*
G01X0099890Y-031405D02*
G01X0099976Y-031405D01*
G01X0099976Y-031405D02*
G01X0100105Y-031362D01*
G01X0100105Y-031362D02*
G01X0100190Y-031234D01*
G01X0100190Y-031234D02*
G01X0100233Y-031019D01*
G01X0100233Y-031019D02*
G01X0100233Y-030891D01*
G01X0100233Y-030891D02*
G01X0100190Y-030677D01*
G01X0100190Y-030677D02*
G01X0100105Y-030548D01*
G01X0100105Y-030548D02*
G01X0099976Y-030505D01*
G01X0099976Y-030505D02*
G01X0099890Y-030505D01*
G01X0100435Y-030677D02*
G01X0100520Y-030634D01*
G01X0100520Y-030634D02*
G01X0100649Y-030505D01*
G01X0100649Y-030505D02*
G01X0100649Y-031405D01*
G01X0101694Y-030505D02*
G01X0101266Y-031405D01*
G01X0101094Y-030505D02*
G01X0101694Y-030505D01*
G01X0090211Y-030505D02*
G01X0090682Y-030505D01*
G01X0090682Y-030505D02*
G01X0090425Y-030848D01*
G01X0090425Y-030848D02*
G01X0090553Y-030848D01*
G01X0090553Y-030848D02*
G01X0090639Y-030891D01*
G01X0090639Y-030891D02*
G01X0090682Y-030934D01*
G01X0090682Y-030934D02*
G01X0090725Y-031062D01*
G01X0090725Y-031062D02*
G01X0090725Y-031148D01*
G01X0090725Y-031148D02*
G01X0090682Y-031276D01*
G01X0090682Y-031276D02*
G01X0090596Y-031362D01*
G01X0090596Y-031362D02*
G01X0090468Y-031405D01*
G01X0090468Y-031405D02*
G01X0090339Y-031405D01*
G01X0090339Y-031405D02*
G01X0090211Y-031362D01*
G01X0090211Y-031362D02*
G01X0090168Y-031319D01*
G01X0090168Y-031319D02*
G01X0090125Y-031234D01*
G54D15*
G01X0014000Y0016000D02*
G01X0014005Y0015902D01*
G01X0014005Y0015902D02*
G01X0014019Y0015805D01*
G01X0014019Y0015805D02*
G01X0014043Y0015710D01*
G01X0014043Y0015710D02*
G01X0014076Y0015617D01*
G01X0014076Y0015617D02*
G01X0014118Y0015529D01*
G01X0014118Y0015529D02*
G01X0014169Y0015444D01*
G01X0014169Y0015444D02*
G01X0014227Y0015366D01*
G01X0014227Y0015366D02*
G01X0014293Y0015293D01*
G01X0014293Y0015293D02*
G01X0014366Y0015227D01*
G01X0014366Y0015227D02*
G01X0014444Y0015169D01*
G01X0014444Y0015169D02*
G01X0014529Y0015118D01*
G01X0014529Y0015118D02*
G01X0014617Y0015076D01*
G01X0014617Y0015076D02*
G01X0014710Y0015043D01*
G01X0014710Y0015043D02*
G01X0014805Y0015019D01*
G01X0014805Y0015019D02*
G01X0014902Y0015005D01*
G01X0014902Y0015005D02*
G01X0015000Y0015000D01*
G01X0001000Y0015000D02*
G01X0001098Y0015005D01*
G01X0001098Y0015005D02*
G01X0001195Y0015019D01*
G01X0001195Y0015019D02*
G01X0001290Y0015043D01*
G01X0001290Y0015043D02*
G01X0001383Y0015076D01*
G01X0001383Y0015076D02*
G01X0001471Y0015118D01*
G01X0001471Y0015118D02*
G01X0001556Y0015169D01*
G01X0001556Y0015169D02*
G01X0001634Y0015227D01*
G01X0001634Y0015227D02*
G01X0001707Y0015293D01*
G01X0001707Y0015293D02*
G01X0001773Y0015366D01*
G01X0001773Y0015366D02*
G01X0001831Y0015444D01*
G01X0001831Y0015444D02*
G01X0001882Y0015529D01*
G01X0001882Y0015529D02*
G01X0001924Y0015617D01*
G01X0001924Y0015617D02*
G01X0001957Y0015710D01*
G01X0001957Y0015710D02*
G01X0001981Y0015805D01*
G01X0001981Y0015805D02*
G01X0001995Y0015902D01*
G01X0001995Y0015902D02*
G01X0002000Y0016000D01*
G01X0103457Y-025735D02*
G01X0103420Y-025698D01*
G01X0102423Y-025735D02*
G01X0102385Y-025698D01*
G01X0102605Y-025698D02*
G01X0102568Y-025735D01*
G01X0103308Y-026185D02*
G01X0103270Y-026147D01*
G01X0103270Y-025998D02*
G01X0103308Y-025960D01*
G01X0103270Y-026293D02*
G01X0103308Y-026255D01*
G01X0103308Y-025885D02*
G01X0103270Y-025847D01*
G01X0103420Y-026442D02*
G01X0103457Y-026405D01*
G01X0102712Y-026255D02*
G01X0102750Y-026293D01*
G01X0102750Y-026147D02*
G01X0102712Y-026185D01*
G01X0102605Y-025998D02*
G01X0102568Y-026035D01*
G01X0102385Y-026442D02*
G01X0102423Y-026405D01*
G01X0102568Y-026405D02*
G01X0102605Y-026442D01*
G01X0102568Y-025810D02*
G01X0102605Y-025847D01*
G01X0101570Y-025698D02*
G01X0101532Y-025735D01*
G01X0101372Y-025740D02*
G01X0101335Y-025703D01*
G01X0101265Y-025703D02*
G01X0101228Y-025740D01*
G01X0100708Y-025740D02*
G01X0100670Y-025703D01*
G01X0100595Y-025703D02*
G01X0100557Y-025740D01*
G01X0099672Y-025735D02*
G01X0099635Y-025698D01*
G01X0099855Y-025703D02*
G01X0099817Y-025740D01*
G01X0099967Y-025740D02*
G01X0099930Y-025703D01*
G01X0098638Y-025735D02*
G01X0098600Y-025698D01*
G01X0098820Y-025698D02*
G01X0098783Y-025735D01*
G01X0097603Y-025735D02*
G01X0097565Y-025698D01*
G01X0097785Y-025698D02*
G01X0097747Y-025735D01*
G01X0102273Y-025885D02*
G01X0102235Y-025847D01*
G01X0101715Y-025847D02*
G01X0101678Y-025885D01*
G01X0102273Y-026405D02*
G01X0102310Y-026442D01*
G01X0101372Y-026055D02*
G01X0101335Y-026017D01*
G01X0101335Y-025852D02*
G01X0101372Y-025815D01*
G01X0101228Y-026205D02*
G01X0101190Y-026168D01*
G01X0101228Y-025815D02*
G01X0101265Y-025852D01*
G01X0101532Y-026405D02*
G01X0101570Y-026442D01*
G01X0101335Y-026442D02*
G01X0101372Y-026405D01*
G01X0101228Y-026405D02*
G01X0101265Y-026442D01*
G01X0101640Y-026442D02*
G01X0101678Y-026405D01*
G01X0100745Y-026168D02*
G01X0100708Y-026205D01*
G01X0100708Y-025980D02*
G01X0100745Y-026017D01*
G01X0100557Y-026205D02*
G01X0100520Y-026168D01*
G01X0100520Y-026017D02*
G01X0100557Y-025980D01*
G01X0100670Y-026442D02*
G01X0100708Y-026405D01*
G01X0100557Y-026405D02*
G01X0100595Y-026442D01*
G01X0099967Y-025980D02*
G01X0100005Y-026017D01*
G01X0100005Y-026168D02*
G01X0099967Y-026205D01*
G01X0099672Y-026330D02*
G01X0099635Y-026293D01*
G01X0099635Y-026442D02*
G01X0099672Y-026405D01*
G01X0099817Y-026405D02*
G01X0099855Y-026442D01*
G01X0099930Y-026442D02*
G01X0099967Y-026405D01*
G01X0098933Y-026255D02*
G01X0098970Y-026293D01*
G01X0098970Y-025847D02*
G01X0098933Y-025885D01*
G01X0098638Y-026330D02*
G01X0098600Y-026293D01*
G01X0098600Y-026442D02*
G01X0098638Y-026405D01*
G01X0098783Y-026405D02*
G01X0098820Y-026442D01*
G01X0097935Y-025847D02*
G01X0097898Y-025885D01*
G01X0097898Y-026255D02*
G01X0097935Y-026293D01*
G01X0097565Y-026442D02*
G01X0097603Y-026405D01*
G01X0097747Y-026405D02*
G01X0097785Y-026442D01*
G01X0097452Y-025885D02*
G01X0097415Y-025847D01*
G01X0097415Y-026293D02*
G01X0097452Y-026255D01*
G01X0097415Y-025998D02*
G01X0097452Y-025960D01*
G01X0097452Y-026185D02*
G01X0097415Y-026147D01*
G01X0096895Y-026147D02*
G01X0096858Y-026185D01*
G01X0096858Y-026255D02*
G01X0096895Y-026293D01*
G01X0098600Y-025847D02*
G01X0098638Y-025810D01*
G01X0099635Y-025847D02*
G01X0099672Y-025810D01*
G01X0096567Y-025735D02*
G01X0096530Y-025698D01*
G01X0096750Y-025698D02*
G01X0096713Y-025735D01*
G01X0095710Y-025698D02*
G01X0095673Y-025735D01*
G01X0094975Y-025738D02*
G01X0094937Y-025775D01*
G01X0095083Y-025775D02*
G01X0095045Y-025738D01*
G01X0094305Y-025738D02*
G01X0094268Y-025775D01*
G01X0094417Y-025775D02*
G01X0094380Y-025738D01*
G01X0093678Y-025775D02*
G01X0093640Y-025738D01*
G01X0093565Y-025738D02*
G01X0093527Y-025775D01*
G01X0096750Y-025998D02*
G01X0096713Y-026035D01*
G01X0096230Y-025847D02*
G01X0096193Y-025885D01*
G01X0096418Y-025885D02*
G01X0096380Y-025847D01*
G01X0096530Y-026442D02*
G01X0096567Y-026405D01*
G01X0096713Y-026405D02*
G01X0096750Y-026442D01*
G01X0096418Y-026405D02*
G01X0096455Y-026442D01*
G01X0096047Y-025885D02*
G01X0096010Y-025847D01*
G01X0095860Y-025847D02*
G01X0095822Y-025885D01*
G01X0096047Y-026405D02*
G01X0096085Y-026442D01*
G01X0095673Y-026405D02*
G01X0095710Y-026442D01*
G01X0095785Y-026442D02*
G01X0095822Y-026405D01*
G01X0096155Y-026442D02*
G01X0096193Y-026405D01*
G01X0095045Y-025887D02*
G01X0095083Y-025850D01*
G01X0094937Y-025850D02*
G01X0094975Y-025887D01*
G01X0094937Y-026240D02*
G01X0094900Y-026202D01*
G01X0095083Y-026090D02*
G01X0095045Y-026052D01*
G01X0094937Y-026440D02*
G01X0094975Y-026477D01*
G01X0095045Y-026477D02*
G01X0095083Y-026440D01*
G01X0094230Y-026052D02*
G01X0094268Y-026015D01*
G01X0094268Y-026240D02*
G01X0094230Y-026202D01*
G01X0094417Y-026015D02*
G01X0094455Y-026052D01*
G01X0094455Y-026202D02*
G01X0094417Y-026240D01*
G01X0094380Y-026477D02*
G01X0094417Y-026440D01*
G01X0094268Y-026440D02*
G01X0094305Y-026477D01*
G01X0093715Y-026202D02*
G01X0093678Y-026240D01*
G01X0093678Y-026015D02*
G01X0093715Y-026052D01*
G01X0093640Y-026477D02*
G01X0093678Y-026440D01*
G01X0093527Y-026440D02*
G01X0093565Y-026477D01*
G01X0095490Y-026105D02*
G01X0095486Y-026005D01*
G01X0095486Y-026005D02*
G01X0095473Y-025906D01*
G01X0095473Y-025906D02*
G01X0095451Y-025809D01*
G01X0095451Y-025809D02*
G01X0095421Y-025713D01*
G01X0095421Y-025713D02*
G01X0095383Y-025621D01*
G01X0095383Y-025621D02*
G01X0095337Y-025533D01*
G01X0095337Y-025533D02*
G01X0095283Y-025448D01*
G01X0095283Y-025448D02*
G01X0095222Y-025369D01*
G01X0095222Y-025369D02*
G01X0095155Y-025295D01*
G01X0095155Y-025295D02*
G01X0095081Y-025228D01*
G01X0095081Y-025228D02*
G01X0095002Y-025167D01*
G01X0095002Y-025167D02*
G01X0094917Y-025113D01*
G01X0094917Y-025113D02*
G01X0094829Y-025067D01*
G01X0094829Y-025067D02*
G01X0094737Y-025029D01*
G01X0094737Y-025029D02*
G01X0094641Y-024999D01*
G01X0094641Y-024999D02*
G01X0094544Y-024977D01*
G01X0094544Y-024977D02*
G01X0094445Y-024964D01*
G01X0094445Y-024964D02*
G01X0094345Y-024960D01*
G01X0094345Y-024960D02*
G01X0094245Y-024964D01*
G01X0094245Y-024964D02*
G01X0094146Y-024977D01*
G01X0094146Y-024977D02*
G01X0094049Y-024999D01*
G01X0094049Y-024999D02*
G01X0093953Y-025029D01*
G01X0093953Y-025029D02*
G01X0093861Y-025067D01*
G01X0093861Y-025067D02*
G01X0093772Y-025113D01*
G01X0093772Y-025113D02*
G01X0093688Y-025167D01*
G01X0093688Y-025167D02*
G01X0093609Y-025228D01*
G01X0093609Y-025228D02*
G01X0093535Y-025295D01*
G01X0093535Y-025295D02*
G01X0093468Y-025369D01*
G01X0093468Y-025369D02*
G01X0093407Y-025448D01*
G01X0093407Y-025448D02*
G01X0093353Y-025533D01*
G01X0093353Y-025533D02*
G01X0093307Y-025621D01*
G01X0093307Y-025621D02*
G01X0093269Y-025713D01*
G01X0093269Y-025713D02*
G01X0093239Y-025809D01*
G01X0093239Y-025809D02*
G01X0093217Y-025906D01*
G01X0093217Y-025906D02*
G01X0093204Y-026005D01*
G01X0093204Y-026005D02*
G01X0093200Y-026105D01*
G01X0093200Y-026105D02*
G01X0093204Y-026205D01*
G01X0093204Y-026205D02*
G01X0093217Y-026304D01*
G01X0093217Y-026304D02*
G01X0093239Y-026401D01*
G01X0093239Y-026401D02*
G01X0093269Y-026497D01*
G01X0093269Y-026497D02*
G01X0093307Y-026589D01*
G01X0093307Y-026589D02*
G01X0093353Y-026677D01*
G01X0093353Y-026677D02*
G01X0093407Y-026762D01*
G01X0093407Y-026762D02*
G01X0093468Y-026841D01*
G01X0093468Y-026841D02*
G01X0093535Y-026915D01*
G01X0093535Y-026915D02*
G01X0093609Y-026982D01*
G01X0093609Y-026982D02*
G01X0093688Y-027043D01*
G01X0093688Y-027043D02*
G01X0093772Y-027097D01*
G01X0093772Y-027097D02*
G01X0093861Y-027143D01*
G01X0093861Y-027143D02*
G01X0093953Y-027181D01*
G01X0093953Y-027181D02*
G01X0094049Y-027211D01*
G01X0094049Y-027211D02*
G01X0094146Y-027233D01*
G01X0094146Y-027233D02*
G01X0094245Y-027246D01*
G01X0094245Y-027246D02*
G01X0094345Y-027250D01*
G01X0094345Y-027250D02*
G01X0094445Y-027246D01*
G01X0094445Y-027246D02*
G01X0094544Y-027233D01*
G01X0094544Y-027233D02*
G01X0094641Y-027211D01*
G01X0094641Y-027211D02*
G01X0094737Y-027181D01*
G01X0094737Y-027181D02*
G01X0094829Y-027143D01*
G01X0094829Y-027143D02*
G01X0094917Y-027097D01*
G01X0094917Y-027097D02*
G01X0095002Y-027043D01*
G01X0095002Y-027043D02*
G01X0095081Y-026982D01*
G01X0095081Y-026982D02*
G01X0095155Y-026915D01*
G01X0095155Y-026915D02*
G01X0095222Y-026841D01*
G01X0095222Y-026841D02*
G01X0095283Y-026762D01*
G01X0095283Y-026762D02*
G01X0095337Y-026677D01*
G01X0095337Y-026677D02*
G01X0095383Y-026589D01*
G01X0095383Y-026589D02*
G01X0095421Y-026497D01*
G01X0095421Y-026497D02*
G01X0095451Y-026401D01*
G01X0095451Y-026401D02*
G01X0095473Y-026304D01*
G01X0095473Y-026304D02*
G01X0095486Y-026205D01*
G01X0095486Y-026205D02*
G01X0095490Y-026105D01*
G01X0096713Y-025810D02*
G01X0096750Y-025847D01*
G01X0081886Y-022927D02*
G01X0081830Y-022871D01*
G01X0080334Y-022927D02*
G01X0080278Y-022871D01*
G01X0080608Y-022871D02*
G01X0080551Y-022927D01*
G01X0081661Y-023602D02*
G01X0081605Y-023546D01*
G01X0081605Y-023321D02*
G01X0081661Y-023265D01*
G01X0081605Y-023764D02*
G01X0081661Y-023707D01*
G01X0081661Y-023152D02*
G01X0081605Y-023096D01*
G01X0081830Y-023989D02*
G01X0081886Y-023932D01*
G01X0080769Y-023707D02*
G01X0080825Y-023764D01*
G01X0080825Y-023546D02*
G01X0080769Y-023602D01*
G01X0080608Y-023321D02*
G01X0080551Y-023377D01*
G01X0080278Y-023989D02*
G01X0080334Y-023932D01*
G01X0080551Y-023932D02*
G01X0080608Y-023989D01*
G01X0080551Y-023040D02*
G01X0080608Y-023096D01*
G01X0079055Y-022871D02*
G01X0078999Y-022927D01*
G01X0078759Y-022935D02*
G01X0078703Y-022879D01*
G01X0078597Y-022879D02*
G01X0078541Y-022935D01*
G01X0077761Y-022935D02*
G01X0077705Y-022879D01*
G01X0077593Y-022879D02*
G01X0077536Y-022935D01*
G01X0076209Y-022927D02*
G01X0076153Y-022871D01*
G01X0076483Y-022879D02*
G01X0076426Y-022935D01*
G01X0076651Y-022935D02*
G01X0076595Y-022879D01*
G01X0074656Y-022927D02*
G01X0074600Y-022871D01*
G01X0074930Y-022871D02*
G01X0074874Y-022927D01*
G01X0073104Y-022927D02*
G01X0073047Y-022871D01*
G01X0073377Y-022871D02*
G01X0073321Y-022927D01*
G01X0080109Y-023152D02*
G01X0080052Y-023096D01*
G01X0079272Y-023096D02*
G01X0079216Y-023152D01*
G01X0080109Y-023932D02*
G01X0080165Y-023989D01*
G01X0078759Y-023407D02*
G01X0078703Y-023351D01*
G01X0078703Y-023104D02*
G01X0078759Y-023047D01*
G01X0078541Y-023633D02*
G01X0078485Y-023576D01*
G01X0078541Y-023047D02*
G01X0078597Y-023104D01*
G01X0078999Y-023932D02*
G01X0079055Y-023989D01*
G01X0078703Y-023989D02*
G01X0078759Y-023932D01*
G01X0078541Y-023932D02*
G01X0078597Y-023989D01*
G01X0079160Y-023989D02*
G01X0079216Y-023932D01*
G01X0077818Y-023576D02*
G01X0077761Y-023633D01*
G01X0077761Y-023295D02*
G01X0077818Y-023351D01*
G01X0077536Y-023633D02*
G01X0077480Y-023576D01*
G01X0077480Y-023351D02*
G01X0077536Y-023295D01*
G01X0077705Y-023989D02*
G01X0077761Y-023932D01*
G01X0077536Y-023932D02*
G01X0077593Y-023989D01*
G01X0076651Y-023295D02*
G01X0076708Y-023351D01*
G01X0076708Y-023576D02*
G01X0076651Y-023633D01*
G01X0076209Y-023820D02*
G01X0076153Y-023764D01*
G01X0076153Y-023989D02*
G01X0076209Y-023932D01*
G01X0076426Y-023932D02*
G01X0076483Y-023989D01*
G01X0076595Y-023989D02*
G01X0076651Y-023932D01*
G01X0075099Y-023707D02*
G01X0075155Y-023764D01*
G01X0075155Y-023096D02*
G01X0075099Y-023152D01*
G01X0074656Y-023820D02*
G01X0074600Y-023764D01*
G01X0074600Y-023989D02*
G01X0074656Y-023932D01*
G01X0074874Y-023932D02*
G01X0074930Y-023989D01*
G01X0073602Y-023096D02*
G01X0073546Y-023152D01*
G01X0073546Y-023707D02*
G01X0073602Y-023764D01*
G01X0073047Y-023989D02*
G01X0073104Y-023932D01*
G01X0073321Y-023932D02*
G01X0073377Y-023989D01*
G01X0072879Y-023152D02*
G01X0072822Y-023096D01*
G01X0072822Y-023764D02*
G01X0072879Y-023707D01*
G01X0072822Y-023321D02*
G01X0072879Y-023265D01*
G01X0072879Y-023602D02*
G01X0072822Y-023546D01*
G01X0072042Y-023546D02*
G01X0071986Y-023602D01*
G01X0071986Y-023707D02*
G01X0072042Y-023764D01*
G01X0074600Y-023096D02*
G01X0074656Y-023040D01*
G01X0076153Y-023096D02*
G01X0076209Y-023040D01*
G01X0071551Y-022927D02*
G01X0071495Y-022871D01*
G01X0071825Y-022871D02*
G01X0071769Y-022927D01*
G01X0070265Y-022871D02*
G01X0070209Y-022927D01*
G01X0071825Y-023321D02*
G01X0071769Y-023377D01*
G01X0071045Y-023096D02*
G01X0070989Y-023152D01*
G01X0071326Y-023152D02*
G01X0071270Y-023096D01*
G01X0071495Y-023989D02*
G01X0071551Y-023932D01*
G01X0071769Y-023932D02*
G01X0071825Y-023989D01*
G01X0071326Y-023932D02*
G01X0071382Y-023989D01*
G01X0070771Y-023152D02*
G01X0070715Y-023096D01*
G01X0070490Y-023096D02*
G01X0070434Y-023152D01*
G01X0070771Y-023932D02*
G01X0070827Y-023989D01*
G01X0070209Y-023932D02*
G01X0070265Y-023989D01*
G01X0070377Y-023989D02*
G01X0070434Y-023932D01*
G01X0070932Y-023989D02*
G01X0070989Y-023932D01*
G01X0071769Y-023040D02*
G01X0071825Y-023096D01*
G01X0000000Y-001000D02*
G01X0000000Y0000000D01*
G01X-001000Y0000000D02*
G01X0000000Y0000000D01*
G01X0002000Y0016000D02*
G01X0002000Y0017000D01*
G01X0002000Y0017000D02*
G01X0014000Y0017000D01*
G01X0014000Y0016000D02*
G01X0014000Y0017000D01*
G01X0016000Y0000000D02*
G01X0016000Y0015000D01*
G01X0000000Y0000000D02*
G01X0016000Y0000000D01*
G01X0000000Y0000000D02*
G01X0000000Y0015000D01*
G01X0000000Y0015000D02*
G01X0001000Y0015000D01*
G01X0015000Y0015000D02*
G01X0016000Y0015000D01*
G01X0102568Y-025810D02*
G01X0102568Y-025735D01*
G01X0102605Y-025698D02*
G01X0103420Y-025698D01*
G01X0103308Y-026255D02*
G01X0103308Y-026185D01*
G01X0103308Y-025960D02*
G01X0103308Y-025885D01*
G01X0102712Y-026255D02*
G01X0102712Y-026185D01*
G01X0102568Y-026405D02*
G01X0102568Y-026035D01*
G01X0102750Y-026147D02*
G01X0103270Y-026147D01*
G01X0102750Y-026293D02*
G01X0103270Y-026293D01*
G01X0102605Y-025847D02*
G01X0103270Y-025847D01*
G01X0102605Y-025998D02*
G01X0103270Y-025998D01*
G01X0102605Y-026442D02*
G01X0103420Y-026442D01*
G01X0102423Y-026405D02*
G01X0102423Y-025735D01*
G01X0103457Y-026405D02*
G01X0103457Y-025735D01*
G01X0101265Y-025703D02*
G01X0101335Y-025703D01*
G01X0100595Y-025703D02*
G01X0100670Y-025703D01*
G01X0099672Y-025810D02*
G01X0099672Y-025735D01*
G01X0099855Y-025703D02*
G01X0099930Y-025703D01*
G01X0098638Y-025810D02*
G01X0098638Y-025735D01*
G01X0097785Y-025698D02*
G01X0098600Y-025698D01*
G01X0098820Y-025698D02*
G01X0099635Y-025698D01*
G01X0101715Y-025847D02*
G01X0102235Y-025847D01*
G01X0101678Y-026405D02*
G01X0101678Y-025885D01*
G01X0102273Y-026405D02*
G01X0102273Y-025885D01*
G01X0101377Y-026016D02*
G01X0101377Y-026016D01*
G01X0101265Y-025852D02*
G01X0101335Y-025852D01*
G01X0101570Y-026442D02*
G01X0101640Y-026442D01*
G01X0101265Y-026442D02*
G01X0101335Y-026442D01*
G01X0101228Y-026405D02*
G01X0101228Y-026205D01*
G01X0101372Y-026405D02*
G01X0101372Y-026055D01*
G01X0100595Y-026442D02*
G01X0100670Y-026442D01*
G01X0100557Y-026405D02*
G01X0100557Y-026205D01*
G01X0100708Y-026405D02*
G01X0100708Y-026205D01*
G01X0099855Y-026442D02*
G01X0099930Y-026442D01*
G01X0099672Y-026405D02*
G01X0099672Y-026330D01*
G01X0099967Y-026405D02*
G01X0099967Y-026205D01*
G01X0100005Y-026017D02*
G01X0100520Y-026017D01*
G01X0100005Y-026168D02*
G01X0100520Y-026168D01*
G01X0100745Y-026017D02*
G01X0101335Y-026017D01*
G01X0100745Y-026168D02*
G01X0101190Y-026168D01*
G01X0098933Y-026255D02*
G01X0098933Y-025885D01*
G01X0098638Y-026405D02*
G01X0098638Y-026330D01*
G01X0097898Y-026255D02*
G01X0097898Y-025885D01*
G01X0097452Y-025960D02*
G01X0097452Y-025885D01*
G01X0097452Y-026255D02*
G01X0097452Y-026185D01*
G01X0096858Y-026255D02*
G01X0096858Y-026185D01*
G01X0096895Y-026293D02*
G01X0097415Y-026293D01*
G01X0096895Y-026147D02*
G01X0097415Y-026147D01*
G01X0097785Y-026442D02*
G01X0098600Y-026442D01*
G01X0097935Y-026293D02*
G01X0098600Y-026293D01*
G01X0097935Y-025847D02*
G01X0098600Y-025847D01*
G01X0098970Y-025847D02*
G01X0099635Y-025847D01*
G01X0098970Y-026293D02*
G01X0099635Y-026293D01*
G01X0098820Y-026442D02*
G01X0099635Y-026442D01*
G01X0097747Y-026405D02*
G01X0097747Y-025735D01*
G01X0097603Y-026405D02*
G01X0097603Y-025735D01*
G01X0101532Y-026405D02*
G01X0101532Y-025735D01*
G01X0098783Y-026405D02*
G01X0098783Y-025735D01*
G01X0101372Y-025815D02*
G01X0101372Y-025740D01*
G01X0101228Y-025815D02*
G01X0101228Y-025740D01*
G01X0100708Y-025980D02*
G01X0100708Y-025740D01*
G01X0100557Y-025980D02*
G01X0100557Y-025740D01*
G01X0099967Y-025980D02*
G01X0099967Y-025740D01*
G01X0099817Y-026405D02*
G01X0099817Y-025740D01*
G01X0101570Y-025698D02*
G01X0102385Y-025698D01*
G01X0102310Y-026442D02*
G01X0102385Y-026442D01*
G01X0096713Y-025810D02*
G01X0096713Y-025735D01*
G01X0095710Y-025698D02*
G01X0096530Y-025698D01*
G01X0094975Y-025738D02*
G01X0095045Y-025738D01*
G01X0094305Y-025738D02*
G01X0094380Y-025738D01*
G01X0093565Y-025738D02*
G01X0093640Y-025738D01*
G01X0096230Y-025847D02*
G01X0096380Y-025847D01*
G01X0096455Y-026442D02*
G01X0096530Y-026442D01*
G01X0096193Y-026405D02*
G01X0096193Y-025885D01*
G01X0096713Y-026405D02*
G01X0096713Y-026035D01*
G01X0096418Y-026405D02*
G01X0096418Y-025885D01*
G01X0095860Y-025847D02*
G01X0096010Y-025847D01*
G01X0096085Y-026442D02*
G01X0096155Y-026442D01*
G01X0095710Y-026442D02*
G01X0095785Y-026442D01*
G01X0095822Y-026405D02*
G01X0095822Y-025885D01*
G01X0096047Y-026405D02*
G01X0096047Y-025885D01*
G01X0094975Y-025887D02*
G01X0095045Y-025887D01*
G01X0094975Y-026477D02*
G01X0095045Y-026477D01*
G01X0095083Y-026440D02*
G01X0095083Y-026090D01*
G01X0094937Y-026440D02*
G01X0094937Y-026240D01*
G01X0094305Y-026477D02*
G01X0094380Y-026477D01*
G01X0094417Y-026440D02*
G01X0094417Y-026240D01*
G01X0094268Y-026440D02*
G01X0094268Y-026240D01*
G01X0094455Y-026202D02*
G01X0094900Y-026202D01*
G01X0094455Y-026052D02*
G01X0095045Y-026052D01*
G01X0093565Y-026477D02*
G01X0093640Y-026477D01*
G01X0093678Y-026440D02*
G01X0093678Y-026240D01*
G01X0093715Y-026202D02*
G01X0094230Y-026202D01*
G01X0093715Y-026052D02*
G01X0094230Y-026052D01*
G01X0093527Y-026440D02*
G01X0093527Y-025775D01*
G01X0093678Y-026015D02*
G01X0093678Y-025775D01*
G01X0094268Y-026015D02*
G01X0094268Y-025775D01*
G01X0094417Y-026015D02*
G01X0094417Y-025775D01*
G01X0094937Y-025850D02*
G01X0094937Y-025775D01*
G01X0095083Y-025850D02*
G01X0095083Y-025775D01*
G01X0095673Y-026405D02*
G01X0095673Y-025735D01*
G01X0096567Y-026405D02*
G01X0096567Y-025735D01*
G01X0096750Y-026442D02*
G01X0097565Y-026442D01*
G01X0096750Y-025998D02*
G01X0097415Y-025998D01*
G01X0096750Y-025847D02*
G01X0097415Y-025847D01*
G01X0096750Y-025698D02*
G01X0097565Y-025698D01*
G01X0080551Y-023040D02*
G01X0080551Y-022927D01*
G01X0080608Y-022871D02*
G01X0081830Y-022871D01*
G01X0081661Y-023707D02*
G01X0081661Y-023602D01*
G01X0081661Y-023265D02*
G01X0081661Y-023152D01*
G01X0080769Y-023707D02*
G01X0080769Y-023602D01*
G01X0080551Y-023932D02*
G01X0080551Y-023377D01*
G01X0080825Y-023546D02*
G01X0081605Y-023546D01*
G01X0080825Y-023764D02*
G01X0081605Y-023764D01*
G01X0080608Y-023096D02*
G01X0081605Y-023096D01*
G01X0080608Y-023321D02*
G01X0081605Y-023321D01*
G01X0080608Y-023989D02*
G01X0081830Y-023989D01*
G01X0080334Y-023932D02*
G01X0080334Y-022927D01*
G01X0081886Y-023932D02*
G01X0081886Y-022927D01*
G01X0078597Y-022879D02*
G01X0078703Y-022879D01*
G01X0077593Y-022879D02*
G01X0077705Y-022879D01*
G01X0076209Y-023040D02*
G01X0076209Y-022927D01*
G01X0076483Y-022879D02*
G01X0076595Y-022879D01*
G01X0074656Y-023040D02*
G01X0074656Y-022927D01*
G01X0073377Y-022871D02*
G01X0074600Y-022871D01*
G01X0074930Y-022871D02*
G01X0076153Y-022871D01*
G01X0079272Y-023096D02*
G01X0080052Y-023096D01*
G01X0079216Y-023932D02*
G01X0079216Y-023152D01*
G01X0080109Y-023932D02*
G01X0080109Y-023152D01*
G01X0078765Y-023349D02*
G01X0078765Y-023349D01*
G01X0078597Y-023104D02*
G01X0078703Y-023104D01*
G01X0079055Y-023989D02*
G01X0079160Y-023989D01*
G01X0078597Y-023989D02*
G01X0078703Y-023989D01*
G01X0078541Y-023932D02*
G01X0078541Y-023633D01*
G01X0078759Y-023932D02*
G01X0078759Y-023407D01*
G01X0077593Y-023989D02*
G01X0077705Y-023989D01*
G01X0077536Y-023932D02*
G01X0077536Y-023633D01*
G01X0077761Y-023932D02*
G01X0077761Y-023633D01*
G01X0076483Y-023989D02*
G01X0076595Y-023989D01*
G01X0076209Y-023932D02*
G01X0076209Y-023820D01*
G01X0076651Y-023932D02*
G01X0076651Y-023633D01*
G01X0076708Y-023351D02*
G01X0077480Y-023351D01*
G01X0076708Y-023576D02*
G01X0077480Y-023576D01*
G01X0077818Y-023351D02*
G01X0078703Y-023351D01*
G01X0077818Y-023576D02*
G01X0078485Y-023576D01*
G01X0075099Y-023707D02*
G01X0075099Y-023152D01*
G01X0074656Y-023932D02*
G01X0074656Y-023820D01*
G01X0073546Y-023707D02*
G01X0073546Y-023152D01*
G01X0072879Y-023265D02*
G01X0072879Y-023152D01*
G01X0072879Y-023707D02*
G01X0072879Y-023602D01*
G01X0071986Y-023707D02*
G01X0071986Y-023602D01*
G01X0072042Y-023764D02*
G01X0072822Y-023764D01*
G01X0072042Y-023546D02*
G01X0072822Y-023546D01*
G01X0073377Y-023989D02*
G01X0074600Y-023989D01*
G01X0073602Y-023764D02*
G01X0074600Y-023764D01*
G01X0073602Y-023096D02*
G01X0074600Y-023096D01*
G01X0075155Y-023096D02*
G01X0076153Y-023096D01*
G01X0075155Y-023764D02*
G01X0076153Y-023764D01*
G01X0074930Y-023989D02*
G01X0076153Y-023989D01*
G01X0073321Y-023932D02*
G01X0073321Y-022927D01*
G01X0073104Y-023932D02*
G01X0073104Y-022927D01*
G01X0078999Y-023932D02*
G01X0078999Y-022927D01*
G01X0074874Y-023932D02*
G01X0074874Y-022927D01*
G01X0078759Y-023047D02*
G01X0078759Y-022935D01*
G01X0078541Y-023047D02*
G01X0078541Y-022935D01*
G01X0077761Y-023295D02*
G01X0077761Y-022935D01*
G01X0077536Y-023295D02*
G01X0077536Y-022935D01*
G01X0076651Y-023295D02*
G01X0076651Y-022935D01*
G01X0076426Y-023932D02*
G01X0076426Y-022935D01*
G01X0079055Y-022871D02*
G01X0080278Y-022871D01*
G01X0080165Y-023989D02*
G01X0080278Y-023989D01*
G01X0071769Y-023040D02*
G01X0071769Y-022927D01*
G01X0070265Y-022871D02*
G01X0071495Y-022871D01*
G01X0071045Y-023096D02*
G01X0071270Y-023096D01*
G01X0071382Y-023989D02*
G01X0071495Y-023989D01*
G01X0070989Y-023932D02*
G01X0070989Y-023152D01*
G01X0071769Y-023932D02*
G01X0071769Y-023377D01*
G01X0071326Y-023932D02*
G01X0071326Y-023152D01*
G01X0070490Y-023096D02*
G01X0070715Y-023096D01*
G01X0070827Y-023989D02*
G01X0070932Y-023989D01*
G01X0070265Y-023989D02*
G01X0070377Y-023989D01*
G01X0070434Y-023932D02*
G01X0070434Y-023152D01*
G01X0070771Y-023932D02*
G01X0070771Y-023152D01*
G01X0070209Y-023932D02*
G01X0070209Y-022927D01*
G01X0071551Y-023932D02*
G01X0071551Y-022927D01*
G01X0071825Y-023989D02*
G01X0073047Y-023989D01*
G01X0071825Y-023321D02*
G01X0072822Y-023321D01*
G01X0071825Y-023096D02*
G01X0072822Y-023096D01*
G01X0071825Y-022871D02*
G01X0073047Y-022871D01*
G54D16*
G01X0014000Y0013000D03*
G01X0014000Y0013400D03*
G01X0005000Y0007376D03*
G01X0005000Y0007776D03*
G01X0011950Y0001923D03*
G01X0011950Y0002323D03*
G01X0004000Y0001077D03*
G01X0004000Y0001477D03*
G01X0013850Y0003750D03*
G01X0013850Y0004150D03*
G01X0008990Y0007500D03*
G01X0008990Y0007900D03*
G01X0006106Y0013138D03*
G01X0006106Y0012738D03*
G01X0009330Y0003713D03*
G01X0009330Y0003313D03*
G01X0008990Y0003713D03*
G01X0008990Y0003313D03*
G01X0008650Y0003713D03*
G01X0008650Y0003313D03*
G01X0007280Y0010733D03*
G01X0007280Y0010333D03*
G01X0004710Y0008827D03*
G01X0004710Y0009227D03*
G01X0006960Y0010733D03*
G01X0006960Y0010333D03*
G01X0008490Y0007500D03*
G01X0008490Y0007900D03*
G01X0010700Y0009690D03*
G01X0010700Y0009290D03*
G01X0002960Y0009637D03*
G01X0002960Y0009237D03*
G01X0005050Y0009293D03*
G01X0005050Y0009693D03*
G01X0005300Y0007383D03*
G01X0005300Y0007783D03*
G01X0007370Y0007377D03*
G01X0007370Y0006977D03*
G01X0011350Y0009293D03*
G01X0011350Y0009693D03*
G01X0005380Y0009687D03*
G01X0005380Y0009287D03*
G01X0006350Y0003553D03*
G01X0006350Y0003953D03*
G01X0008700Y0010727D03*
G01X0008700Y0010327D03*
G01X0009710Y0010727D03*
G01X0009710Y0010327D03*
G01X0006170Y0010787D03*
G01X0006170Y0010387D03*
G01X0009390Y0010727D03*
G01X0009390Y0010327D03*
G01X0008570Y0002277D03*
G01X0008570Y0001877D03*
G01X0008370Y0010727D03*
G01X0008370Y0010327D03*
G01X0008240Y0002277D03*
G01X0008240Y0001877D03*
G01X0006153Y0009680D03*
G01X0006153Y0009280D03*
G01X0007850Y0003113D03*
G01X0007850Y0002713D03*
G01X0011017Y0009290D03*
G01X0011017Y0009690D03*
G01X0007600Y0010327D03*
G01X0007600Y0010727D03*
G01X0001870Y0014440D03*
G01X0001870Y0014840D03*
G01X0013940Y0014429D03*
G01X0013940Y0014029D03*
G54D17*
G01X0003110Y0014200D03*
G01X0003110Y0012566D03*
G01X0002264Y0014200D03*
G01X0002264Y0012566D03*
G01X0004367Y0012563D03*
G01X0004367Y0014197D03*
G01X0005213Y0012563D03*
G01X0005213Y0014197D03*
G54D18*
G01X0002550Y0010050D03*
G01X0002950Y0010050D03*
G01X0013300Y0002450D03*
G01X0012900Y0002450D03*
G01X0010000Y0001750D03*
G01X0010400Y0001750D03*
G01X0013150Y0003750D03*
G01X0013550Y0003750D03*
G01X0010350Y0002609D03*
G01X0009950Y0002609D03*
G01X0002550Y0007900D03*
G01X0002950Y0007900D03*
G01X0002500Y0005050D03*
G01X0002900Y0005050D03*
G01X0002500Y0004500D03*
G01X0002900Y0004500D03*
G01X0004587Y0004540D03*
G01X0004987Y0004540D03*
G01X0006870Y0013132D03*
G01X0006470Y0013132D03*
G01X0004763Y0012170D03*
G01X0004363Y0012170D03*
G01X0004763Y0011490D03*
G01X0004363Y0011490D03*
G01X0007397Y0004590D03*
G01X0007797Y0004590D03*
G01X0007397Y0004930D03*
G01X0007797Y0004930D03*
G01X0007397Y0005270D03*
G01X0007797Y0005270D03*
G01X0011083Y0008940D03*
G01X0010683Y0008940D03*
G01X0004387Y0010200D03*
G01X0004787Y0010200D03*
G01X0002953Y0011180D03*
G01X0003353Y0011180D03*
G01X0007097Y0012059D03*
G01X0006697Y0012059D03*
G01X0007097Y0012409D03*
G01X0006697Y0012409D03*
G01X0013080Y0010049D03*
G01X0013480Y0010049D03*
G01X0004350Y0005649D03*
G01X0004750Y0005649D03*
G01X0011500Y0002950D03*
G01X0011100Y0002950D03*
G01X0004553Y0005980D03*
G01X0004953Y0005980D03*
G01X0011500Y0003650D03*
G01X0011100Y0003650D03*
G01X0013080Y0010880D03*
G01X0013480Y0010880D03*
G01X0004950Y0002650D03*
G01X0004550Y0002650D03*
G01X0002550Y0008200D03*
G01X0002950Y0008200D03*
G01X0002800Y0002400D03*
G01X0003200Y0002400D03*
G01X0003550Y0014350D03*
G01X0003950Y0014350D03*
G01X0004310Y0001480D03*
G01X0004710Y0001480D03*
G01X0010400Y0002020D03*
G01X0010000Y0002020D03*
G54D19*
G01X0003617Y0001077D03*
G01X0001983Y0001077D03*
G01X0003617Y0001923D03*
G01X0001983Y0001923D03*
G01X0014017Y0001077D03*
G01X0012383Y0001077D03*
G01X0014017Y0001923D03*
G01X0012383Y0001923D03*
G54D20*
G01X0002000Y0007913D03*
G01X0002000Y0007087D03*
G01X0002000Y0006163D03*
G01X0002000Y0005337D03*
G01X0002000Y0011413D03*
G01X0002000Y0010587D03*
G01X0002000Y0009663D03*
G01X0002000Y0008837D03*
G01X0002000Y0004413D03*
G01X0002000Y0003587D03*
G54D21*
G01X0006970Y0014874D03*
G01X0006970Y0015524D03*
G01X0005760Y0009839D03*
G01X0005760Y0009189D03*
G01X0005880Y0003599D03*
G01X0005880Y0004249D03*
G01X0007980Y0010796D03*
G01X0007980Y0010146D03*
G01X0006470Y0015524D03*
G01X0006470Y0014874D03*
G54D22*
G01X0013080Y0010470D03*
G01X0013730Y0010470D03*
G01X0002600Y0011600D03*
G01X0003250Y0011600D03*
G54D23*
G01X0008000Y0003509D03*
G01X0007750Y0004159D03*
G01X0007500Y0003509D03*
G54D24*
G01X0013000Y0003363D03*
G01X0011661Y0004151D03*
G01X0013000Y0004938D03*
G01X0011661Y0005726D03*
G01X0013000Y0006513D03*
G01X0011661Y0007300D03*
G01X0013000Y0008088D03*
G01X0011661Y0008875D03*
G01X0013000Y0009663D03*
G01X0011661Y0010450D03*
G01X0004339Y0003363D03*
G01X0003000Y0004151D03*
G01X0004339Y0004938D03*
G01X0003000Y0005726D03*
G01X0004339Y0006513D03*
G01X0003000Y0007300D03*
G01X0004339Y0008088D03*
G01X0003000Y0008875D03*
G01X0004339Y0009663D03*
G01X0003000Y0010450D03*
G54D25*
G01X0008490Y0006623D03*
G01X0008990Y0006623D03*
G01X0009490Y0006623D03*
G01X0009990Y0006623D03*
G01X0009990Y0004423D03*
G01X0009490Y0004423D03*
G01X0008990Y0004423D03*
G01X0008490Y0004423D03*
G54D26*
G01X0005868Y0006514D03*
G01X0006812Y0008246D03*
G01X0005868Y0008246D03*
G01X0006812Y0006514D03*
G54D27*
G01X0006856Y0013565D03*
G01X0006486Y0014365D03*
G01X0006106Y0013565D03*
G54D28*
G01X0006289Y0016560D03*
G01X0007471Y0016560D03*
G54D29*
G01X0007037Y0016403D03*
G01X0006723Y0016403D03*
G54D30*
G01X0007622Y0015366D03*
G01X0013724Y0015366D03*
G54D31*
G01X0013724Y0011586D03*
G54D32*
G01X0007976Y0011586D03*
G54D33*
G01X0013252Y0011389D03*
G01X0012818Y0011389D03*
G01X0012385Y0011389D03*
G01X0011952Y0011389D03*
G01X0011519Y0011389D03*
G01X0011086Y0011389D03*
G01X0010653Y0011389D03*
G01X0010220Y0011389D03*
G01X0009787Y0011389D03*
G54D34*
G01X0003921Y0015104D03*
G01X0004689Y0015104D03*
G01X0004433Y0015104D03*
G01X0004177Y0015104D03*
G01X0003665Y0015104D03*
G54D35*
G01X0004630Y0016226D03*
G01X0003724Y0016226D03*
G54D36*
G01X0002701Y0016226D03*
G01X0005654Y0016226D03*
G54D37*
G01X0000520Y0005531D03*
G01X0000520Y0004744D03*
G01X0001307Y0004744D03*
G01X0000520Y0003957D03*
G01X0001307Y0003957D03*
G01X0000520Y0003169D03*
G01X0001307Y0003169D03*
G01X0000520Y0002382D03*
G01X0000520Y0001594D03*
G01X0001307Y0001594D03*
G01X0000520Y0000807D03*
G01X0001307Y0000807D03*
G01X0001307Y0002382D03*
G01X0001307Y0014193D03*
G01X0000520Y0013406D03*
G01X0001307Y0013406D03*
G01X0000520Y0012618D03*
G01X0001307Y0012618D03*
G01X0000520Y0011831D03*
G01X0001307Y0011831D03*
G01X0000520Y0011043D03*
G01X0000520Y0010256D03*
G01X0001307Y0010256D03*
G01X0000520Y0009469D03*
G01X0001307Y0009469D03*
G01X0000520Y0008681D03*
G01X0001307Y0008681D03*
G01X0000520Y0007894D03*
G01X0001307Y0007894D03*
G01X0000520Y0007106D03*
G01X0001307Y0007106D03*
G01X0000520Y0006319D03*
G01X0001307Y0006319D03*
G01X0001307Y0005531D03*
G01X0001307Y0011043D03*
G01X0014693Y0005531D03*
G01X0014693Y0004744D03*
G01X0015480Y0004744D03*
G01X0014693Y0003957D03*
G01X0015480Y0003957D03*
G01X0014693Y0003169D03*
G01X0015480Y0003169D03*
G01X0014693Y0002382D03*
G01X0014693Y0001594D03*
G01X0015480Y0001594D03*
G01X0014693Y0000807D03*
G01X0015480Y0000807D03*
G01X0015480Y0002382D03*
G01X0015480Y0014193D03*
G01X0014693Y0013406D03*
G01X0015480Y0013406D03*
G01X0014693Y0012618D03*
G01X0015480Y0012618D03*
G01X0014693Y0011831D03*
G01X0015480Y0011831D03*
G01X0014693Y0011043D03*
G01X0014693Y0010256D03*
G01X0015480Y0010256D03*
G01X0014693Y0009469D03*
G01X0015480Y0009469D03*
G01X0014693Y0008681D03*
G01X0015480Y0008681D03*
G01X0014693Y0007894D03*
G01X0015480Y0007894D03*
G01X0014693Y0007106D03*
G01X0015480Y0007106D03*
G01X0014693Y0006319D03*
G01X0015480Y0006319D03*
G01X0015480Y0005531D03*
G01X0015480Y0011043D03*
G54D38*
G01X0000520Y0014193D03*
G01X0014693Y0014193D03*
G54D39*
G01X0006750Y0009000D03*
G01X0007550Y0008400D03*
G01X0009750Y0008500D03*
G01X0009750Y0008000D03*
G01X0007000Y0009870D03*
G54D40*
G01X0009472Y0015523D03*
G01X0012614Y0015523D03*
G54D41*
G01X0003290Y0009430D03*
G01X0002705Y0009280D03*
G01X0007700Y0009300D03*
G01X0013630Y0009740D03*
G01X0011100Y0003310D03*
G01X0008200Y0014170D03*
G01X0008200Y0014530D03*
G01X0012140Y0014520D03*
G01X0008490Y0008200D03*
G01X0008440Y0013370D03*
G01X0002930Y0010910D03*
G01X0011500Y0003310D03*
G01X0003670Y0015590D03*
G01X0004350Y0005360D03*
G01X0007600Y0014670D03*
G01X0005550Y0014440D03*
G01X0013120Y0013230D03*
G01X0013100Y0014670D03*
G01X0012530Y0015970D03*
G01X0012140Y0015420D03*
G01X0011970Y0015750D03*
G01X0011600Y0015750D03*
G01X0011230Y0015750D03*
G01X0005880Y0003250D03*
G01X0005380Y0009030D03*
G01X0002490Y0014940D03*
G01X0009420Y0011060D03*
G01X0008240Y0002610D03*
G01X0008430Y0009230D03*
G01X0006170Y0011100D03*
G01X0008530Y0011060D03*
G01X0008030Y0016560D03*
G01X0004040Y0011240D03*
G01X0008490Y0007180D03*
G01X0009410Y0009610D03*
G01X0009350Y0009989D03*
G01X0008355Y0009595D03*
G01X0008330Y0009990D03*
G01X0006170Y0010040D03*
G01X0003350Y0010840D03*
G01X0006160Y0009020D03*
G01X0004750Y0005350D03*
G01X0005090Y0005200D03*
G01X0005383Y0009977D03*
G01X0008550Y0001260D03*
G01X0008240Y0001570D03*
G01X0010840Y0003650D03*
G01X0012652Y0010075D03*
G01X0010390Y0009690D03*
G01X0005880Y0015577D03*
G01X0003350Y0009915D03*
G01X0008190Y0013609D03*
G01X0013260Y0015650D03*
G01X0012130Y0013270D03*
G01X0012140Y0014180D03*
G01X0008510Y0014530D03*
G01X0008510Y0014170D03*
G01X0009590Y0014530D03*
G01X0009590Y0014170D03*
G01X0003870Y0010840D03*
G01X0011647Y0009687D03*
G01X0004933Y0003357D03*
G01X0009990Y0004980D03*
G01X0005160Y0015070D03*
G01X0012130Y0013610D03*
G01X0007350Y0013609D03*
G01X0005750Y0014009D03*
G01X0013400Y0014459D03*
G01X0006150Y0004730D03*
G01X0013480Y0013539D03*
G01X0010393Y0009293D03*
M02*
