M48
;Layer_Color=8388608
;FILE_FORMAT=2:4
INCH,LZ
;TYPE=PLATED
T1F00S00C0.0100
T2F00S00C0.0150
T3F00S00C0.0295
%
T01
X00825Y0008
X0086Y000809
X00907Y000859
X00916Y001559
X009123Y002497
X0095Y00294
X0097Y0031
X00963Y003409
X01026Y003439
X01025Y00291
X01057Y002609
X011091Y002499
X011485Y002494
X01195Y002553
X0123Y00235
X01265Y00245
X01275Y00215
X01305Y00185
X01335Y0002
X0148
X0153Y0003
X0158
X01415Y00425
X01331Y00418
X01307
X01279Y00376
X013Y00522
X0128Y005709
X01395Y0057
X0136Y0051
X01172Y00502
X011661Y005379
X01125Y0053
X0114Y00485
X01091Y00502
X01095Y00445
X01111Y00404
X011Y00575
X0112Y0061
X01105Y0066
X0118
Y00625
X011126Y007339
X01109Y00812
X011165Y008539
X01087Y00867
X0106Y008329
X01005Y00825
X01Y00775
X01036Y00777
X00999Y00713
X00949Y007139
X00924Y00612
X00974
X01015Y00585
X01Y00555
X00935Y00565
Y0052
X0085Y0058
X00815Y00555
X00832Y00352
X00988Y0012
X01018
X0105Y0014
X01101Y0016
X011288Y001601
X0098Y0002
X00849Y00857
X01171Y00817
X011638Y009293
X011485Y010095
X01105Y01
X01173Y01088
X0121Y01085
X01239Y01097
X01195Y01181
X011086Y011816
X01035Y01195
X00965
X00825Y0121
X01245Y0124
X0137Y01095
X01418Y011185
X0143Y01063
X01431Y00989
X01409Y00939
X01363Y00931
X01325
X01275
Y0085
X01365Y00855
X01409Y008465
X01397Y007
X0077Y0068
X00755Y0066
X00727Y006535
X00666Y00592
X00632Y005819
X00634Y00702
X005868Y007383
X00681Y00768
X0073Y0079
X0077
X00705Y0088
X006317Y00865
X00586Y00879
X00491Y00805
X00458Y00733
X00427Y007383
X004765Y00712
X00463Y00686
X00495Y00635
X00428Y006045
X0033Y00645
X00285
X002367Y006163
X0025Y00695
X00245Y0076
X00302Y007659
X003285Y00794
X0033Y0083
X00302Y008459
X00273Y00859
X002Y00828
Y01003
X0009Y01065
X002Y011769
X00368Y01176
X00385Y01153
X00455Y01185
X0052Y0118
X00507Y011
X00502Y009989
X00393Y01
X004757Y012397
X006422Y012407
X006417Y012053
X00606Y01141
X00728Y0113
Y01102
X0074Y0116
Y012229
X00728Y01005
X00745Y00951
X0078Y0058
X0074Y00435
X00677Y00375
X00635Y00325
X00565Y002729
X0054Y00255
X00516Y00265
X00435Y002078
X004Y0017
X0036Y0015
X00305
X00325Y0021
X0033Y0027
Y003
X00273Y00324
X00256Y00345
X0023Y00305
X0027Y0027
X0026Y0021
X00313Y0045
X00302Y005309
X00275Y00535
X002Y00478
X00431Y00437
X00464Y00411
X00451Y003719
X00499Y0043
X00525Y0047
X00535Y0012
X0058
X00583Y00077
X0063Y00065
X006Y0002
X00485
X0069Y00095
X00666Y001359
X00725Y0014
X007543Y001581
X00785Y0016
X007548Y002551
X00762Y002839
X007Y00255
X008Y0002
X0008Y0004
X0002Y0002
X0033Y00695
X0035Y01285
X00311Y01288
X0027Y01255
X0025Y01314
Y01349
Y01383
X00215Y01355
X00185Y0139
Y0131
X0018Y01255
X0009Y013
X00145Y01479
X00209Y01484
X0021Y0151
X0031
X00328Y01568
X004117Y015558
X004493
X00499Y01538
X0055Y0155
X00458Y0168
X004
X00326
X00286Y01671
X00266
X00348Y01383
X00395Y01405
Y0134
X00489Y01333
X0051Y01312
X00531Y01291
X0069Y0141
X0076
X008Y01264
X0002Y0148
X00844Y0149
X00815Y0153
X00835Y01559
X00899Y01558
X00895Y01656
X00867
X00839
X01Y0168
Y01585
Y0149
X0109
Y01535
X012Y0168
X0138
Y016
X0142Y0151
Y0145
X0137Y0144
X01325Y01295
Y0125
X014Y01275
X0143Y013
X0151
Y0138
X0158Y0148
X01245Y01275
X01192Y01258
X01146Y01292
X01102Y01258
X01035Y01275
X00965
T02
X00855Y00126
X00824Y00157
Y00261
X0111Y00331
X0115
X01084Y00365
X00999Y00498
X00975Y008
Y0085
X010393Y009293
X01039Y00969
X00941Y00961
X00935Y009989
X00833Y00999
X008355Y009595
X00843Y00923
X00849Y0082
Y00718
X00853Y01106
X00942
X011647Y009687
X012652Y010075
X01363Y00974
X0077Y0093
X00755Y0084
X00675Y009
X00616Y00902
X00538Y00903
X005383Y009977
X00617Y01004
X007Y00987
X00617Y0111
X00404Y01124
X00387Y01084
X00335
X00293Y01091
X00335Y009915
X00329Y00943
X002705Y00928
X00435Y00536
X00475Y00535
X00509Y0052
X00615Y00473
X00588Y00325
X004933Y003357
X00575Y014009
X00555Y01444
X00516Y01507
X00588Y015577
X00367Y01559
X00249Y01494
X0076Y01467
X00735Y013609
X00803Y01656
X0082Y01453
X00851
Y01417
X0082
X00819Y013609
X00844Y01337
X00959Y01417
Y01453
X01214Y01452
Y01418
X01213Y01361
Y01327
X01312Y01323
X01348Y013539
X0134Y014459
X0131Y01467
X01326Y01565
X01253Y01597
X01197Y01575
X0116
X01123
X01214Y01542
T03
X014693Y000807
X01548
Y001594
X014693
Y002382
X01548
Y003169
X014693
Y003957
X01548
Y004744
X014693
Y005531
Y006319
Y007106
Y007894
Y008681
Y009469
X01548
Y008681
Y007894
Y007106
Y006319
Y005531
Y010256
X014693
Y011043
Y011831
X01548Y011831
X01548Y011043
X001307
X00052Y011043
Y011831
X001307Y011831
Y010256
X00052
Y009469
Y008681
X001307
Y009469
Y007894
Y007106
X00052
Y007894
Y006319
Y005531
X001307
Y006319
X001307Y004744
X00052
Y003957
X001307
Y003169
X00052
Y002382
X001307
Y001594
X00052
Y000807
X001307
X001307Y012618
Y013406
X00052
Y012618
Y014193
X001307
X014693
X01548
X01548Y013406
Y012618
X014693
Y013406
M30
